<mxfile host="Electron" modified="2024-04-16T15:40:49.909Z" agent="Mozilla/5.0 (Windows NT 10.0; Win64; x64) AppleWebKit/537.36 (KHTML, like Gecko) draw.io/22.0.3 Chrome/114.0.5735.289 Electron/25.8.4 Safari/537.36" etag="SJIvbinQOPHngBVrllf8" version="22.0.3" type="device">
  <diagram id="I_iCt_spiKK6jRgvsJEb" name="Page-1">
    <mxGraphModel dx="1436" dy="1014" grid="1" gridSize="10" guides="1" tooltips="1" connect="1" arrows="1" fold="1" page="0" pageScale="1" pageWidth="850" pageHeight="1100" math="0" shadow="0">
      <root>
        <mxCell id="0" />
        <mxCell id="1" parent="0" />
        <mxCell id="qivoIHH8CJ9T5ArKO1uE-48" style="edgeStyle=orthogonalEdgeStyle;rounded=1;sketch=0;jumpStyle=arc;orthogonalLoop=1;jettySize=auto;html=1;exitX=0.5;exitY=1;exitDx=0;exitDy=0;entryX=0.5;entryY=0;entryDx=0;entryDy=0;strokeWidth=1;startArrow=classic;startFill=1;endArrow=classic;endFill=1;dashed=1;curved=1;" parent="1" source="qivoIHH8CJ9T5ArKO1uE-1" target="qivoIHH8CJ9T5ArKO1uE-3" edge="1">
          <mxGeometry relative="1" as="geometry" />
        </mxCell>
        <mxCell id="qivoIHH8CJ9T5ArKO1uE-1" value="&lt;div&gt;Shared Postgres Database&lt;/div&gt;" style="shape=datastore;whiteSpace=wrap;html=1;sketch=0;rounded=1;" parent="1" vertex="1">
          <mxGeometry x="130" y="650" width="120" height="110" as="geometry" />
        </mxCell>
        <mxCell id="qivoIHH8CJ9T5ArKO1uE-37" style="edgeStyle=orthogonalEdgeStyle;rounded=1;sketch=0;jumpStyle=arc;orthogonalLoop=1;jettySize=auto;html=1;exitX=1;exitY=0.25;exitDx=0;exitDy=0;entryX=-0.017;entryY=0.454;entryDx=0;entryDy=0;entryPerimeter=0;startArrow=none;startFill=0;endArrow=classic;endFill=1;curved=1;strokeWidth=2;" parent="1" source="qivoIHH8CJ9T5ArKO1uE-2" target="qivoIHH8CJ9T5ArKO1uE-32" edge="1">
          <mxGeometry relative="1" as="geometry" />
        </mxCell>
        <mxCell id="qivoIHH8CJ9T5ArKO1uE-38" style="edgeStyle=orthogonalEdgeStyle;rounded=1;sketch=0;jumpStyle=arc;orthogonalLoop=1;jettySize=auto;html=1;exitX=1;exitY=0.75;exitDx=0;exitDy=0;entryX=-0.008;entryY=0.562;entryDx=0;entryDy=0;entryPerimeter=0;startArrow=classic;startFill=1;endArrow=none;endFill=0;curved=1;strokeWidth=2;" parent="1" source="qivoIHH8CJ9T5ArKO1uE-2" target="qivoIHH8CJ9T5ArKO1uE-32" edge="1">
          <mxGeometry relative="1" as="geometry" />
        </mxCell>
        <mxCell id="qivoIHH8CJ9T5ArKO1uE-39" style="edgeStyle=orthogonalEdgeStyle;rounded=1;sketch=0;jumpStyle=arc;orthogonalLoop=1;jettySize=auto;html=1;exitX=0.5;exitY=1;exitDx=0;exitDy=0;entryX=0;entryY=0.5;entryDx=0;entryDy=0;startArrow=none;startFill=0;endArrow=classic;endFill=1;strokeWidth=2;curved=1;" parent="1" source="qivoIHH8CJ9T5ArKO1uE-2" target="qivoIHH8CJ9T5ArKO1uE-1" edge="1">
          <mxGeometry relative="1" as="geometry" />
        </mxCell>
        <mxCell id="qivoIHH8CJ9T5ArKO1uE-2" value="API Server" style="rounded=1;whiteSpace=wrap;html=1;fontStyle=1;strokeWidth=2;verticalAlign=top;" parent="1" vertex="1">
          <mxGeometry x="-160" y="220" width="180" height="140" as="geometry" />
        </mxCell>
        <mxCell id="qivoIHH8CJ9T5ArKO1uE-3" value="Read Replica(s)" style="shape=datastore;whiteSpace=wrap;html=1;dashed=1;sketch=0;rounded=1;" parent="1" vertex="1">
          <mxGeometry x="130" y="800" width="120" height="110" as="geometry" />
        </mxCell>
        <mxCell id="qivoIHH8CJ9T5ArKO1uE-17" value="" style="group;sketch=0;rounded=1;" parent="1" vertex="1" connectable="0">
          <mxGeometry x="360" y="440" width="180" height="110" as="geometry" />
        </mxCell>
        <mxCell id="qivoIHH8CJ9T5ArKO1uE-14" value="Repository Meta Analyzer" style="rounded=1;whiteSpace=wrap;html=1;dashed=1;fillColor=#dae8fc;strokeColor=#6c8ebf;" parent="qivoIHH8CJ9T5ArKO1uE-17" vertex="1">
          <mxGeometry x="20" width="160" height="90" as="geometry" />
        </mxCell>
        <mxCell id="qivoIHH8CJ9T5ArKO1uE-13" value="Repository Meta Analyzer" style="rounded=1;whiteSpace=wrap;html=1;dashed=1;fillColor=#dae8fc;strokeColor=#6c8ebf;" parent="qivoIHH8CJ9T5ArKO1uE-17" vertex="1">
          <mxGeometry x="10" y="10" width="160" height="90" as="geometry" />
        </mxCell>
        <mxCell id="qivoIHH8CJ9T5ArKO1uE-8" value="Repository Meta Analyzer" style="rounded=1;whiteSpace=wrap;html=1;fillColor=#dae8fc;strokeColor=#6c8ebf;sketch=0;" parent="qivoIHH8CJ9T5ArKO1uE-17" vertex="1">
          <mxGeometry y="20" width="160" height="90" as="geometry" />
        </mxCell>
        <mxCell id="VMr1wWkczlRjw2ziYmWZ-4" value="" style="shape=image;verticalLabelPosition=bottom;labelBackgroundColor=default;verticalAlign=top;aspect=fixed;imageAspect=0;image=data:image/png,iVBORw0KGgoAAAANSUhEUgAAASwAAAHaCAYAAAC6tnRxAAABhWlDQ1BJQ0MgcHJvZmlsZQAAKJF9kTtIw1AUhv+miq+KgxmKOGSoThZERRy1CkWoEGqFVh1MbvqCJg1Jiouj4Fpw8LFYdXBx1tXBVRAEHyCuLk6KLlLiuWmhRYwHLvfjv+f/ufdcQKiVmG53jAO64VjJeExKZ1alrlcE0AcRPQgrzDbnZDkB3/q6p26quyjP8u/7s/q1rM2AgEQ8y0zLId4gnt50TM77xCIrKBrxOfGYRRckfuS62uA3znmPBZ4pWqnkPLFILOXbWG1jVrB04iniiKYblC+kG6xx3uKslyqseU/+wlDWWFnmOq1hxLGIJciQoKKCIkpwEKXdIMVGks5jPv4hzy+TSyVXEYwcCyhDh+L5wf/g92zt3OREIykUAzpfXPdjBOjaBepV1/0+dt36CRB8Bq6Mlr9cA2Y+Sa+2tMgRMLANXFy3NHUPuNwBwk+mYimeFKQl5HLA+xl9UwYYvAV61xpza57j9AFI0awSN8DBITCap+x1n3d3t8/t357m/H4AFB1ygWgb614AAAAGYktHRAD/AP8A/6C9p5MAAAAJcEhZcwAADdcAAA3XAUIom3gAAAAHdElNRQfnAQsUCTDBwK9iAAAgAElEQVR42u3de5hdVWH38e86M5kJ5MJNCmhVEHLRBObMZAoiRQgXFQWLtdyUxFaFUsJFpAVebbnYKkgtWiwg1lYgXDRUKxS1iCZgIAaZzCUkr7khSgskgpArkMnMWe8fZxDlVQT22mfO2ef7eR6fxwce1pnnt9f57bXP2WftQJ2JLB8PW6dCmAJxKoTJwJ7AuJH/7QBMBFpobhuBzcAWCBuBJyCugLgSWlbBtp8Euh9HKpAw+gXVsz2U3gbhj4GDgLcDbR6aJB4H7oXwfajcGej6uZHIwnrlq6g2GHw38CHg3RZUzZLvhTAXWm8J7LvOPGRhvWRR9b4FwunAicAuxj9qhoA7ga9A+fZAqBiJLKwXiqoDSudC/AB+9lRvHoJwOTz974GZQ8ahpi2sSF8ZwqUQ32XUde+nEC+BzrmBEI1DTVNYkYFxMPx3EM4FWo25odwLlTmBGUuNQoUvrEjviRCuAPYw3oY1BPFKaL8oMG2zcahwhVW9f2rwGuBkYy2MVRCPD3QNGIXqQSnRquotMPgjy6pwJkNpcaTvbKNQIVZYkd5ZEK4FtjPOQrsJxn8kMGmrUaghC2vkzHtFqpWa6t7dMHxsoHuDUahhCisSA/RdCuF8I2w28UHgXYGux8xCdV9Y1bIa+FeIHzG+prUGwqGB8qNGoVp6FZdy/ZdbVk1vH4h3RpbtbBSq28KK9J0H/LWxCZgG275TvUlYqrNLwpFvA69n9LakGQZ+BqwCHoa4CcIG4BkIzxb/UFVaoDQR4gRgHMQ9RvYKmwJsP4p/2O1Qfp8/oFbdFFZkyX5QWkxtb13YBtwHcT6E+TC+x6/Uf9uxiQEGJgEzoTITwhHUfCeMeGGg6+89Ghr1whq5g71n5ExeCz0Q5wK3BLqe8BC90gLrGQOlo6A0G+LRQHttVr/x8EDXPR4BjXJh9d8AcVYN/pb7oHRhoGO+hyVVeQ38AVROBz5GdWvpPK2DbeXA/mtNXqNSWCM/ZL4l57/hXiidHejo9XDkVVz37wJtfwfMId/dM24LdB5r4qp5YUUWT4T2FeS368ITwHlQvt79l2pVXH1l4GrgwByn1DGB8h2mrTy8xG0N7Z/KsazuhlgOdF5nWdXy7NTZD+WDIFxA9VvXPGrxKm91UE0La+RMPCeH16sAF8PqI/xpx2iVVoiB8meh9A4gjwdRvAGGLzBp1eySMNL/3Ry2NR6CcGqg/FVjr5dLxIG9oHInMCnxtHoOht7kcxGV+worsmRGDmW1BSrHWFb1drbqeBhaDwb6ElfhWGj5mAmrBpeE4ROJX2MbxOMCM/7buOuxtPZdB4NHAj9JPPScSM9rTFi5FVZkyZshpPxaOgKnBLq+a9T1XFoH/HLkM61HEg47DlrOMF3luMIqzSHpZnzx4kDn9cbcEJeH/wul9wEpf/50WmSBT01S+sKqPj6eExKOfTes+bQRN1Rp9QLnJhxyN9jxHSarHFZY294DpPrM4QnYdlLg+GEjbrTS6rwKwjcSrrJnm6pyKKykE+tv/E1ZIxs8A1ifaIr9SaRvRzNVssIauTP5qERn1IVQvsFoG3mVtf9aiBclmg9jgfeYqhKusOJBpNmGJFZ/yOzPbRrfmqsgrEhUWoeZpxIWViXVhPpOoNxnrEVYZR0/DPGyRKMdbqJKWFhhZqLxLjXSIll9I7AmwUBvjPTtaZ7KXFjVHUXpSjDWA4HO+4y0aKssrk003KEmqgQrrME3k2RTt+AH7YUUbybJVjRhulkqQWGFFHu1b4OhrxlnEVdZXY9B/H6C4ptimkpQWJUEEyn8MND9pHEW1rcSjGFhqV5WWHGBURZ6mqR4MMheIz//kjIV1usTjGNhFfqysLwK4v9kHKYVBl9rmspYWHFCxjGGoK3HKAtfW/dnH6Nlgjkqa2FNzDjGw4Fpg0ZZeCuzDzFsYSnzJeGE0Z/Iqn8xwXEOFpayFhYZH8kUf2aMTTFVHk5QehPNUVkLa0zGs+ZGY2wGwymO8xhzVNbCymqzMTaD1k1moAIUVtxijE2xwvLEpCIUVqlijM1gm8dZhbgklCQLS5IsLEkWliRZWJJkYUmysCTJwpJkYUmShSVJFpYkC0uSLCxJsrAkWViSZGFJkoUlycKSJAtLkiwsSRaWJFlYkmRhSbKwJMnCkiQLS5KFJUkWliRZWJIsLEmysCTJwpJkYUmShSVJFpYkC0uSLCxJFpYkWViSZGFJsrAkycKSJAtLkoUlSRaWJFlYkiwsSbKwJMnCkmRhSZKFJUkWliQLS5IsLEmysCRZWJJkYUlSPoUVxxpjM9h+ezNQEVZY442xGWybYAaqh8KqZBxjojE2xVRJcGKKFXNU1sLaknGM3Y2xGcQ9Eky3zeaorIWVcRLFKcbYDMLU7GNUNpmjshZWxkkUpkRiMMrCr7ASnJhKG81RGQsrZD3rjYPevY2y8Cus/RKUnpeEylpY8RcJhplplAVeW7F0J4jl7CMN/8I0lfWScFWCcSysQqscCrRkXKGtDXRvMEtlXWGtTDDOEZGeMcZZ2DXWuxKMscoclaCwWlIU1q7Q+k7jLOLl4PI24P0JhlphmkpQWMOJJlKcbZxFtPUYYJfs44SVZqnMhRXoegz4WYIJeUzkx95EWjjh1ETj3GeWSrDCAmBBghXWWBhzjpEW6XKwvxM4MsFQm+CpJSaqRIUVFyQab06k5zXGWpjKuhBIcVPwPYGZQ+apRIVVmp9ovHHQ8gljLcLqqu9twJ8kuhxcYKJKVliB8qNAX6Ixz4ws2c9oG7msFrQCVydaXQHcYapKuMICCHMTjdkKpasj0d1MG9ZOZwIdiQa7P1D2HiwlL6ybgFSfMxwEA14aNuTqaum+ED+dcMi5pqrkhRXo+AXwvYRT/5JI7+FG3EhltXw8VOYB2yUachsMf91klcMKCyB8Je3YpRsjA3sZcyOU1bwWGLwJ4tSEw/5noPtJ01VOhdXxLWBZwrfB7lC5K/LgbkZdz2UVA0z6EvDetCNXLjdd5VZYgRAhfDbxa+wN274TuX8X465XfZcCH0086LcDM7xZVHmusABW3QKsTvsyoQvaFkZ63mDk9XUZGOn9EoTzcxj+UhNW7oUVOH4Y+HQOr/VmaLkv0lc29nooqxUTYNI3IfxlDsN/N9DpbwdVixUWQPkG4J4cXu8PgcWRvrONfjTLqvct8Oxikn9mBcBWKPmbUtWusKqfZVXOIt19Wb+uHfhCpG+euzvUuqgWtEb6z4HSEuAt+bxK+Gygw61kVMsVFgRmLAW+mONrHwdjVkT6zq5+pa6cV1XdsOMiiFdUd9bIxUPwtJ9dKTfhpSf58vEw2APk/ezBn0C8DDbc7K/68yiq8Lcjl395Po5tGOLhga57TF2jUljVCb9kPygtJt3dzy/lpxCvhsrNge7HPTyvtqRWt8Omo4FTINRo6+p4YaDr701fo1pY1TdA/6kQr63h3zUMfA/CbRDnBzpXe6h+3zFauhMMHwIcVb3cZqcavvz3ofzOQKh4JDTqhVV9Q/TdBHxglN6O/wNhMbAKwgqID1cfytm6CUrroRKb5HCNh8HxUBoPvA6YPPJE5jKEDjI/iutVeRRaZwT2XefbSXVUWMvbYPC/gHcYm0ZsAA4NdPYbheqqsKqltWICPHN39c51NblnofTOQMdCo1CtvKJN9gJTN8GYdwNrjK6pDQEnWVaq68Kqlta+62D47cCA8TWlrRBPCnTeZhSq60vC37w87NsR4u0QDjbGprEeSu91ZaWGWWG90HSd6+G5dwK3G2NTeBRa3m5ZqSFXWC+stGKA/rOAfwTGGGkhLYDhD3ozrxp2hfVC44UY6PxniEcAjxlpoQwDl8DqIy0rFWKF9ZurrYE/gMq1wLFG2/AegvgRfxuowhbWC8XVfzTEKwEfQNF4tkG4BsInAh1bjEOFL6xqaS3aDsZ+AsK51OaH08ruO1A5OzDD++zUXIX1QnH17gphDnA2sKOR16Xvj+y28COjUFMX1gvFtWxn2HYWcBrgY79G3yDwLeBSfwsoC+t3Fte8FthnJpRmQ/xTYJyHoaaHfAnEuVC6ZeRp35KF9fLKq2cHaDka4mEQDgP29JAktxH4IYT5wLcD5VVGIgsrSYEN7AWVQyBMH9nnaQrVbxpbPVQvyzpgBbCyum9YWARPLXHbaVlYNSux5W0w+FqoTKxuXBfGQ9zBQxeerW5iWNkEcT3wZKB7g7lIkiRJkiRJkiRJkiRJNReMQEVUvX/vub2hZSrVB86+BpgIYSJUxkFwBxHCBohbgC3V/195BFpWAqsCHf9rYUm5FdSDr4dtM0d+4vU2/IVEVpshLIPKPVBaAOHeetgfzcJSA5dUfyfE2cDRwD4mkqttEBcDtwJfC3Q9YWFJv7ekfrw7jJkFzAamm8holRffhXgDVG4PdG+zsKTfKKq+PSGcA/EU3MG2njwCXAHD/xrofsbCUpMX1cAUiJ+EeBJ+JlXHwlqIV8DwVXkWl4WlOi2qRdvBducDFwDtJtIwHoX4iUDXDRaWmmVVdQxUrsQNHRvZHVA6K9DxsIWlghbVignw7LXASaZRCM9AOCNQ/qqFpYKVVX8nxK8Dk0yjcG6Etr8KTNucdaCSWaoOyuovgUWWVWGdDNseiPRPs7DUwEUVQ6TvYohfgjjWRAp9tKdCvDcycLCXhGrAsprXApOuAU4xjaayFeIHA13fsLDUIGW1vA0G5wF/YhpNaQj4aKDzei8JVe+XgSUYnGtZNbVW4N8jfcdZWKpz/VcAx5tD0ysBN0b6jvSSUHW6uuq9EMIldfCnrIP4KLCF6r1CG5vkCLRU9wNjAjCO6hY840b5j9oAHBro7LewVEdl1Xcs8M3az7mwFuJ84G4IAzC00gfO/uryPMCS10NpMpTeCvEwCAeOwje2P4cxXYHpT1lYqoey2hPoBXaqXUlVboYw9+WeufX8sVowFnY6amSfsXcDbTV66duhfGwgRAtLo/gG6BkDLQuBA2rwcg9AuBRW3R44ftj0sx67+3eB9r+CeDbwmhqcaM4NlK+wsDSKk773Mgjn5/wyPRA+GSh/z8TzOIYD42D4NAh/C+yY40sNQunAQEevhaVRmOj90yD2AWNyeon1wMWw+l9cUdVqxdX2Gao3++bVHT1QPiAQKhaWaji5Y4C+eyAcnNNL3AXbZgf2X2vatT62fUcCc4Hdcro0PC1Qvva3/Rvvw1JO+j+UU1kNA5fA6qMsq9ER6LwLSvsBOV2Cx89Eend1haUanYEXbQfb/xTi7omHfgbCCYHyHaZcD8d5XgtM+hLw0RyGvyrQeYaFpRpM5N6zIPxz4mHXQzgmUL7XhOvtePefD/GyxMNuhfimQNdjXhIqx8m7vA3468TDboTS4ZZVvV4ilj8LXJx42HYoffzF/9DCUuoT4ywIr0844CDwZy/1VbfqobQ6L4FwZeLT32kv/izLwlLqqfvxxJP2Q9UPeVX/Vn0cSPn54jgIp/5mMUrJLgf794d4f8Ihrw50zjHZRpoDS3eC4V7SPfFoNZSnPP+THVdYSqgyK+FgfbD+XDNttEvD/Z6GyklUH2efwiRYur+XhEp8Zu0ZA+HERMMNQ/hIYOZzJtuIpTVjMfCFPE6EFpYSaXkHyX4gG64KlPvMtJG1fQri/yQa7ITqPV8WltI5ItE4T8DQhcbZ6KusaZuhlOr2ltfA3mULSykdlmicz7vBXlF03AosSzNWaaaFpSSqv+JneoKhNgDXmGhRVlkhAqnugLewlMqYmYnm0pcDnevNs0hWfy3RZ1lvj/SMsbCU4lzamWaclrlmWbRV1vHDEG5MMNR4YG8LSymm5ZQEYywJ7PegWRZyflyX6IQ2xcJSApXJ2ceI88yxqKus8ipgaYKRplpYylYzxBKUJiUovR+YZqElOL6VyRaWMlr2ugTPsXsaHvJxXMVeZ81PMIafYSnzWW+HBIMs8iEShV+Lp9jLbEcLSxkNT0gwyE/MseDrKzrXVx9wm8l4C0sZlVIU1kpzbIpVVtbjPNHCUlbjE4yxxhibwuqM67QJFpaynjXHJhjEu9ubw9NZ55qFpTowvMkMmuLklvk4W1iqA+2bzaAZBAtLRfDMkBk0RWFlPs4WlqSGYWFJsrAkycKSZGFJkoUlSRaWJAtLkiwsSbKwJFlYkmRhSZKFJcnCkiQLS5IsLEkWliRZWJJkYUmysCTJwpIkC0uShSVJFpYkWViSLCxJsrAkycKSZGFJkoUlycIyAkkWliRZWJIsLEmysCTJwpJkYUmShSVJFpYkC0uSLCxJsrAkWViSZGFJkoUlycKSJAtLkiwsSRaWJFlYkmRhSbKwJMnCkiQLS5KFJUkWliRZWJIsLOkVC2PMoCm0WVgqgDETzKAZxMzH2cJS1kkYEyz0LazmWElbWBr1Sfhs9jEqu5hjU5zcsh7nZywsZZ2EmxMMMskcm8KUjP/9JgtLGbVsSrBKm2KOTWFyxv9+o4WljIYTFBbTzLHg63B+vDuQ9ZJws4WljCpPJ5jOB0aWt5llkbUdkmAl/pSFpYxmrAWyrrK2h6EDzLLQa6zDEgyy2sJStnMeIUJYlWBCH2mahXZEgjFWWVhKcfZMUVgnRWIwywLODpa8FXhT9pEqKywspbAywRj7QN9bjbKISrPSjNO60sJSCg8kusD8sFEWbXW1aDvghARDPQn7/szCUgLbLQS2JRhoVqT3teZZJGNPIfvtDAB3B0LFwlL2dRFTN0FYkmCodih93ESLsrrqGQMh1fFcAP6WUOmm5/xE45wW6X+deRZB6TTgjWnGqlhYSlpYdyYaaBzEK8yz0VdXD+4G4VOJhvt5YMZPLCwl1LkQeDjRYMdHeo8y00Y2/I/AjokGu+lXazaDVQrVG0i5OeGQ10bud9uZhlxdDRwD8eSEs+tmC0t5uB6IiSbp66Htem8mbbSy6nkDVK4DUh23BwLl5RaWclhlda4GFicc8j3Qf4HJNszKahy0fhPYOfFJEAtLebk88XifjvR7Q2n9r6zGQOVWiDMSDvtLaLOwlKfybcCypAs34rXVz0VUn2UVS9DyFSD1FyX/FJi22cJSjpeFIQKXJh62FSrfjPT/hQnXW1ktb4OBm4DZiYfeAFzz4n9oYSkHq79Omh9Ev6i04lci/eeYb91cBu4AW78L8cQchv98oHP9b1luS3lM5r4jge/ltI77Bgx9JNC9waRH6/j2d0KcB+yTw/CPQOktgY4trrBUo0vDzruAW3N6u7wfWu6PDHSZdK2LKpYivWdC/FFOZQXEM39bWbnCUt6XDHtAywpgYk4vUYFwE2w9J3DAL00891VzGbgaODDHl/luoPPdv+tfusJSjqus7schfDLHlyhBnAXtyyK9Z43svaT0J569I/1fAXpyLqsNwOkvPaekfC8hAvR/A3hfDV5uHcQvwJivBvZdZ/pZj11vN4SzgROB1hq84p8Fur5hYWmUJ/7SnWC4F9izRi85BNwJ8UZo+15g+lMehZe9mpoKLe8DZgFvruEr/0ug68zfv2qXavJGGDgAKj8Eav38wQrEfigtgMoAlFbC0Eq/YXz+d3+lySNP3n4rcBgwCju+hiUw7qDApK0WluroDdL3QeAG6uOz02eALcAmiOuhFJvgCLQD44EdgAm1ucz7vR6B8LZA+dGXVW2+jVTj0joduMokBPwSKgc/vznfy+G3hKrt4p/OqyFcZhJN7xngva+krCwsjZKOT7gNclPbCOHoQOeiV37Ck0bv8vBs4ApPnE1lHZTeHejofXUrdGlUS6t3FoR/A8aYRuE9DLxzZKPHV8Uzm0ZVoGsuxKMgrDWNQp+a7oR4QJaycoWlelpp7QrMhfBO0yiUYeAfoPypQKhkHcwVluplpfUErHkPxItI89h7jb5HoDQz0HlxirJyhaU6XW0NTIHKvwBHmEZDGoJwNYz928DUTWlPbFLdFlffccAXgd1Mo2H8EEpzAh3L8hjcwlKdl9biidB+BvAxYFcTqVv3Q+nTsN8dI/v65/TRgdQQxbW6HbZ8COLfAX9oInXjPih9NtDxX7V4MQtLDVZc81pgn5lQml3dKpntTaXmHoPwHxCuf7U3gFpYasLyWroTVI6DytEQDiG/rZgFDwHzgVth9fzA8cOj8UdYWCrQymvyDKgcBuFAqpvP7UV9bKHSaDZBWAVxGXA3DM8PdD9SD39YqN8JuGg7GDsZSlMgvhHCeGAcxAnAjpZt3ASlLVT3dFoPlSdHNqdbEeh+0vfc849PZ+/qJnWl3aEyYWQejXc1xjDEjRA2QNwMpc0Qfg5x5cvdm6ppC2vkc4lOCDOBQ4DpwBsspVftKWAFsAhYAG0/fPEjv6VGNGqFEOnZfmTv6D8DDh1ZNSkfQ8ADwB0wfGO9LO+lui6skSeoHAJ8CHg/1W1aVVsV4B7gBtjuG6nvRJYavrAisQRLR34nFmcYe93YBOGrMHhpYH93S1BzF1b1Q8/SbAgXkNtjrZXAZgjXwuDnLC41ZWFFBg6G4asg7GvMDWML8Dlo+0xg2qBxqPCFFVm2MwxdBPEM3L6mUS0FTg903mcUKmxhRfqOBf4N2NloG14EroS281xtqVCFFVnQCjv8A4Tz8N6povVWL8QTAjPWmIUavrAiA3tBZR7QbZyFtQHChwPlbxqFRlOmz5giA9OhstCyKrwdIP5HpO9vjEINucKK9B4C4bbqZFYTTZkroeNjeW7SJiUtrOqH6+EWiGONsCl9FVafMlpbjMhLwldyGXgY8DXLqqn9BexzlTGorgsr0vdHULkNaDe6pl+c/2Wk72JzUF1eEo48emkho/8ggAj8AtgC4WmoPANhaxMcqkB1R4txUBkHYTegrQ7+sDmBzqt9K6luCiuyYgI82wNMHoVyehCYD/H+6gZ1YVWgY0uzH7jqHmJv2hNapgBlqlv0HETt9zgfhnBkoLzAt5PqpLD6bgZOqmFJLYR4A1Ruc/fMVxLc6nbY/HYIsyD+aXU1VhOPQ2tnYN91HgWNamFF+k4BvlyDv2VL9XVKXwx0POyhyVpey8fD4EnA+cDeNXjJu6D8rlSPJJdecWFFet8CoQfYLse/4Vng8zD8eVdTeRTXglbY8QTgkvyLK/6fQNdlpq6aF9bI7qA/AGbm+PI/gDAn0LHSQ5H7iqsNtp0DXJzjLSnPQsv0wH4/NXHVuLB6Z0G4IafX3QDh1EB5noeg1sXVN2nkpt+8dn79dqDzaJNWzQorsngitK8A9sjhLeOv/0e9tFa3w5bLIZ5JPrtrvC/Q+S2TVmq/48bRtovyKStuhQlvs6xG+yw1aWugfDbwYapP1EntipFnAkr5Flbk/l0gnJrDa10D5RMDk7Yae70UV+d1EN4HPJN46L2g9WQTVg1WWG3nUH0ybkpfCHSe7lfe9Vha5TsgHA3hucQXnhdUb26Vciqs6mdXzEn8GjdD+VyjruvSWgCVExJfHk6GfY4zXeW4wmo/laRPYA4/gOE/d2XVCKXVdTvEjyeeXn9tssqxsOLshGOvg6FZge5txtwwpfVF4KaEl4UzIkt9zJvSF1ZkoCvhMwSHIZwU6H7ciBvN1tOBhN/iDs8yU+WwwqokXF2Fq/z1fqOust66EcJfUP0Regof9MN3JS2sSCwBJyaa8mth6EKjbeTSKt8LzE003GthyiGmqoQrrIEOYLc0Q1bOC3RvMNpG13oesDHRZeE7zFMJC6tyWKLxHoI1NxtrEVZZ+66DkGgn0XCoiSphYYVEOzKET/sklSIZ+idgc4KBuiN9O5qnMhdWdb8kDk4w1uMwdKORFmmV1f0kkGLHjhYoHWyiSrDCmrAPMDHBWDd6z1UhXZdmmEqXUSpBYbVMSTQhXV0VcpXV+QCwPMFQU0xTCQoryURaHpix1DiLKibYaDFaWEpRWEkm0veNstDrrB8kGGNKddttKVNhhRQPJvCu9kIb/jHZvy0cB0t2N0tlvSRM8HXzmIVGWeD1VfXLlB8lGMlbG5S5sDJ+QxjWBqY/ZZSFr62fZB+jZYI5KmthZdxdNPqIrqaQ4jhXLCyNdmGx2hiborBWJZhuE81RWQsr61OdnzbGZtCS4LK/MtYclbWwsp55NxljM6gkOM7B2xo02oVV2myMzWCbJyYVobDw94NNIXqcVYjCkiQLS5IsLEkWliRZWJJkYUmysCTJwpJkYUmShSVJFpYkC0uSLCxJsrAkWViSZGFJkoUlycKSJAtLkiwsSRaWJFlYkmRhSbKwJMnCkiQLS5KFJUkWliRZWJIsLEmysCTJwpJkYUmShSVJFpYkC0uSLCxJFpYkWViSZGFJsrAkycKSJAtLkoUlSRaWJFlYkiwsSbKwJMnCkmRhSZKFJUkWliQLS5IsLEmysCRZWJJkYUlSToU1xhibQfA4qwiFVRlvjM1gzAQzUAEKK1hYzTFVEhRWjOaorIX1bMYxdjbGZjCc4DiXnjNHZS2szRnHmGSMzSBMzj5GZaM5apQLK0wxxqYorATHubTJHJW1sDKe9eLukWVeFhZefHOCy0oLS5kLa332YbYdbJQFrip6xgAHJhhpvWkqY2HFhxKMM9Moi6xlfyDrt8FbYMZas1TGwgorE4xzhFEWWoLjG1cGgrc1KPMlYYrCmhZZsp9xFtZx2YdIcmKUhTWcaCKVTjbO4on0/REwLcFQFpZSFNamNWT+phCAk0c+nFWxfCjRVOs1SmWeRYGZQ8DCBGPtAa2usgq1uup5TaLCGobKQhNVghUWQFyQaIp/MjKvxViLovVcsn87CNAT6PSWBqUqrNL8ROPtDft8wFiLsLp6cDeIp6cZLSwwUSUsrI4BYF2iIS+P9OxgtI1u6HJgYqLCuss8laywAqECfC3RuXl3aP2U0Tby6qr/j4FZiYZ7DFbeY6pKuMICKN2QcMrPifR793tDltXiiRD/HQiJhrwxcPywySppYQU6eiE+mGjcFoi3RHr2MOJG0341SbcMarnRTJXDCgsgJFxlsRu0zojx+IAAAAPRSURBVPXerEZaXfWeCXww4Yi9gf0eNFnlVFhbv0yS3Rt+NWEPh5brItGn89R/Wb0XwucTD/uPJqvcCivw1o3AVYlf4wPQ/zmjruuyOgRKX69eyiezCtbcarrKcYUFMPh5sm+b/GLnRPqucqVVj2XVdySE/4I4Nu3I4TI/bFfuhRU44JcQrs3htU6H/q9FVrcbe92U1Z8D3wFSP8LrYRjyw3YlF377RF48EdpXADl8yxd7IZ4QmLHG+EerqFa3w5bLIZ5JutsXft2xgc7bTFo1uCR8/rOseH5OHdkFpZ5I/wnGPyqrqkmw5T6IZ+VUVt+2rFTTFdavTe755Lr9cfgBhDmBDvdKyr2olrfBtnOAi9N/XvUrz0LL9MB+PzVx1WyF9YLKHLI/aPWl3kaHQ6Uv0veZSO+uHo48impBa6T/ZBj8vxAvy7GsgPgpy0qjtsIaWWV9FPjXGvwtW4AvA1cGOn/moclaVAPjoPIB4Hxg7xq85F1QftfI71Kl0SmskdK6CfhAzd5rsBDiDVC5LdD9pIfp5Qa3uh02vx04GfhT0uxl9XI8DqVyoOMXHgXVQWGtmADP9gCTa/4ehKXAfAj3Q1wJw6sC3c9YTvNaYOobYWgKhDLVzxoPArav8Z8yDBwR6Lzbt5PqorCqb5D+yRDvBXYd9fcqrK1eQoYNEDeOvGmawcSRVdN4YDegDu5pi6cHuq7xraS6KqxqU/R2Q5hP+hsN1ZguCXRebAyqy8KqltbAYVD5Tn2c3TWKK6trA12nmYNq6RX/ti/QMR84EcJzxte0roM1c4xBdb/C+rXLw0Mg3Aa4f3tzTZkroeNjPnZeDVVYI5eH06Hy38DrjLL414DA+YFO97hSYxZWdRb37QnMA/7IOAtrPYQPB8r/aRQaTZn3p6relb7+bRA/O3IWVrHOaUtguNuyUiFWWC9abR0L/Buws9EW4hLwSmg7LzBt0DhUuMKqzvJlO8PQRRDPSLGC06hYCpwe6LzPKFTownqhuPr/GCpXQ9jXmBvGFuBz0PYZV1VqqsKqltaCVthpNsQLSPqsOyW2ubot9uDnAvuvNQ41ZWG9UFyxBEvfA/EiiDOMvW5sgvBVGLzUopKF9f8XV4CBQyHOBt6Pv0kcDRXgHghzYex/BKZuMhJZWL+3vHq2h5ZjgeOAQ4CdPBy5GQJ+DNwBwzcFuh8xEllYr7q85rXA3mUoHTZSXtOBN9TL39eAngJWAIsgzof2hYFpm41FFlZuJbZoOxg7GUpTIL4RwgSIz+8FtaOHjmcgboLSZmA9VJ6E0koYWuEurSqq/wdZHtOwVh4ftgAAAABJRU5ErkJggg==;" parent="qivoIHH8CJ9T5ArKO1uE-17" vertex="1">
          <mxGeometry x="10" y="24" width="18.99" height="30" as="geometry" />
        </mxCell>
        <mxCell id="qivoIHH8CJ9T5ArKO1uE-18" value="" style="group;rounded=1;" parent="1" vertex="1" connectable="0">
          <mxGeometry x="360" y="290" width="180" height="121" as="geometry" />
        </mxCell>
        <mxCell id="qivoIHH8CJ9T5ArKO1uE-16" value="Notification Publisher" style="rounded=1;whiteSpace=wrap;html=1;dashed=1;fillColor=#fff2cc;strokeColor=#d6b656;" parent="qivoIHH8CJ9T5ArKO1uE-18" vertex="1">
          <mxGeometry x="20" width="160" height="90" as="geometry" />
        </mxCell>
        <mxCell id="qivoIHH8CJ9T5ArKO1uE-15" value="Notification Publisher" style="rounded=1;whiteSpace=wrap;html=1;dashed=1;fillColor=#fff2cc;strokeColor=#d6b656;" parent="qivoIHH8CJ9T5ArKO1uE-18" vertex="1">
          <mxGeometry x="10" y="10" width="160" height="90" as="geometry" />
        </mxCell>
        <mxCell id="qivoIHH8CJ9T5ArKO1uE-7" value="Notification Publisher" style="rounded=1;whiteSpace=wrap;html=1;fillColor=#fff2cc;strokeColor=#d6b656;align=center;" parent="qivoIHH8CJ9T5ArKO1uE-18" vertex="1">
          <mxGeometry y="20" width="160" height="90" as="geometry" />
        </mxCell>
        <mxCell id="VMr1wWkczlRjw2ziYmWZ-5" value="" style="shape=image;verticalLabelPosition=bottom;labelBackgroundColor=default;verticalAlign=top;aspect=fixed;imageAspect=0;image=data:image/png,iVBORw0KGgoAAAANSUhEUgAAASwAAAHaCAYAAAC6tnRxAAABhWlDQ1BJQ0MgcHJvZmlsZQAAKJF9kTtIw1AUhv+miq+KgxmKOGSoThZERRy1CkWoEGqFVh1MbvqCJg1Jiouj4Fpw8LFYdXBx1tXBVRAEHyCuLk6KLlLiuWmhRYwHLvfjv+f/ufdcQKiVmG53jAO64VjJeExKZ1alrlcE0AcRPQgrzDbnZDkB3/q6p26quyjP8u/7s/q1rM2AgEQ8y0zLId4gnt50TM77xCIrKBrxOfGYRRckfuS62uA3znmPBZ4pWqnkPLFILOXbWG1jVrB04iniiKYblC+kG6xx3uKslyqseU/+wlDWWFnmOq1hxLGIJciQoKKCIkpwEKXdIMVGks5jPv4hzy+TSyVXEYwcCyhDh+L5wf/g92zt3OREIykUAzpfXPdjBOjaBepV1/0+dt36CRB8Bq6Mlr9cA2Y+Sa+2tMgRMLANXFy3NHUPuNwBwk+mYimeFKQl5HLA+xl9UwYYvAV61xpza57j9AFI0awSN8DBITCap+x1n3d3t8/t357m/H4AFB1ygWgb614AAAAGYktHRAD/AP8A/6C9p5MAAAAJcEhZcwAADdcAAA3XAUIom3gAAAAHdElNRQfnAQsUCTDBwK9iAAAgAElEQVR42u3de5hdVWH38e86M5kJ5MJNCmhVEHLRBObMZAoiRQgXFQWLtdyUxFaFUsJFpAVebbnYKkgtWiwg1lYgXDRUKxS1iCZgIAaZzCUkr7khSgskgpArkMnMWe8fZxDlVQT22mfO2ef7eR6fxwce1pnnt9f57bXP2WftQJ2JLB8PW6dCmAJxKoTJwJ7AuJH/7QBMBFpobhuBzcAWCBuBJyCugLgSWlbBtp8Euh9HKpAw+gXVsz2U3gbhj4GDgLcDbR6aJB4H7oXwfajcGej6uZHIwnrlq6g2GHw38CHg3RZUzZLvhTAXWm8J7LvOPGRhvWRR9b4FwunAicAuxj9qhoA7ga9A+fZAqBiJLKwXiqoDSudC/AB+9lRvHoJwOTz974GZQ8ahpi2sSF8ZwqUQ32XUde+nEC+BzrmBEI1DTVNYkYFxMPx3EM4FWo25odwLlTmBGUuNQoUvrEjviRCuAPYw3oY1BPFKaL8oMG2zcahwhVW9f2rwGuBkYy2MVRCPD3QNGIXqQSnRquotMPgjy6pwJkNpcaTvbKNQIVZYkd5ZEK4FtjPOQrsJxn8kMGmrUaghC2vkzHtFqpWa6t7dMHxsoHuDUahhCisSA/RdCuF8I2w28UHgXYGux8xCdV9Y1bIa+FeIHzG+prUGwqGB8qNGoVp6FZdy/ZdbVk1vH4h3RpbtbBSq28KK9J0H/LWxCZgG275TvUlYqrNLwpFvA69n9LakGQZ+BqwCHoa4CcIG4BkIzxb/UFVaoDQR4gRgHMQ9RvYKmwJsP4p/2O1Qfp8/oFbdFFZkyX5QWkxtb13YBtwHcT6E+TC+x6/Uf9uxiQEGJgEzoTITwhHUfCeMeGGg6+89Ghr1whq5g71n5ExeCz0Q5wK3BLqe8BC90gLrGQOlo6A0G+LRQHttVr/x8EDXPR4BjXJh9d8AcVYN/pb7oHRhoGO+hyVVeQ38AVROBz5GdWvpPK2DbeXA/mtNXqNSWCM/ZL4l57/hXiidHejo9XDkVVz37wJtfwfMId/dM24LdB5r4qp5YUUWT4T2FeS368ITwHlQvt79l2pVXH1l4GrgwByn1DGB8h2mrTy8xG0N7Z/KsazuhlgOdF5nWdXy7NTZD+WDIFxA9VvXPGrxKm91UE0La+RMPCeH16sAF8PqI/xpx2iVVoiB8meh9A4gjwdRvAGGLzBp1eySMNL/3Ry2NR6CcGqg/FVjr5dLxIG9oHInMCnxtHoOht7kcxGV+worsmRGDmW1BSrHWFb1drbqeBhaDwb6ElfhWGj5mAmrBpeE4ROJX2MbxOMCM/7buOuxtPZdB4NHAj9JPPScSM9rTFi5FVZkyZshpPxaOgKnBLq+a9T1XFoH/HLkM61HEg47DlrOMF3luMIqzSHpZnzx4kDn9cbcEJeH/wul9wEpf/50WmSBT01S+sKqPj6eExKOfTes+bQRN1Rp9QLnJhxyN9jxHSarHFZY294DpPrM4QnYdlLg+GEjbrTS6rwKwjcSrrJnm6pyKKykE+tv/E1ZIxs8A1ifaIr9SaRvRzNVssIauTP5qERn1IVQvsFoG3mVtf9aiBclmg9jgfeYqhKusOJBpNmGJFZ/yOzPbRrfmqsgrEhUWoeZpxIWViXVhPpOoNxnrEVYZR0/DPGyRKMdbqJKWFhhZqLxLjXSIll9I7AmwUBvjPTtaZ7KXFjVHUXpSjDWA4HO+4y0aKssrk003KEmqgQrrME3k2RTt+AH7YUUbybJVjRhulkqQWGFFHu1b4OhrxlnEVdZXY9B/H6C4ptimkpQWJUEEyn8MND9pHEW1rcSjGFhqV5WWHGBURZ6mqR4MMheIz//kjIV1usTjGNhFfqysLwK4v9kHKYVBl9rmspYWHFCxjGGoK3HKAtfW/dnH6Nlgjkqa2FNzDjGw4Fpg0ZZeCuzDzFsYSnzJeGE0Z/Iqn8xwXEOFpayFhYZH8kUf2aMTTFVHk5QehPNUVkLa0zGs+ZGY2wGwymO8xhzVNbCymqzMTaD1k1moAIUVtxijE2xwvLEpCIUVqlijM1gm8dZhbgklCQLS5IsLEkWliRZWJJkYUmysCTJwpJkYUmShSVJFpYkC0uSLCxJsrAkWViSZGFJkoUlycKSJAtLkiwsSRaWJFlYkmRhSbKwJMnCkiQLS5KFJUkWliRZWJIsLEmysCTJwpJkYUmShSVJFpYkC0uSLCxJFpYkWViSZGFJsrAkycKSJAtLkoUlSRaWJFlYkiwsSbKwJMnCkmRhSZKFJUkWliQLS5IsLEmysCRZWJJkYUlSPoUVxxpjM9h+ezNQEVZY442xGWybYAaqh8KqZBxjojE2xVRJcGKKFXNU1sLaknGM3Y2xGcQ9Eky3zeaorIWVcRLFKcbYDMLU7GNUNpmjshZWxkkUpkRiMMrCr7ASnJhKG81RGQsrZD3rjYPevY2y8Cus/RKUnpeEylpY8RcJhplplAVeW7F0J4jl7CMN/8I0lfWScFWCcSysQqscCrRkXKGtDXRvMEtlXWGtTDDOEZGeMcZZ2DXWuxKMscoclaCwWlIU1q7Q+k7jLOLl4PI24P0JhlphmkpQWMOJJlKcbZxFtPUYYJfs44SVZqnMhRXoegz4WYIJeUzkx95EWjjh1ETj3GeWSrDCAmBBghXWWBhzjpEW6XKwvxM4MsFQm+CpJSaqRIUVFyQab06k5zXGWpjKuhBIcVPwPYGZQ+apRIVVmp9ovHHQ8gljLcLqqu9twJ8kuhxcYKJKVliB8qNAX6Ixz4ws2c9oG7msFrQCVydaXQHcYapKuMICCHMTjdkKpasj0d1MG9ZOZwIdiQa7P1D2HiwlL6ybgFSfMxwEA14aNuTqaum+ED+dcMi5pqrkhRXo+AXwvYRT/5JI7+FG3EhltXw8VOYB2yUachsMf91klcMKCyB8Je3YpRsjA3sZcyOU1bwWGLwJ4tSEw/5noPtJ01VOhdXxLWBZwrfB7lC5K/LgbkZdz2UVA0z6EvDetCNXLjdd5VZYgRAhfDbxa+wN274TuX8X465XfZcCH0086LcDM7xZVHmusABW3QKsTvsyoQvaFkZ63mDk9XUZGOn9EoTzcxj+UhNW7oUVOH4Y+HQOr/VmaLkv0lc29nooqxUTYNI3IfxlDsN/N9DpbwdVixUWQPkG4J4cXu8PgcWRvrONfjTLqvct8Oxikn9mBcBWKPmbUtWusKqfZVXOIt19Wb+uHfhCpG+euzvUuqgWtEb6z4HSEuAt+bxK+Gygw61kVMsVFgRmLAW+mONrHwdjVkT6zq5+pa6cV1XdsOMiiFdUd9bIxUPwtJ9dKTfhpSf58vEw2APk/ezBn0C8DDbc7K/68yiq8Lcjl395Po5tGOLhga57TF2jUljVCb9kPygtJt3dzy/lpxCvhsrNge7HPTyvtqRWt8Omo4FTINRo6+p4YaDr701fo1pY1TdA/6kQr63h3zUMfA/CbRDnBzpXe6h+3zFauhMMHwIcVb3cZqcavvz3ofzOQKh4JDTqhVV9Q/TdBHxglN6O/wNhMbAKwgqID1cfytm6CUrroRKb5HCNh8HxUBoPvA6YPPJE5jKEDjI/iutVeRRaZwT2XefbSXVUWMvbYPC/gHcYm0ZsAA4NdPYbheqqsKqltWICPHN39c51NblnofTOQMdCo1CtvKJN9gJTN8GYdwNrjK6pDQEnWVaq68Kqlta+62D47cCA8TWlrRBPCnTeZhSq60vC37w87NsR4u0QDjbGprEeSu91ZaWGWWG90HSd6+G5dwK3G2NTeBRa3m5ZqSFXWC+stGKA/rOAfwTGGGkhLYDhD3ozrxp2hfVC44UY6PxniEcAjxlpoQwDl8DqIy0rFWKF9ZurrYE/gMq1wLFG2/AegvgRfxuowhbWC8XVfzTEKwEfQNF4tkG4BsInAh1bjEOFL6xqaS3aDsZ+AsK51OaH08ruO1A5OzDD++zUXIX1QnH17gphDnA2sKOR16Xvj+y28COjUFMX1gvFtWxn2HYWcBrgY79G3yDwLeBSfwsoC+t3Fte8FthnJpRmQ/xTYJyHoaaHfAnEuVC6ZeRp35KF9fLKq2cHaDka4mEQDgP29JAktxH4IYT5wLcD5VVGIgsrSYEN7AWVQyBMH9nnaQrVbxpbPVQvyzpgBbCyum9YWARPLXHbaVlYNSux5W0w+FqoTKxuXBfGQ9zBQxeerW5iWNkEcT3wZKB7g7lIkiRJkiRJkiRJkiRJNReMQEVUvX/vub2hZSrVB86+BpgIYSJUxkFwBxHCBohbgC3V/195BFpWAqsCHf9rYUm5FdSDr4dtM0d+4vU2/IVEVpshLIPKPVBaAOHeetgfzcJSA5dUfyfE2cDRwD4mkqttEBcDtwJfC3Q9YWFJv7ekfrw7jJkFzAamm8holRffhXgDVG4PdG+zsKTfKKq+PSGcA/EU3MG2njwCXAHD/xrofsbCUpMX1cAUiJ+EeBJ+JlXHwlqIV8DwVXkWl4WlOi2qRdvBducDFwDtJtIwHoX4iUDXDRaWmmVVdQxUrsQNHRvZHVA6K9DxsIWlghbVignw7LXASaZRCM9AOCNQ/qqFpYKVVX8nxK8Dk0yjcG6Etr8KTNucdaCSWaoOyuovgUWWVWGdDNseiPRPs7DUwEUVQ6TvYohfgjjWRAp9tKdCvDcycLCXhGrAsprXApOuAU4xjaayFeIHA13fsLDUIGW1vA0G5wF/YhpNaQj4aKDzei8JVe+XgSUYnGtZNbVW4N8jfcdZWKpz/VcAx5tD0ysBN0b6jvSSUHW6uuq9EMIldfCnrIP4KLCF6r1CG5vkCLRU9wNjAjCO6hY840b5j9oAHBro7LewVEdl1Xcs8M3az7mwFuJ84G4IAzC00gfO/uryPMCS10NpMpTeCvEwCAeOwje2P4cxXYHpT1lYqoey2hPoBXaqXUlVboYw9+WeufX8sVowFnY6amSfsXcDbTV66duhfGwgRAtLo/gG6BkDLQuBA2rwcg9AuBRW3R44ftj0sx67+3eB9r+CeDbwmhqcaM4NlK+wsDSKk773Mgjn5/wyPRA+GSh/z8TzOIYD42D4NAh/C+yY40sNQunAQEevhaVRmOj90yD2AWNyeon1wMWw+l9cUdVqxdX2Gao3++bVHT1QPiAQKhaWaji5Y4C+eyAcnNNL3AXbZgf2X2vatT62fUcCc4Hdcro0PC1Qvva3/Rvvw1JO+j+UU1kNA5fA6qMsq9ER6LwLSvsBOV2Cx89Eend1haUanYEXbQfb/xTi7omHfgbCCYHyHaZcD8d5XgtM+hLw0RyGvyrQeYaFpRpM5N6zIPxz4mHXQzgmUL7XhOvtePefD/GyxMNuhfimQNdjXhIqx8m7vA3468TDboTS4ZZVvV4ilj8LXJx42HYoffzF/9DCUuoT4ywIr0844CDwZy/1VbfqobQ6L4FwZeLT32kv/izLwlLqqfvxxJP2Q9UPeVX/Vn0cSPn54jgIp/5mMUrJLgf794d4f8Ihrw50zjHZRpoDS3eC4V7SPfFoNZSnPP+THVdYSqgyK+FgfbD+XDNttEvD/Z6GyklUH2efwiRYur+XhEp8Zu0ZA+HERMMNQ/hIYOZzJtuIpTVjMfCFPE6EFpYSaXkHyX4gG64KlPvMtJG1fQri/yQa7ITqPV8WltI5ItE4T8DQhcbZ6KusaZuhlOr2ltfA3mULSykdlmicz7vBXlF03AosSzNWaaaFpSSqv+JneoKhNgDXmGhRVlkhAqnugLewlMqYmYnm0pcDnevNs0hWfy3RZ1lvj/SMsbCU4lzamWaclrlmWbRV1vHDEG5MMNR4YG8LSymm5ZQEYywJ7PegWRZyflyX6IQ2xcJSApXJ2ceI88yxqKus8ipgaYKRplpYylYzxBKUJiUovR+YZqElOL6VyRaWMlr2ugTPsXsaHvJxXMVeZ81PMIafYSnzWW+HBIMs8iEShV+Lp9jLbEcLSxkNT0gwyE/MseDrKzrXVx9wm8l4C0sZlVIU1kpzbIpVVtbjPNHCUlbjE4yxxhibwuqM67QJFpaynjXHJhjEu9ubw9NZ55qFpTowvMkMmuLklvk4W1iqA+2bzaAZBAtLRfDMkBk0RWFlPs4WlqSGYWFJsrAkycKSZGFJkoUlSRaWJAtLkiwsSbKwJFlYkmRhSZKFJcnCkiQLS5IsLEkWliRZWJJkYUmysCTJwpIkC0uShSVJFpYkWViSLCxJsrAkycKSZGFJkoUlycIyAkkWliRZWJIsLEmysCTJwpJkYUmShSVJFpYkC0uSLCxJsrAkWViSZGFJkoUlycKSJAtLkiwsSRaWJFlYkmRhSbKwJMnCkiQLS5KFJUkWliRZWJIsLOkVC2PMoCm0WVgqgDETzKAZxMzH2cJS1kkYEyz0LazmWElbWBr1Sfhs9jEqu5hjU5zcsh7nZywsZZ2EmxMMMskcm8KUjP/9JgtLGbVsSrBKm2KOTWFyxv9+o4WljIYTFBbTzLHg63B+vDuQ9ZJws4WljCpPJ5jOB0aWt5llkbUdkmAl/pSFpYxmrAWyrrK2h6EDzLLQa6zDEgyy2sJStnMeIUJYlWBCH2mahXZEgjFWWVhKcfZMUVgnRWIwywLODpa8FXhT9pEqKywspbAywRj7QN9bjbKISrPSjNO60sJSCg8kusD8sFEWbXW1aDvghARDPQn7/szCUgLbLQS2JRhoVqT3teZZJGNPIfvtDAB3B0LFwlL2dRFTN0FYkmCodih93ESLsrrqGQMh1fFcAP6WUOmm5/xE45wW6X+deRZB6TTgjWnGqlhYSlpYdyYaaBzEK8yz0VdXD+4G4VOJhvt5YMZPLCwl1LkQeDjRYMdHeo8y00Y2/I/AjokGu+lXazaDVQrVG0i5OeGQ10bud9uZhlxdDRwD8eSEs+tmC0t5uB6IiSbp66Htem8mbbSy6nkDVK4DUh23BwLl5RaWclhlda4GFicc8j3Qf4HJNszKahy0fhPYOfFJEAtLebk88XifjvR7Q2n9r6zGQOVWiDMSDvtLaLOwlKfybcCypAs34rXVz0VUn2UVS9DyFSD1FyX/FJi22cJSjpeFIQKXJh62FSrfjPT/hQnXW1ktb4OBm4DZiYfeAFzz4n9oYSkHq79Omh9Ev6i04lci/eeYb91cBu4AW78L8cQchv98oHP9b1luS3lM5r4jge/ltI77Bgx9JNC9waRH6/j2d0KcB+yTw/CPQOktgY4trrBUo0vDzruAW3N6u7wfWu6PDHSZdK2LKpYivWdC/FFOZQXEM39bWbnCUt6XDHtAywpgYk4vUYFwE2w9J3DAL00891VzGbgaODDHl/luoPPdv+tfusJSjqus7schfDLHlyhBnAXtyyK9Z43svaT0J569I/1fAXpyLqsNwOkvPaekfC8hAvR/A3hfDV5uHcQvwJivBvZdZ/pZj11vN4SzgROB1hq84p8Fur5hYWmUJ/7SnWC4F9izRi85BNwJ8UZo+15g+lMehZe9mpoKLe8DZgFvruEr/0ug68zfv2qXavJGGDgAKj8Eav38wQrEfigtgMoAlFbC0Eq/YXz+d3+lySNP3n4rcBgwCju+hiUw7qDApK0WluroDdL3QeAG6uOz02eALcAmiOuhFJvgCLQD44EdgAm1ucz7vR6B8LZA+dGXVW2+jVTj0joduMokBPwSKgc/vznfy+G3hKrt4p/OqyFcZhJN7xngva+krCwsjZKOT7gNclPbCOHoQOeiV37Ck0bv8vBs4ApPnE1lHZTeHejofXUrdGlUS6t3FoR/A8aYRuE9DLxzZKPHV8Uzm0ZVoGsuxKMgrDWNQp+a7oR4QJaycoWlelpp7QrMhfBO0yiUYeAfoPypQKhkHcwVluplpfUErHkPxItI89h7jb5HoDQz0HlxirJyhaU6XW0NTIHKvwBHmEZDGoJwNYz928DUTWlPbFLdFlffccAXgd1Mo2H8EEpzAh3L8hjcwlKdl9biidB+BvAxYFcTqVv3Q+nTsN8dI/v65/TRgdQQxbW6HbZ8COLfAX9oInXjPih9NtDxX7V4MQtLDVZc81pgn5lQml3dKpntTaXmHoPwHxCuf7U3gFpYasLyWroTVI6DytEQDiG/rZgFDwHzgVth9fzA8cOj8UdYWCrQymvyDKgcBuFAqpvP7UV9bKHSaDZBWAVxGXA3DM8PdD9SD39YqN8JuGg7GDsZSlMgvhHCeGAcxAnAjpZt3ASlLVT3dFoPlSdHNqdbEeh+0vfc849PZ+/qJnWl3aEyYWQejXc1xjDEjRA2QNwMpc0Qfg5x5cvdm6ppC2vkc4lOCDOBQ4DpwBsspVftKWAFsAhYAG0/fPEjv6VGNGqFEOnZfmTv6D8DDh1ZNSkfQ8ADwB0wfGO9LO+lui6skSeoHAJ8CHg/1W1aVVsV4B7gBtjuG6nvRJYavrAisQRLR34nFmcYe93YBOGrMHhpYH93S1BzF1b1Q8/SbAgXkNtjrZXAZgjXwuDnLC41ZWFFBg6G4asg7GvMDWML8Dlo+0xg2qBxqPCFFVm2MwxdBPEM3L6mUS0FTg903mcUKmxhRfqOBf4N2NloG14EroS281xtqVCFFVnQCjv8A4Tz8N6povVWL8QTAjPWmIUavrAiA3tBZR7QbZyFtQHChwPlbxqFRlOmz5giA9OhstCyKrwdIP5HpO9vjEINucKK9B4C4bbqZFYTTZkroeNjeW7SJiUtrOqH6+EWiGONsCl9FVafMlpbjMhLwldyGXgY8DXLqqn9BexzlTGorgsr0vdHULkNaDe6pl+c/2Wk72JzUF1eEo48emkho/8ggAj8AtgC4WmoPANhaxMcqkB1R4txUBkHYTegrQ7+sDmBzqt9K6luCiuyYgI82wNMHoVyehCYD/H+6gZ1YVWgY0uzH7jqHmJv2hNapgBlqlv0HETt9zgfhnBkoLzAt5PqpLD6bgZOqmFJLYR4A1Ruc/fMVxLc6nbY/HYIsyD+aXU1VhOPQ2tnYN91HgWNamFF+k4BvlyDv2VL9XVKXwx0POyhyVpey8fD4EnA+cDeNXjJu6D8rlSPJJdecWFFet8CoQfYLse/4Vng8zD8eVdTeRTXglbY8QTgkvyLK/6fQNdlpq6aF9bI7qA/AGbm+PI/gDAn0LHSQ5H7iqsNtp0DXJzjLSnPQsv0wH4/NXHVuLB6Z0G4IafX3QDh1EB5noeg1sXVN2nkpt+8dn79dqDzaJNWzQorsngitK8A9sjhLeOv/0e9tFa3w5bLIZ5JPrtrvC/Q+S2TVmq/48bRtovyKStuhQlvs6xG+yw1aWugfDbwYapP1EntipFnAkr5Flbk/l0gnJrDa10D5RMDk7Yae70UV+d1EN4HPJN46L2g9WQTVg1WWG3nUH0ybkpfCHSe7lfe9Vha5TsgHA3hucQXnhdUb26Vciqs6mdXzEn8GjdD+VyjruvSWgCVExJfHk6GfY4zXeW4wmo/laRPYA4/gOE/d2XVCKXVdTvEjyeeXn9tssqxsOLshGOvg6FZge5txtwwpfVF4KaEl4UzIkt9zJvSF1ZkoCvhMwSHIZwU6H7ciBvN1tOBhN/iDs8yU+WwwqokXF2Fq/z1fqOust66EcJfUP0Regof9MN3JS2sSCwBJyaa8mth6EKjbeTSKt8LzE003GthyiGmqoQrrIEOYLc0Q1bOC3RvMNpG13oesDHRZeE7zFMJC6tyWKLxHoI1NxtrEVZZ+66DkGgn0XCoiSphYYVEOzKET/sklSIZ+idgc4KBuiN9O5qnMhdWdb8kDk4w1uMwdKORFmmV1f0kkGLHjhYoHWyiSrDCmrAPMDHBWDd6z1UhXZdmmEqXUSpBYbVMSTQhXV0VcpXV+QCwPMFQU0xTCQoryURaHpix1DiLKibYaDFaWEpRWEkm0veNstDrrB8kGGNKddttKVNhhRQPJvCu9kIb/jHZvy0cB0t2N0tlvSRM8HXzmIVGWeD1VfXLlB8lGMlbG5S5sDJ+QxjWBqY/ZZSFr62fZB+jZYI5KmthZdxdNPqIrqaQ4jhXLCyNdmGx2hiborBWJZhuE81RWQsr61OdnzbGZtCS4LK/MtYclbWwsp55NxljM6gkOM7B2xo02oVV2myMzWCbJyYVobDw94NNIXqcVYjCkiQLS5IsLEkWliRZWJJkYUmysCTJwpJkYUmShSVJFpYkC0uSLCxJsrAkWViSZGFJkoUlycKSJAtLkiwsSRaWJFlYkmRhSbKwJMnCkiQLS5KFJUkWliRZWJIsLEmysCTJwpJkYUmShSVJFpYkC0uSLCxJFpYkWViSZGFJsrAkycKSJAtLkoUlSRaWJFlYkiwsSbKwJMnCkmRhSZKFJUkWliQLS5IsLEmysCRZWJJkYUlSToU1xhibQfA4qwiFVRlvjM1gzAQzUAEKK1hYzTFVEhRWjOaorIX1bMYxdjbGZjCc4DiXnjNHZS2szRnHmGSMzSBMzj5GZaM5apQLK0wxxqYorATHubTJHJW1sDKe9eLukWVeFhZefHOCy0oLS5kLa332YbYdbJQFrip6xgAHJhhpvWkqY2HFhxKMM9Moi6xlfyDrt8FbYMZas1TGwgorE4xzhFEWWoLjG1cGgrc1KPMlYYrCmhZZsp9xFtZx2YdIcmKUhTWcaCKVTjbO4on0/REwLcFQFpZSFNamNWT+phCAk0c+nFWxfCjRVOs1SmWeRYGZQ8DCBGPtAa2usgq1uup5TaLCGobKQhNVghUWQFyQaIp/MjKvxViLovVcsn87CNAT6PSWBqUqrNL8ROPtDft8wFiLsLp6cDeIp6cZLSwwUSUsrI4BYF2iIS+P9OxgtI1u6HJgYqLCuss8laywAqECfC3RuXl3aP2U0Tby6qr/j4FZiYZ7DFbeY6pKuMICKN2QcMrPifR793tDltXiiRD/HQiJhrwxcPywySppYQU6eiE+mGjcFoi3RHr2MOJG0341SbcMarnRTJXDCgsgJFxlsRu0zojx+IAAAAPRSURBVPXerEZaXfWeCXww4Yi9gf0eNFnlVFhbv0yS3Rt+NWEPh5brItGn89R/Wb0XwucTD/uPJqvcCivw1o3AVYlf4wPQ/zmjruuyOgRKX69eyiezCtbcarrKcYUFMPh5sm+b/GLnRPqucqVVj2XVdySE/4I4Nu3I4TI/bFfuhRU44JcQrs3htU6H/q9FVrcbe92U1Z8D3wFSP8LrYRjyw3YlF377RF48EdpXADl8yxd7IZ4QmLHG+EerqFa3w5bLIZ5JutsXft2xgc7bTFo1uCR8/rOseH5OHdkFpZ5I/wnGPyqrqkmw5T6IZ+VUVt+2rFTTFdavTe755Lr9cfgBhDmBDvdKyr2olrfBtnOAi9N/XvUrz0LL9MB+PzVx1WyF9YLKHLI/aPWl3kaHQ6Uv0veZSO+uHo48impBa6T/ZBj8vxAvy7GsgPgpy0qjtsIaWWV9FPjXGvwtW4AvA1cGOn/moclaVAPjoPIB4Hxg7xq85F1QftfI71Kl0SmskdK6CfhAzd5rsBDiDVC5LdD9pIfp5Qa3uh02vx04GfhT0uxl9XI8DqVyoOMXHgXVQWGtmADP9gCTa/4ehKXAfAj3Q1wJw6sC3c9YTvNaYOobYWgKhDLVzxoPArav8Z8yDBwR6Lzbt5PqorCqb5D+yRDvBXYd9fcqrK1eQoYNEDeOvGmawcSRVdN4YDegDu5pi6cHuq7xraS6KqxqU/R2Q5hP+hsN1ZguCXRebAyqy8KqltbAYVD5Tn2c3TWKK6trA12nmYNq6RX/ti/QMR84EcJzxte0roM1c4xBdb/C+rXLw0Mg3Aa4f3tzTZkroeNjPnZeDVVYI5eH06Hy38DrjLL414DA+YFO97hSYxZWdRb37QnMA/7IOAtrPYQPB8r/aRQaTZn3p6relb7+bRA/O3IWVrHOaUtguNuyUiFWWC9abR0L/Buws9EW4hLwSmg7LzBt0DhUuMKqzvJlO8PQRRDPSLGC06hYCpwe6LzPKFTownqhuPr/GCpXQ9jXmBvGFuBz0PYZV1VqqsKqltaCVthpNsQLSPqsOyW2ubot9uDnAvuvNQ41ZWG9UFyxBEvfA/EiiDOMvW5sgvBVGLzUopKF9f8XV4CBQyHOBt6Pv0kcDRXgHghzYex/BKZuMhJZWL+3vHq2h5ZjgeOAQ4CdPBy5GQJ+DNwBwzcFuh8xEllYr7q85rXA3mUoHTZSXtOBN9TL39eAngJWAIsgzof2hYFpm41FFlZuJbZoOxg7GUpTIL4RwgSIz+8FtaOHjmcgboLSZmA9VJ6E0koYWuEurSqq/wdZHtOwVh4ftgAAAABJRU5ErkJggg==;" parent="qivoIHH8CJ9T5ArKO1uE-18" vertex="1">
          <mxGeometry x="10" y="24" width="18.99" height="30" as="geometry" />
        </mxCell>
        <mxCell id="qivoIHH8CJ9T5ArKO1uE-21" value="" style="group;rounded=1;" parent="1" vertex="1" connectable="0">
          <mxGeometry x="360" y="140" width="180" height="110" as="geometry" />
        </mxCell>
        <mxCell id="qivoIHH8CJ9T5ArKO1uE-20" value="Vulnerability Analyzer" style="rounded=1;whiteSpace=wrap;html=1;dashed=1;fillColor=#d5e8d4;strokeColor=#82b366;" parent="qivoIHH8CJ9T5ArKO1uE-21" vertex="1">
          <mxGeometry x="20" width="160" height="90" as="geometry" />
        </mxCell>
        <mxCell id="qivoIHH8CJ9T5ArKO1uE-19" value="Vulnerability Analyzer" style="rounded=1;whiteSpace=wrap;html=1;fillColor=#d5e8d4;strokeColor=#82b366;dashed=1;" parent="qivoIHH8CJ9T5ArKO1uE-21" vertex="1">
          <mxGeometry x="10" y="10" width="160" height="90" as="geometry" />
        </mxCell>
        <mxCell id="qivoIHH8CJ9T5ArKO1uE-6" value="Vulnerability Analyzer" style="rounded=1;whiteSpace=wrap;html=1;fillColor=#d5e8d4;strokeColor=#82b366;" parent="qivoIHH8CJ9T5ArKO1uE-21" vertex="1">
          <mxGeometry y="20" width="160" height="90" as="geometry" />
        </mxCell>
        <mxCell id="VMr1wWkczlRjw2ziYmWZ-6" value="" style="shape=image;verticalLabelPosition=bottom;labelBackgroundColor=default;verticalAlign=top;aspect=fixed;imageAspect=0;image=data:image/png,iVBORw0KGgoAAAANSUhEUgAAASwAAAHaCAYAAAC6tnRxAAABhWlDQ1BJQ0MgcHJvZmlsZQAAKJF9kTtIw1AUhv+miq+KgxmKOGSoThZERRy1CkWoEGqFVh1MbvqCJg1Jiouj4Fpw8LFYdXBx1tXBVRAEHyCuLk6KLlLiuWmhRYwHLvfjv+f/ufdcQKiVmG53jAO64VjJeExKZ1alrlcE0AcRPQgrzDbnZDkB3/q6p26quyjP8u/7s/q1rM2AgEQ8y0zLId4gnt50TM77xCIrKBrxOfGYRRckfuS62uA3znmPBZ4pWqnkPLFILOXbWG1jVrB04iniiKYblC+kG6xx3uKslyqseU/+wlDWWFnmOq1hxLGIJciQoKKCIkpwEKXdIMVGks5jPv4hzy+TSyVXEYwcCyhDh+L5wf/g92zt3OREIykUAzpfXPdjBOjaBepV1/0+dt36CRB8Bq6Mlr9cA2Y+Sa+2tMgRMLANXFy3NHUPuNwBwk+mYimeFKQl5HLA+xl9UwYYvAV61xpza57j9AFI0awSN8DBITCap+x1n3d3t8/t357m/H4AFB1ygWgb614AAAAGYktHRAD/AP8A/6C9p5MAAAAJcEhZcwAADdcAAA3XAUIom3gAAAAHdElNRQfnAQsUCTDBwK9iAAAgAElEQVR42u3de5hdVWH38e86M5kJ5MJNCmhVEHLRBObMZAoiRQgXFQWLtdyUxFaFUsJFpAVebbnYKkgtWiwg1lYgXDRUKxS1iCZgIAaZzCUkr7khSgskgpArkMnMWe8fZxDlVQT22mfO2ef7eR6fxwce1pnnt9f57bXP2WftQJ2JLB8PW6dCmAJxKoTJwJ7AuJH/7QBMBFpobhuBzcAWCBuBJyCugLgSWlbBtp8Euh9HKpAw+gXVsz2U3gbhj4GDgLcDbR6aJB4H7oXwfajcGej6uZHIwnrlq6g2GHw38CHg3RZUzZLvhTAXWm8J7LvOPGRhvWRR9b4FwunAicAuxj9qhoA7ga9A+fZAqBiJLKwXiqoDSudC/AB+9lRvHoJwOTz974GZQ8ahpi2sSF8ZwqUQ32XUde+nEC+BzrmBEI1DTVNYkYFxMPx3EM4FWo25odwLlTmBGUuNQoUvrEjviRCuAPYw3oY1BPFKaL8oMG2zcahwhVW9f2rwGuBkYy2MVRCPD3QNGIXqQSnRquotMPgjy6pwJkNpcaTvbKNQIVZYkd5ZEK4FtjPOQrsJxn8kMGmrUaghC2vkzHtFqpWa6t7dMHxsoHuDUahhCisSA/RdCuF8I2w28UHgXYGux8xCdV9Y1bIa+FeIHzG+prUGwqGB8qNGoVp6FZdy/ZdbVk1vH4h3RpbtbBSq28KK9J0H/LWxCZgG275TvUlYqrNLwpFvA69n9LakGQZ+BqwCHoa4CcIG4BkIzxb/UFVaoDQR4gRgHMQ9RvYKmwJsP4p/2O1Qfp8/oFbdFFZkyX5QWkxtb13YBtwHcT6E+TC+x6/Uf9uxiQEGJgEzoTITwhHUfCeMeGGg6+89Ghr1whq5g71n5ExeCz0Q5wK3BLqe8BC90gLrGQOlo6A0G+LRQHttVr/x8EDXPR4BjXJh9d8AcVYN/pb7oHRhoGO+hyVVeQ38AVROBz5GdWvpPK2DbeXA/mtNXqNSWCM/ZL4l57/hXiidHejo9XDkVVz37wJtfwfMId/dM24LdB5r4qp5YUUWT4T2FeS368ITwHlQvt79l2pVXH1l4GrgwByn1DGB8h2mrTy8xG0N7Z/KsazuhlgOdF5nWdXy7NTZD+WDIFxA9VvXPGrxKm91UE0La+RMPCeH16sAF8PqI/xpx2iVVoiB8meh9A4gjwdRvAGGLzBp1eySMNL/3Ry2NR6CcGqg/FVjr5dLxIG9oHInMCnxtHoOht7kcxGV+worsmRGDmW1BSrHWFb1drbqeBhaDwb6ElfhWGj5mAmrBpeE4ROJX2MbxOMCM/7buOuxtPZdB4NHAj9JPPScSM9rTFi5FVZkyZshpPxaOgKnBLq+a9T1XFoH/HLkM61HEg47DlrOMF3luMIqzSHpZnzx4kDn9cbcEJeH/wul9wEpf/50WmSBT01S+sKqPj6eExKOfTes+bQRN1Rp9QLnJhxyN9jxHSarHFZY294DpPrM4QnYdlLg+GEjbrTS6rwKwjcSrrJnm6pyKKykE+tv/E1ZIxs8A1ifaIr9SaRvRzNVssIauTP5qERn1IVQvsFoG3mVtf9aiBclmg9jgfeYqhKusOJBpNmGJFZ/yOzPbRrfmqsgrEhUWoeZpxIWViXVhPpOoNxnrEVYZR0/DPGyRKMdbqJKWFhhZqLxLjXSIll9I7AmwUBvjPTtaZ7KXFjVHUXpSjDWA4HO+4y0aKssrk003KEmqgQrrME3k2RTt+AH7YUUbybJVjRhulkqQWGFFHu1b4OhrxlnEVdZXY9B/H6C4ptimkpQWJUEEyn8MND9pHEW1rcSjGFhqV5WWHGBURZ6mqR4MMheIz//kjIV1usTjGNhFfqysLwK4v9kHKYVBl9rmspYWHFCxjGGoK3HKAtfW/dnH6Nlgjkqa2FNzDjGw4Fpg0ZZeCuzDzFsYSnzJeGE0Z/Iqn8xwXEOFpayFhYZH8kUf2aMTTFVHk5QehPNUVkLa0zGs+ZGY2wGwymO8xhzVNbCymqzMTaD1k1moAIUVtxijE2xwvLEpCIUVqlijM1gm8dZhbgklCQLS5IsLEkWliRZWJJkYUmysCTJwpJkYUmShSVJFpYkC0uSLCxJsrAkWViSZGFJkoUlycKSJAtLkiwsSRaWJFlYkmRhSbKwJMnCkiQLS5KFJUkWliRZWJIsLEmysCTJwpJkYUmShSVJFpYkC0uSLCxJFpYkWViSZGFJsrAkycKSJAtLkoUlSRaWJFlYkiwsSbKwJMnCkmRhSZKFJUkWliQLS5IsLEmysCRZWJJkYUlSPoUVxxpjM9h+ezNQEVZY442xGWybYAaqh8KqZBxjojE2xVRJcGKKFXNU1sLaknGM3Y2xGcQ9Eky3zeaorIWVcRLFKcbYDMLU7GNUNpmjshZWxkkUpkRiMMrCr7ASnJhKG81RGQsrZD3rjYPevY2y8Cus/RKUnpeEylpY8RcJhplplAVeW7F0J4jl7CMN/8I0lfWScFWCcSysQqscCrRkXKGtDXRvMEtlXWGtTDDOEZGeMcZZ2DXWuxKMscoclaCwWlIU1q7Q+k7jLOLl4PI24P0JhlphmkpQWMOJJlKcbZxFtPUYYJfs44SVZqnMhRXoegz4WYIJeUzkx95EWjjh1ETj3GeWSrDCAmBBghXWWBhzjpEW6XKwvxM4MsFQm+CpJSaqRIUVFyQab06k5zXGWpjKuhBIcVPwPYGZQ+apRIVVmp9ovHHQ8gljLcLqqu9twJ8kuhxcYKJKVliB8qNAX6Ixz4ws2c9oG7msFrQCVydaXQHcYapKuMICCHMTjdkKpasj0d1MG9ZOZwIdiQa7P1D2HiwlL6ybgFSfMxwEA14aNuTqaum+ED+dcMi5pqrkhRXo+AXwvYRT/5JI7+FG3EhltXw8VOYB2yUachsMf91klcMKCyB8Je3YpRsjA3sZcyOU1bwWGLwJ4tSEw/5noPtJ01VOhdXxLWBZwrfB7lC5K/LgbkZdz2UVA0z6EvDetCNXLjdd5VZYgRAhfDbxa+wN274TuX8X465XfZcCH0086LcDM7xZVHmusABW3QKsTvsyoQvaFkZ63mDk9XUZGOn9EoTzcxj+UhNW7oUVOH4Y+HQOr/VmaLkv0lc29nooqxUTYNI3IfxlDsN/N9DpbwdVixUWQPkG4J4cXu8PgcWRvrONfjTLqvct8Oxikn9mBcBWKPmbUtWusKqfZVXOIt19Wb+uHfhCpG+euzvUuqgWtEb6z4HSEuAt+bxK+Gygw61kVMsVFgRmLAW+mONrHwdjVkT6zq5+pa6cV1XdsOMiiFdUd9bIxUPwtJ9dKTfhpSf58vEw2APk/ezBn0C8DDbc7K/68yiq8Lcjl395Po5tGOLhga57TF2jUljVCb9kPygtJt3dzy/lpxCvhsrNge7HPTyvtqRWt8Omo4FTINRo6+p4YaDr701fo1pY1TdA/6kQr63h3zUMfA/CbRDnBzpXe6h+3zFauhMMHwIcVb3cZqcavvz3ofzOQKh4JDTqhVV9Q/TdBHxglN6O/wNhMbAKwgqID1cfytm6CUrroRKb5HCNh8HxUBoPvA6YPPJE5jKEDjI/iutVeRRaZwT2XefbSXVUWMvbYPC/gHcYm0ZsAA4NdPYbheqqsKqltWICPHN39c51NblnofTOQMdCo1CtvKJN9gJTN8GYdwNrjK6pDQEnWVaq68Kqlta+62D47cCA8TWlrRBPCnTeZhSq60vC37w87NsR4u0QDjbGprEeSu91ZaWGWWG90HSd6+G5dwK3G2NTeBRa3m5ZqSFXWC+stGKA/rOAfwTGGGkhLYDhD3ozrxp2hfVC44UY6PxniEcAjxlpoQwDl8DqIy0rFWKF9ZurrYE/gMq1wLFG2/AegvgRfxuowhbWC8XVfzTEKwEfQNF4tkG4BsInAh1bjEOFL6xqaS3aDsZ+AsK51OaH08ruO1A5OzDD++zUXIX1QnH17gphDnA2sKOR16Xvj+y28COjUFMX1gvFtWxn2HYWcBrgY79G3yDwLeBSfwsoC+t3Fte8FthnJpRmQ/xTYJyHoaaHfAnEuVC6ZeRp35KF9fLKq2cHaDka4mEQDgP29JAktxH4IYT5wLcD5VVGIgsrSYEN7AWVQyBMH9nnaQrVbxpbPVQvyzpgBbCyum9YWARPLXHbaVlYNSux5W0w+FqoTKxuXBfGQ9zBQxeerW5iWNkEcT3wZKB7g7lIkiRJkiRJkiRJkiRJNReMQEVUvX/vub2hZSrVB86+BpgIYSJUxkFwBxHCBohbgC3V/195BFpWAqsCHf9rYUm5FdSDr4dtM0d+4vU2/IVEVpshLIPKPVBaAOHeetgfzcJSA5dUfyfE2cDRwD4mkqttEBcDtwJfC3Q9YWFJv7ekfrw7jJkFzAamm8holRffhXgDVG4PdG+zsKTfKKq+PSGcA/EU3MG2njwCXAHD/xrofsbCUpMX1cAUiJ+EeBJ+JlXHwlqIV8DwVXkWl4WlOi2qRdvBducDFwDtJtIwHoX4iUDXDRaWmmVVdQxUrsQNHRvZHVA6K9DxsIWlghbVignw7LXASaZRCM9AOCNQ/qqFpYKVVX8nxK8Dk0yjcG6Etr8KTNucdaCSWaoOyuovgUWWVWGdDNseiPRPs7DUwEUVQ6TvYohfgjjWRAp9tKdCvDcycLCXhGrAsprXApOuAU4xjaayFeIHA13fsLDUIGW1vA0G5wF/YhpNaQj4aKDzei8JVe+XgSUYnGtZNbVW4N8jfcdZWKpz/VcAx5tD0ysBN0b6jvSSUHW6uuq9EMIldfCnrIP4KLCF6r1CG5vkCLRU9wNjAjCO6hY840b5j9oAHBro7LewVEdl1Xcs8M3az7mwFuJ84G4IAzC00gfO/uryPMCS10NpMpTeCvEwCAeOwje2P4cxXYHpT1lYqoey2hPoBXaqXUlVboYw9+WeufX8sVowFnY6amSfsXcDbTV66duhfGwgRAtLo/gG6BkDLQuBA2rwcg9AuBRW3R44ftj0sx67+3eB9r+CeDbwmhqcaM4NlK+wsDSKk773Mgjn5/wyPRA+GSh/z8TzOIYD42D4NAh/C+yY40sNQunAQEevhaVRmOj90yD2AWNyeon1wMWw+l9cUdVqxdX2Gao3++bVHT1QPiAQKhaWaji5Y4C+eyAcnNNL3AXbZgf2X2vatT62fUcCc4Hdcro0PC1Qvva3/Rvvw1JO+j+UU1kNA5fA6qMsq9ER6LwLSvsBOV2Cx89Eend1haUanYEXbQfb/xTi7omHfgbCCYHyHaZcD8d5XgtM+hLw0RyGvyrQeYaFpRpM5N6zIPxz4mHXQzgmUL7XhOvtePefD/GyxMNuhfimQNdjXhIqx8m7vA3468TDboTS4ZZVvV4ilj8LXJx42HYoffzF/9DCUuoT4ywIr0844CDwZy/1VbfqobQ6L4FwZeLT32kv/izLwlLqqfvxxJP2Q9UPeVX/Vn0cSPn54jgIp/5mMUrJLgf794d4f8Ihrw50zjHZRpoDS3eC4V7SPfFoNZSnPP+THVdYSqgyK+FgfbD+XDNttEvD/Z6GyklUH2efwiRYur+XhEp8Zu0ZA+HERMMNQ/hIYOZzJtuIpTVjMfCFPE6EFpYSaXkHyX4gG64KlPvMtJG1fQri/yQa7ITqPV8WltI5ItE4T8DQhcbZ6KusaZuhlOr2ltfA3mULSykdlmicz7vBXlF03AosSzNWaaaFpSSqv+JneoKhNgDXmGhRVlkhAqnugLewlMqYmYnm0pcDnevNs0hWfy3RZ1lvj/SMsbCU4lzamWaclrlmWbRV1vHDEG5MMNR4YG8LSymm5ZQEYywJ7PegWRZyflyX6IQ2xcJSApXJ2ceI88yxqKus8ipgaYKRplpYylYzxBKUJiUovR+YZqElOL6VyRaWMlr2ugTPsXsaHvJxXMVeZ81PMIafYSnzWW+HBIMs8iEShV+Lp9jLbEcLSxkNT0gwyE/MseDrKzrXVx9wm8l4C0sZlVIU1kpzbIpVVtbjPNHCUlbjE4yxxhibwuqM67QJFpaynjXHJhjEu9ubw9NZ55qFpTowvMkMmuLklvk4W1iqA+2bzaAZBAtLRfDMkBk0RWFlPs4WlqSGYWFJsrAkycKSZGFJkoUlSRaWJAtLkiwsSbKwJFlYkmRhSZKFJcnCkiQLS5IsLEkWliRZWJJkYUmysCTJwpIkC0uShSVJFpYkWViSLCxJsrAkycKSZGFJkoUlycIyAkkWliRZWJIsLEmysCTJwpJkYUmShSVJFpYkC0uSLCxJsrAkWViSZGFJkoUlycKSJAtLkiwsSRaWJFlYkmRhSbKwJMnCkiQLS5KFJUkWliRZWJIsLOkVC2PMoCm0WVgqgDETzKAZxMzH2cJS1kkYEyz0LazmWElbWBr1Sfhs9jEqu5hjU5zcsh7nZywsZZ2EmxMMMskcm8KUjP/9JgtLGbVsSrBKm2KOTWFyxv9+o4WljIYTFBbTzLHg63B+vDuQ9ZJws4WljCpPJ5jOB0aWt5llkbUdkmAl/pSFpYxmrAWyrrK2h6EDzLLQa6zDEgyy2sJStnMeIUJYlWBCH2mahXZEgjFWWVhKcfZMUVgnRWIwywLODpa8FXhT9pEqKywspbAywRj7QN9bjbKISrPSjNO60sJSCg8kusD8sFEWbXW1aDvghARDPQn7/szCUgLbLQS2JRhoVqT3teZZJGNPIfvtDAB3B0LFwlL2dRFTN0FYkmCodih93ESLsrrqGQMh1fFcAP6WUOmm5/xE45wW6X+deRZB6TTgjWnGqlhYSlpYdyYaaBzEK8yz0VdXD+4G4VOJhvt5YMZPLCwl1LkQeDjRYMdHeo8y00Y2/I/AjokGu+lXazaDVQrVG0i5OeGQ10bud9uZhlxdDRwD8eSEs+tmC0t5uB6IiSbp66Htem8mbbSy6nkDVK4DUh23BwLl5RaWclhlda4GFicc8j3Qf4HJNszKahy0fhPYOfFJEAtLebk88XifjvR7Q2n9r6zGQOVWiDMSDvtLaLOwlKfybcCypAs34rXVz0VUn2UVS9DyFSD1FyX/FJi22cJSjpeFIQKXJh62FSrfjPT/hQnXW1ktb4OBm4DZiYfeAFzz4n9oYSkHq79Omh9Ev6i04lci/eeYb91cBu4AW78L8cQchv98oHP9b1luS3lM5r4jge/ltI77Bgx9JNC9waRH6/j2d0KcB+yTw/CPQOktgY4trrBUo0vDzruAW3N6u7wfWu6PDHSZdK2LKpYivWdC/FFOZQXEM39bWbnCUt6XDHtAywpgYk4vUYFwE2w9J3DAL00891VzGbgaODDHl/luoPPdv+tfusJSjqus7schfDLHlyhBnAXtyyK9Z43svaT0J569I/1fAXpyLqsNwOkvPaekfC8hAvR/A3hfDV5uHcQvwJivBvZdZ/pZj11vN4SzgROB1hq84p8Fur5hYWmUJ/7SnWC4F9izRi85BNwJ8UZo+15g+lMehZe9mpoKLe8DZgFvruEr/0ug68zfv2qXavJGGDgAKj8Eav38wQrEfigtgMoAlFbC0Eq/YXz+d3+lySNP3n4rcBgwCju+hiUw7qDApK0WluroDdL3QeAG6uOz02eALcAmiOuhFJvgCLQD44EdgAm1ucz7vR6B8LZA+dGXVW2+jVTj0joduMokBPwSKgc/vznfy+G3hKrt4p/OqyFcZhJN7xngva+krCwsjZKOT7gNclPbCOHoQOeiV37Ck0bv8vBs4ApPnE1lHZTeHejofXUrdGlUS6t3FoR/A8aYRuE9DLxzZKPHV8Uzm0ZVoGsuxKMgrDWNQp+a7oR4QJaycoWlelpp7QrMhfBO0yiUYeAfoPypQKhkHcwVluplpfUErHkPxItI89h7jb5HoDQz0HlxirJyhaU6XW0NTIHKvwBHmEZDGoJwNYz928DUTWlPbFLdFlffccAXgd1Mo2H8EEpzAh3L8hjcwlKdl9biidB+BvAxYFcTqVv3Q+nTsN8dI/v65/TRgdQQxbW6HbZ8COLfAX9oInXjPih9NtDxX7V4MQtLDVZc81pgn5lQml3dKpntTaXmHoPwHxCuf7U3gFpYasLyWroTVI6DytEQDiG/rZgFDwHzgVth9fzA8cOj8UdYWCrQymvyDKgcBuFAqpvP7UV9bKHSaDZBWAVxGXA3DM8PdD9SD39YqN8JuGg7GDsZSlMgvhHCeGAcxAnAjpZt3ASlLVT3dFoPlSdHNqdbEeh+0vfc849PZ+/qJnWl3aEyYWQejXc1xjDEjRA2QNwMpc0Qfg5x5cvdm6ppC2vkc4lOCDOBQ4DpwBsspVftKWAFsAhYAG0/fPEjv6VGNGqFEOnZfmTv6D8DDh1ZNSkfQ8ADwB0wfGO9LO+lui6skSeoHAJ8CHg/1W1aVVsV4B7gBtjuG6nvRJYavrAisQRLR34nFmcYe93YBOGrMHhpYH93S1BzF1b1Q8/SbAgXkNtjrZXAZgjXwuDnLC41ZWFFBg6G4asg7GvMDWML8Dlo+0xg2qBxqPCFFVm2MwxdBPEM3L6mUS0FTg903mcUKmxhRfqOBf4N2NloG14EroS281xtqVCFFVnQCjv8A4Tz8N6povVWL8QTAjPWmIUavrAiA3tBZR7QbZyFtQHChwPlbxqFRlOmz5giA9OhstCyKrwdIP5HpO9vjEINucKK9B4C4bbqZFYTTZkroeNjeW7SJiUtrOqH6+EWiGONsCl9FVafMlpbjMhLwldyGXgY8DXLqqn9BexzlTGorgsr0vdHULkNaDe6pl+c/2Wk72JzUF1eEo48emkho/8ggAj8AtgC4WmoPANhaxMcqkB1R4txUBkHYTegrQ7+sDmBzqt9K6luCiuyYgI82wNMHoVyehCYD/H+6gZ1YVWgY0uzH7jqHmJv2hNapgBlqlv0HETt9zgfhnBkoLzAt5PqpLD6bgZOqmFJLYR4A1Ruc/fMVxLc6nbY/HYIsyD+aXU1VhOPQ2tnYN91HgWNamFF+k4BvlyDv2VL9XVKXwx0POyhyVpey8fD4EnA+cDeNXjJu6D8rlSPJJdecWFFet8CoQfYLse/4Vng8zD8eVdTeRTXglbY8QTgkvyLK/6fQNdlpq6aF9bI7qA/AGbm+PI/gDAn0LHSQ5H7iqsNtp0DXJzjLSnPQsv0wH4/NXHVuLB6Z0G4IafX3QDh1EB5noeg1sXVN2nkpt+8dn79dqDzaJNWzQorsngitK8A9sjhLeOv/0e9tFa3w5bLIZ5JPrtrvC/Q+S2TVmq/48bRtovyKStuhQlvs6xG+yw1aWugfDbwYapP1EntipFnAkr5Flbk/l0gnJrDa10D5RMDk7Yae70UV+d1EN4HPJN46L2g9WQTVg1WWG3nUH0ybkpfCHSe7lfe9Vha5TsgHA3hucQXnhdUb26Vciqs6mdXzEn8GjdD+VyjruvSWgCVExJfHk6GfY4zXeW4wmo/laRPYA4/gOE/d2XVCKXVdTvEjyeeXn9tssqxsOLshGOvg6FZge5txtwwpfVF4KaEl4UzIkt9zJvSF1ZkoCvhMwSHIZwU6H7ciBvN1tOBhN/iDs8yU+WwwqokXF2Fq/z1fqOust66EcJfUP0Regof9MN3JS2sSCwBJyaa8mth6EKjbeTSKt8LzE003GthyiGmqoQrrIEOYLc0Q1bOC3RvMNpG13oesDHRZeE7zFMJC6tyWKLxHoI1NxtrEVZZ+66DkGgn0XCoiSphYYVEOzKET/sklSIZ+idgc4KBuiN9O5qnMhdWdb8kDk4w1uMwdKORFmmV1f0kkGLHjhYoHWyiSrDCmrAPMDHBWDd6z1UhXZdmmEqXUSpBYbVMSTQhXV0VcpXV+QCwPMFQU0xTCQoryURaHpix1DiLKibYaDFaWEpRWEkm0veNstDrrB8kGGNKddttKVNhhRQPJvCu9kIb/jHZvy0cB0t2N0tlvSRM8HXzmIVGWeD1VfXLlB8lGMlbG5S5sDJ+QxjWBqY/ZZSFr62fZB+jZYI5KmthZdxdNPqIrqaQ4jhXLCyNdmGx2hiborBWJZhuE81RWQsr61OdnzbGZtCS4LK/MtYclbWwsp55NxljM6gkOM7B2xo02oVV2myMzWCbJyYVobDw94NNIXqcVYjCkiQLS5IsLEkWliRZWJJkYUmysCTJwpJkYUmShSVJFpYkC0uSLCxJsrAkWViSZGFJkoUlycKSJAtLkiwsSRaWJFlYkmRhSbKwJMnCkiQLS5KFJUkWliRZWJIsLEmysCTJwpJkYUmShSVJFpYkC0uSLCxJFpYkWViSZGFJsrAkycKSJAtLkoUlSRaWJFlYkiwsSbKwJMnCkmRhSZKFJUkWliQLS5IsLEmysCRZWJJkYUlSToU1xhibQfA4qwiFVRlvjM1gzAQzUAEKK1hYzTFVEhRWjOaorIX1bMYxdjbGZjCc4DiXnjNHZS2szRnHmGSMzSBMzj5GZaM5apQLK0wxxqYorATHubTJHJW1sDKe9eLukWVeFhZefHOCy0oLS5kLa332YbYdbJQFrip6xgAHJhhpvWkqY2HFhxKMM9Moi6xlfyDrt8FbYMZas1TGwgorE4xzhFEWWoLjG1cGgrc1KPMlYYrCmhZZsp9xFtZx2YdIcmKUhTWcaCKVTjbO4on0/REwLcFQFpZSFNamNWT+phCAk0c+nFWxfCjRVOs1SmWeRYGZQ8DCBGPtAa2usgq1uup5TaLCGobKQhNVghUWQFyQaIp/MjKvxViLovVcsn87CNAT6PSWBqUqrNL8ROPtDft8wFiLsLp6cDeIp6cZLSwwUSUsrI4BYF2iIS+P9OxgtI1u6HJgYqLCuss8laywAqECfC3RuXl3aP2U0Tby6qr/j4FZiYZ7DFbeY6pKuMICKN2QcMrPifR793tDltXiiRD/HQiJhrwxcPywySppYQU6eiE+mGjcFoi3RHr2MOJG0341SbcMarnRTJXDCgsgJFxlsRu0zojx+IAAAAPRSURBVPXerEZaXfWeCXww4Yi9gf0eNFnlVFhbv0yS3Rt+NWEPh5brItGn89R/Wb0XwucTD/uPJqvcCivw1o3AVYlf4wPQ/zmjruuyOgRKX69eyiezCtbcarrKcYUFMPh5sm+b/GLnRPqucqVVj2XVdySE/4I4Nu3I4TI/bFfuhRU44JcQrs3htU6H/q9FVrcbe92U1Z8D3wFSP8LrYRjyw3YlF377RF48EdpXADl8yxd7IZ4QmLHG+EerqFa3w5bLIZ5JutsXft2xgc7bTFo1uCR8/rOseH5OHdkFpZ5I/wnGPyqrqkmw5T6IZ+VUVt+2rFTTFdavTe755Lr9cfgBhDmBDvdKyr2olrfBtnOAi9N/XvUrz0LL9MB+PzVx1WyF9YLKHLI/aPWl3kaHQ6Uv0veZSO+uHo48impBa6T/ZBj8vxAvy7GsgPgpy0qjtsIaWWV9FPjXGvwtW4AvA1cGOn/moclaVAPjoPIB4Hxg7xq85F1QftfI71Kl0SmskdK6CfhAzd5rsBDiDVC5LdD9pIfp5Qa3uh02vx04GfhT0uxl9XI8DqVyoOMXHgXVQWGtmADP9gCTa/4ehKXAfAj3Q1wJw6sC3c9YTvNaYOobYWgKhDLVzxoPArav8Z8yDBwR6Lzbt5PqorCqb5D+yRDvBXYd9fcqrK1eQoYNEDeOvGmawcSRVdN4YDegDu5pi6cHuq7xraS6KqxqU/R2Q5hP+hsN1ZguCXRebAyqy8KqltbAYVD5Tn2c3TWKK6trA12nmYNq6RX/ti/QMR84EcJzxte0roM1c4xBdb/C+rXLw0Mg3Aa4f3tzTZkroeNjPnZeDVVYI5eH06Hy38DrjLL414DA+YFO97hSYxZWdRb37QnMA/7IOAtrPYQPB8r/aRQaTZn3p6relb7+bRA/O3IWVrHOaUtguNuyUiFWWC9abR0L/Buws9EW4hLwSmg7LzBt0DhUuMKqzvJlO8PQRRDPSLGC06hYCpwe6LzPKFTownqhuPr/GCpXQ9jXmBvGFuBz0PYZV1VqqsKqltaCVthpNsQLSPqsOyW2ubot9uDnAvuvNQ41ZWG9UFyxBEvfA/EiiDOMvW5sgvBVGLzUopKF9f8XV4CBQyHOBt6Pv0kcDRXgHghzYex/BKZuMhJZWL+3vHq2h5ZjgeOAQ4CdPBy5GQJ+DNwBwzcFuh8xEllYr7q85rXA3mUoHTZSXtOBN9TL39eAngJWAIsgzof2hYFpm41FFlZuJbZoOxg7GUpTIL4RwgSIz+8FtaOHjmcgboLSZmA9VJ6E0koYWuEurSqq/wdZHtOwVh4ftgAAAABJRU5ErkJggg==;" parent="qivoIHH8CJ9T5ArKO1uE-21" vertex="1">
          <mxGeometry x="10" y="24" width="18.99" height="30" as="geometry" />
        </mxCell>
        <mxCell id="qivoIHH8CJ9T5ArKO1uE-32" value="Kafka /&lt;br&gt;Kafka-compatible broker" style="rounded=1;whiteSpace=wrap;html=1;sketch=0;verticalAlign=top;fillColor=#f8cecc;strokeColor=#b85450;" parent="1" vertex="1">
          <mxGeometry x="130" y="-40" width="120" height="650" as="geometry" />
        </mxCell>
        <mxCell id="qivoIHH8CJ9T5ArKO1uE-33" value="" style="group;rounded=1;" parent="1" vertex="1" connectable="0">
          <mxGeometry x="360" y="-10" width="180" height="110" as="geometry" />
        </mxCell>
        <mxCell id="qivoIHH8CJ9T5ArKO1uE-34" value="Vulnerability Analyzer" style="rounded=1;whiteSpace=wrap;html=1;dashed=1;fillColor=#f5f5f5;strokeColor=#666666;fontColor=#333333;" parent="qivoIHH8CJ9T5ArKO1uE-33" vertex="1">
          <mxGeometry x="20" width="160" height="90" as="geometry" />
        </mxCell>
        <mxCell id="qivoIHH8CJ9T5ArKO1uE-35" value="Vulnerability Analyzer" style="rounded=1;whiteSpace=wrap;html=1;fillColor=#f5f5f5;strokeColor=#666666;dashed=1;fontColor=#333333;" parent="qivoIHH8CJ9T5ArKO1uE-33" vertex="1">
          <mxGeometry x="10" y="10" width="160" height="90" as="geometry" />
        </mxCell>
        <mxCell id="qivoIHH8CJ9T5ArKO1uE-36" value="Custom Clients" style="rounded=1;whiteSpace=wrap;html=1;fillColor=#f5f5f5;strokeColor=#666666;fontColor=#333333;dashed=1;" parent="qivoIHH8CJ9T5ArKO1uE-33" vertex="1">
          <mxGeometry y="20" width="160" height="90" as="geometry" />
        </mxCell>
        <mxCell id="qivoIHH8CJ9T5ArKO1uE-40" style="edgeStyle=orthogonalEdgeStyle;rounded=1;sketch=0;jumpStyle=arc;orthogonalLoop=1;jettySize=auto;html=1;exitX=0;exitY=0.25;exitDx=0;exitDy=0;entryX=1.008;entryY=0.112;entryDx=0;entryDy=0;entryPerimeter=0;strokeWidth=1;startArrow=classic;startFill=1;endArrow=none;endFill=0;curved=1;dashed=1;" parent="1" source="qivoIHH8CJ9T5ArKO1uE-36" target="qivoIHH8CJ9T5ArKO1uE-32" edge="1">
          <mxGeometry relative="1" as="geometry" />
        </mxCell>
        <mxCell id="qivoIHH8CJ9T5ArKO1uE-41" style="edgeStyle=orthogonalEdgeStyle;rounded=1;sketch=0;jumpStyle=arc;orthogonalLoop=1;jettySize=auto;html=1;exitX=0;exitY=0.75;exitDx=0;exitDy=0;entryX=1.017;entryY=0.18;entryDx=0;entryDy=0;entryPerimeter=0;strokeWidth=1;startArrow=none;startFill=0;endArrow=classic;endFill=1;curved=1;dashed=1;" parent="1" source="qivoIHH8CJ9T5ArKO1uE-36" target="qivoIHH8CJ9T5ArKO1uE-32" edge="1">
          <mxGeometry relative="1" as="geometry" />
        </mxCell>
        <mxCell id="qivoIHH8CJ9T5ArKO1uE-42" style="edgeStyle=orthogonalEdgeStyle;rounded=1;sketch=0;jumpStyle=arc;orthogonalLoop=1;jettySize=auto;html=1;exitX=0;exitY=0.25;exitDx=0;exitDy=0;entryX=1.033;entryY=0.343;entryDx=0;entryDy=0;entryPerimeter=0;strokeWidth=1;startArrow=classic;startFill=1;endArrow=none;endFill=0;curved=1;" parent="1" source="qivoIHH8CJ9T5ArKO1uE-6" target="qivoIHH8CJ9T5ArKO1uE-32" edge="1">
          <mxGeometry relative="1" as="geometry" />
        </mxCell>
        <mxCell id="itDi_Q5OXnBbP6Qk32dc-4" value="Components&lt;br&gt;to analyze" style="edgeLabel;html=1;align=center;verticalAlign=middle;resizable=0;points=[];" parent="qivoIHH8CJ9T5ArKO1uE-42" vertex="1" connectable="0">
          <mxGeometry x="0.3794" y="1" relative="1" as="geometry">
            <mxPoint x="15" y="-19" as="offset" />
          </mxGeometry>
        </mxCell>
        <mxCell id="qivoIHH8CJ9T5ArKO1uE-43" style="edgeStyle=orthogonalEdgeStyle;rounded=1;sketch=0;jumpStyle=arc;orthogonalLoop=1;jettySize=auto;html=1;exitX=0;exitY=0.75;exitDx=0;exitDy=0;entryX=1;entryY=0.412;entryDx=0;entryDy=0;entryPerimeter=0;strokeWidth=1;startArrow=none;startFill=0;endArrow=classic;endFill=1;curved=1;" parent="1" source="qivoIHH8CJ9T5ArKO1uE-6" target="qivoIHH8CJ9T5ArKO1uE-32" edge="1">
          <mxGeometry relative="1" as="geometry" />
        </mxCell>
        <mxCell id="itDi_Q5OXnBbP6Qk32dc-5" value="Analysis results" style="edgeLabel;html=1;align=center;verticalAlign=middle;resizable=0;points=[];" parent="qivoIHH8CJ9T5ArKO1uE-43" vertex="1" connectable="0">
          <mxGeometry x="0.3472" y="-2" relative="1" as="geometry">
            <mxPoint x="21" y="13" as="offset" />
          </mxGeometry>
        </mxCell>
        <mxCell id="qivoIHH8CJ9T5ArKO1uE-46" style="edgeStyle=orthogonalEdgeStyle;rounded=1;sketch=0;jumpStyle=arc;orthogonalLoop=1;jettySize=auto;html=1;exitX=0;exitY=0.25;exitDx=0;exitDy=0;entryX=1.025;entryY=0.803;entryDx=0;entryDy=0;entryPerimeter=0;strokeWidth=1;startArrow=classic;startFill=1;endArrow=none;endFill=0;curved=1;" parent="1" source="qivoIHH8CJ9T5ArKO1uE-8" target="qivoIHH8CJ9T5ArKO1uE-32" edge="1">
          <mxGeometry relative="1" as="geometry" />
        </mxCell>
        <mxCell id="itDi_Q5OXnBbP6Qk32dc-8" value="Components&lt;br&gt;to analyze" style="edgeLabel;html=1;align=center;verticalAlign=middle;resizable=0;points=[];" parent="qivoIHH8CJ9T5ArKO1uE-46" vertex="1" connectable="0">
          <mxGeometry x="0.3488" y="1" relative="1" as="geometry">
            <mxPoint x="17" y="-18" as="offset" />
          </mxGeometry>
        </mxCell>
        <mxCell id="qivoIHH8CJ9T5ArKO1uE-47" style="edgeStyle=orthogonalEdgeStyle;rounded=1;sketch=0;jumpStyle=arc;orthogonalLoop=1;jettySize=auto;html=1;exitX=0;exitY=0.75;exitDx=0;exitDy=0;entryX=1.025;entryY=0.872;entryDx=0;entryDy=0;entryPerimeter=0;strokeWidth=1;startArrow=none;startFill=0;endArrow=classic;endFill=1;curved=1;" parent="1" source="qivoIHH8CJ9T5ArKO1uE-8" target="qivoIHH8CJ9T5ArKO1uE-32" edge="1">
          <mxGeometry relative="1" as="geometry" />
        </mxCell>
        <mxCell id="itDi_Q5OXnBbP6Qk32dc-9" value="Analysis results" style="edgeLabel;html=1;align=center;verticalAlign=middle;resizable=0;points=[];" parent="qivoIHH8CJ9T5ArKO1uE-47" vertex="1" connectable="0">
          <mxGeometry x="0.2386" relative="1" as="geometry">
            <mxPoint x="15" y="12" as="offset" />
          </mxGeometry>
        </mxCell>
        <mxCell id="qivoIHH8CJ9T5ArKO1uE-52" style="edgeStyle=orthogonalEdgeStyle;rounded=1;sketch=0;jumpStyle=arc;orthogonalLoop=1;jettySize=auto;html=1;exitX=0;exitY=0.5;exitDx=0;exitDy=0;exitPerimeter=0;entryX=1;entryY=0.5;entryDx=0;entryDy=0;strokeWidth=1;startArrow=none;startFill=0;endArrow=classic;endFill=1;curved=1;" parent="1" source="qivoIHH8CJ9T5ArKO1uE-49" target="qivoIHH8CJ9T5ArKO1uE-1" edge="1">
          <mxGeometry relative="1" as="geometry" />
        </mxCell>
        <mxCell id="qivoIHH8CJ9T5ArKO1uE-53" style="edgeStyle=orthogonalEdgeStyle;rounded=1;sketch=0;jumpStyle=arc;orthogonalLoop=1;jettySize=auto;html=1;exitX=0;exitY=0.5;exitDx=0;exitDy=0;exitPerimeter=0;entryX=1;entryY=0.5;entryDx=0;entryDy=0;strokeWidth=1;startArrow=none;startFill=0;endArrow=classic;endFill=1;dashed=1;curved=1;" parent="1" source="qivoIHH8CJ9T5ArKO1uE-49" target="qivoIHH8CJ9T5ArKO1uE-3" edge="1">
          <mxGeometry relative="1" as="geometry" />
        </mxCell>
        <mxCell id="qivoIHH8CJ9T5ArKO1uE-49" value="Depending on&lt;br&gt;Deployment" style="strokeWidth=1;html=1;shape=mxgraph.flowchart.decision;whiteSpace=wrap;sketch=0;rounded=1;" parent="1" vertex="1">
          <mxGeometry x="290" y="720" width="120" height="120" as="geometry" />
        </mxCell>
        <mxCell id="qivoIHH8CJ9T5ArKO1uE-50" style="edgeStyle=orthogonalEdgeStyle;rounded=1;sketch=0;jumpStyle=arc;orthogonalLoop=1;jettySize=auto;html=1;exitX=0.5;exitY=1;exitDx=0;exitDy=0;entryX=1;entryY=0.5;entryDx=0;entryDy=0;entryPerimeter=0;strokeWidth=1;startArrow=none;startFill=0;endArrow=classic;endFill=1;curved=1;" parent="1" source="qivoIHH8CJ9T5ArKO1uE-8" target="qivoIHH8CJ9T5ArKO1uE-49" edge="1">
          <mxGeometry relative="1" as="geometry" />
        </mxCell>
        <mxCell id="qivoIHH8CJ9T5ArKO1uE-55" value="&lt;div&gt;Repository&lt;br&gt;Configuration&lt;/div&gt;" style="edgeLabel;html=1;align=center;verticalAlign=middle;resizable=0;points=[];rounded=1;" parent="qivoIHH8CJ9T5ArKO1uE-50" vertex="1" connectable="0">
          <mxGeometry x="-0.6385" relative="1" as="geometry">
            <mxPoint y="43" as="offset" />
          </mxGeometry>
        </mxCell>
        <mxCell id="qivoIHH8CJ9T5ArKO1uE-51" style="edgeStyle=orthogonalEdgeStyle;rounded=1;sketch=0;jumpStyle=arc;orthogonalLoop=1;jettySize=auto;html=1;exitX=0.5;exitY=1;exitDx=0;exitDy=0;entryX=1;entryY=0.5;entryDx=0;entryDy=0;entryPerimeter=0;strokeWidth=1;startArrow=none;startFill=0;endArrow=classic;endFill=1;curved=1;" parent="1" source="qivoIHH8CJ9T5ArKO1uE-7" target="qivoIHH8CJ9T5ArKO1uE-49" edge="1">
          <mxGeometry relative="1" as="geometry">
            <Array as="points">
              <mxPoint x="440" y="420" />
              <mxPoint x="580" y="420" />
              <mxPoint x="580" y="780" />
            </Array>
          </mxGeometry>
        </mxCell>
        <mxCell id="qivoIHH8CJ9T5ArKO1uE-56" value="Notification&lt;br&gt;Configuration" style="edgeLabel;html=1;align=center;verticalAlign=middle;resizable=0;points=[];rounded=1;" parent="qivoIHH8CJ9T5ArKO1uE-51" vertex="1" connectable="0">
          <mxGeometry x="0.0812" y="-2" relative="1" as="geometry">
            <mxPoint x="2" y="-13" as="offset" />
          </mxGeometry>
        </mxCell>
        <mxCell id="qivoIHH8CJ9T5ArKO1uE-54" style="edgeStyle=orthogonalEdgeStyle;rounded=1;sketch=0;jumpStyle=arc;orthogonalLoop=1;jettySize=auto;html=1;exitX=0.5;exitY=1;exitDx=0;exitDy=0;entryX=1;entryY=0.5;entryDx=0;entryDy=0;entryPerimeter=0;strokeWidth=1;startArrow=none;startFill=0;endArrow=classic;endFill=1;dashed=1;curved=1;" parent="1" source="qivoIHH8CJ9T5ArKO1uE-6" target="qivoIHH8CJ9T5ArKO1uE-49" edge="1">
          <mxGeometry relative="1" as="geometry">
            <Array as="points">
              <mxPoint x="440" y="270" />
              <mxPoint x="640" y="270" />
              <mxPoint x="640" y="780" />
            </Array>
          </mxGeometry>
        </mxCell>
        <mxCell id="qivoIHH8CJ9T5ArKO1uE-57" value="Affected version ranges&lt;br&gt;(for internal analysis)" style="edgeLabel;html=1;align=center;verticalAlign=middle;resizable=0;points=[];rounded=1;" parent="qivoIHH8CJ9T5ArKO1uE-54" vertex="1" connectable="0">
          <mxGeometry x="-0.2479" y="2" relative="1" as="geometry">
            <mxPoint x="-2" y="9" as="offset" />
          </mxGeometry>
        </mxCell>
        <mxCell id="qivoIHH8CJ9T5ArKO1uE-58" value="" style="endArrow=none;dashed=1;html=1;rounded=1;sketch=0;strokeWidth=2;jumpStyle=arc;curved=1;" parent="1" edge="1">
          <mxGeometry width="50" height="50" relative="1" as="geometry">
            <mxPoint x="800" y="880" as="sourcePoint" />
            <mxPoint x="800" y="-50" as="targetPoint" />
          </mxGeometry>
        </mxCell>
        <mxCell id="itDi_Q5OXnBbP6Qk32dc-18" value="&quot;Internet&quot; Boundary" style="edgeLabel;html=1;align=center;verticalAlign=middle;resizable=0;points=[];" parent="qivoIHH8CJ9T5ArKO1uE-58" vertex="1" connectable="0">
          <mxGeometry x="0.9376" y="1" relative="1" as="geometry">
            <mxPoint y="21" as="offset" />
          </mxGeometry>
        </mxCell>
        <mxCell id="qivoIHH8CJ9T5ArKO1uE-59" value="Snyk" style="ellipse;shape=cloud;whiteSpace=wrap;html=1;sketch=0;strokeWidth=1;rounded=1;" parent="1" vertex="1">
          <mxGeometry x="830" y="70" width="120" height="80" as="geometry" />
        </mxCell>
        <mxCell id="qivoIHH8CJ9T5ArKO1uE-60" value="OSS Index" style="ellipse;shape=cloud;whiteSpace=wrap;html=1;sketch=0;strokeWidth=1;rounded=1;" parent="1" vertex="1">
          <mxGeometry x="830" y="160" width="120" height="80" as="geometry" />
        </mxCell>
        <mxCell id="qivoIHH8CJ9T5ArKO1uE-61" value="..." style="ellipse;shape=cloud;whiteSpace=wrap;html=1;sketch=0;strokeWidth=1;rounded=1;" parent="1" vertex="1">
          <mxGeometry x="830" y="245" width="120" height="80" as="geometry" />
        </mxCell>
        <mxCell id="qivoIHH8CJ9T5ArKO1uE-66" style="edgeStyle=orthogonalEdgeStyle;rounded=1;sketch=0;jumpStyle=arc;orthogonalLoop=1;jettySize=auto;html=1;exitX=1;exitY=0.5;exitDx=0;exitDy=0;entryX=0.16;entryY=0.55;entryDx=0;entryDy=0;entryPerimeter=0;strokeWidth=1;startArrow=none;startFill=0;endArrow=classic;endFill=1;strokeColor=default;curved=1;" parent="1" source="qivoIHH8CJ9T5ArKO1uE-6" target="qivoIHH8CJ9T5ArKO1uE-60" edge="1">
          <mxGeometry relative="1" as="geometry" />
        </mxCell>
        <mxCell id="itDi_Q5OXnBbP6Qk32dc-19" style="edgeStyle=orthogonalEdgeStyle;curved=1;rounded=1;orthogonalLoop=1;jettySize=auto;html=1;exitX=0;exitY=0;exitDx=0;exitDy=0;exitPerimeter=0;entryX=0.5;entryY=1;entryDx=0;entryDy=0;entryPerimeter=0;strokeWidth=1;startArrow=none;startFill=0;endArrow=oval;endFill=1;dashed=1;dashPattern=1 2;" parent="1" source="qivoIHH8CJ9T5ArKO1uE-67" target="qivoIHH8CJ9T5ArKO1uE-49" edge="1">
          <mxGeometry relative="1" as="geometry" />
        </mxCell>
        <mxCell id="qivoIHH8CJ9T5ArKO1uE-67" value="&lt;div&gt;Only the API server performs write operations, all other services operate read-only.&lt;/div&gt;&lt;div&gt;&lt;br&gt;&lt;/div&gt;&lt;div&gt;Decoupling the domain services from the shared DB is planned for a future iteration.&lt;br&gt;&lt;/div&gt;" style="shape=note;whiteSpace=wrap;html=1;backgroundOutline=1;darkOpacity=0.05;sketch=0;strokeWidth=1;verticalAlign=bottom;fontStyle=2;rounded=1;fillColor=#fff2cc;strokeColor=#d6b656;" parent="1" vertex="1">
          <mxGeometry x="400" y="880" width="170" height="150" as="geometry" />
        </mxCell>
        <mxCell id="qivoIHH8CJ9T5ArKO1uE-69" value="" style="shape=image;verticalLabelPosition=bottom;labelBackgroundColor=default;verticalAlign=top;aspect=fixed;imageAspect=0;image=data:image/png,iVBORw0KGgoAAAANSUhEUgAAATgAAAG5CAYAAAAakygXAAAKRGlDQ1BJQ0MgUHJvZmlsZQAASA2dlndUFNcXx9/MbC+0XZYiZem9twWkLr1IlSYKy+4CS1nWZRewN0QFIoqICFYkKGLAaCgSK6JYCAgW7AEJIkoMRhEVlczGHPX3Oyf5/U7eH3c+8333nnfn3vvOGQAoASECYQ6sAEC2UCKO9PdmxsUnMPG9AAZEgAM2AHC4uaLQKL9ogK5AXzYzF3WS8V8LAuD1LYBaAK5bBIQzmX/p/+9DkSsSSwCAwtEAOx4/l4tyIcpZ+RKRTJ9EmZ6SKWMYI2MxmiDKqjJO+8Tmf/p8Yk8Z87KFPNRHlrOIl82TcRfKG/OkfJSREJSL8gT8fJRvoKyfJc0WoPwGZXo2n5MLAIYi0yV8bjrK1ihTxNGRbJTnAkCgpH3FKV+xhF+A5gkAO0e0RCxIS5cwjbkmTBtnZxYzgJ+fxZdILMI53EyOmMdk52SLOMIlAHz6ZlkUUJLVlokW2dHG2dHRwtYSLf/n9Y+bn73+GWS9/eTxMuLPnkGMni/al9gvWk4tAKwptDZbvmgpOwFoWw+A6t0vmv4+AOQLAWjt++p7GLJ5SZdIRC5WVvn5+ZYCPtdSVtDP6386fPb8e/jqPEvZeZ9rx/Thp3KkWRKmrKjcnKwcqZiZK+Jw+UyL/x7ifx34VVpf5WEeyU/li/lC9KgYdMoEwjS03UKeQCLIETIFwr/r8L8M+yoHGX6aaxRodR8BPckSKPTRAfJrD8DQyABJ3IPuQJ/7FkKMAbKbF6s99mnuUUb3/7T/YeAy9BXOFaQxZTI7MprJlYrzZIzeCZnBAhKQB3SgBrSAHjAGFsAWOAFX4Al8QRAIA9EgHiwCXJAOsoEY5IPlYA0oAiVgC9gOqsFeUAcaQBM4BtrASXAOXARXwTVwE9wDQ2AUPAOT4DWYgSAID1EhGqQGaUMGkBlkC7Egd8gXCoEioXgoGUqDhJAUWg6tg0qgcqga2g81QN9DJ6Bz0GWoH7oDDUPj0O/QOxiBKTAd1oQNYSuYBXvBwXA0vBBOgxfDS+FCeDNcBdfCR+BW+Bx8Fb4JD8HP4CkEIGSEgeggFggLYSNhSAKSioiRlUgxUonUIk1IB9KNXEeGkAnkLQaHoWGYGAuMKyYAMx/DxSzGrMSUYqoxhzCtmC7MdcwwZhLzEUvFamDNsC7YQGwcNg2bjy3CVmLrsS3YC9ib2FHsaxwOx8AZ4ZxwAbh4XAZuGa4UtxvXjDuL68eN4KbweLwa3gzvhg/Dc/ASfBF+J/4I/gx+AD+Kf0MgE7QJtgQ/QgJBSFhLqCQcJpwmDBDGCDNEBaIB0YUYRuQRlxDLiHXEDmIfcZQ4Q1IkGZHcSNGkDNIaUhWpiXSBdJ/0kkwm65KdyRFkAXk1uYp8lHyJPEx+S1GimFLYlESKlLKZcpBylnKH8pJKpRpSPakJVAl1M7WBep76kPpGjiZnKRcox5NbJVcj1yo3IPdcnihvIO8lv0h+qXyl/HH5PvkJBaKCoQJbgaOwUqFG4YTCoMKUIk3RRjFMMVuxVPGw4mXFJ0p4JUMlXyWeUqHSAaXzSiM0hKZHY9O4tHW0OtoF2igdRzeiB9Iz6CX07+i99EllJWV75RjlAuUa5VPKQwyEYcgIZGQxyhjHGLcY71Q0VbxU+CqbVJpUBlSmVeeoeqryVYtVm1Vvqr5TY6r5qmWqbVVrU3ugjlE3VY9Qz1ffo35BfWIOfY7rHO6c4jnH5tzVgDVMNSI1lmkc0OjRmNLU0vTXFGnu1DyvOaHF0PLUytCq0DqtNa5N03bXFmhXaJ/RfspUZnoxs5hVzC7mpI6GToCOVGe/Tq/OjK6R7nzdtbrNug/0SHosvVS9Cr1OvUl9bf1Q/eX6jfp3DYgGLIN0gx0G3QbThkaGsYYbDNsMnxipGgUaLTVqNLpvTDX2MF5sXGt8wwRnwjLJNNltcs0UNnUwTTetMe0zg80czQRmu836zbHmzuZC81rzQQuKhZdFnkWjxbAlwzLEcq1lm+VzK32rBKutVt1WH60drLOs66zv2SjZBNmstemw+d3W1JZrW2N7w45q52e3yq7d7oW9mT3ffo/9bQeaQ6jDBodOhw+OTo5ixybHcSd9p2SnXU6DLDornFXKuuSMdfZ2XuV80vmti6OLxOWYy2+uFq6Zroddn8w1msufWzd3xE3XjeO2323Ineme7L7PfchDx4PjUevxyFPPk+dZ7znmZeKV4XXE67m3tbfYu8V7mu3CXsE+64P4+PsU+/T6KvnO9632fein65fm1+g36e/gv8z/bAA2IDhga8BgoGYgN7AhcDLIKWhFUFcwJTgquDr4UYhpiDikIxQODQrdFnp/nsE84by2MBAWGLYt7EG4Ufji8B8jcBHhETURjyNtIpdHdkfRopKiDke9jvaOLou+N994vnR+Z4x8TGJMQ8x0rE9seexQnFXcirir8erxgvj2BHxCTEJ9wtQC3wXbF4wmOiQWJd5aaLSwYOHlReqLshadSpJP4iQdT8YmxyYfTn7PCePUcqZSAlN2pUxy2dwd3Gc8T14Fb5zvxi/nj6W6pZanPklzS9uWNp7ukV6ZPiFgC6oFLzICMvZmTGeGZR7MnM2KzWrOJmQnZ58QKgkzhV05WjkFOf0iM1GRaGixy+LtiyfFweL6XCh3YW67hI7+TPVIjaXrpcN57nk1eW/yY/KPFygWCAt6lpgu2bRkbKnf0m+XYZZxl3Uu11m+ZvnwCq8V+1dCK1NWdq7SW1W4anS1/+pDa0hrMtf8tNZ6bfnaV+ti13UUahauLhxZ77++sUiuSFw0uMF1w96NmI2Cjb2b7Dbt3PSxmFd8pcS6pLLkfSm39Mo3Nt9UfTO7OXVzb5lj2Z4tuC3CLbe2emw9VK5YvrR8ZFvottYKZkVxxavtSdsvV9pX7t1B2iHdMVQVUtW+U3/nlp3vq9Orb9Z41zTv0ti1adf0bt7ugT2ee5r2au4t2ftun2Df7f3++1trDWsrD+AO5B14XBdT1/0t69uGevX6kvoPB4UHhw5FHupqcGpoOKxxuKwRbpQ2jh9JPHLtO5/v2pssmvY3M5pLjoKj0qNPv0/+/tax4GOdx1nHm34w+GFXC62luBVqXdI62ZbeNtQe395/IuhEZ4drR8uPlj8ePKlzsuaU8qmy06TThadnzyw9M3VWdHbiXNq5kc6kznvn487f6Iro6r0QfOHSRb+L57u9us9ccrt08rLL5RNXWFfarjpebe1x6Gn5yeGnll7H3tY+p772a87XOvrn9p8e8Bg4d93n+sUbgTeu3px3s//W/Fu3BxMHh27zbj+5k3Xnxd28uzP3Vt/H3i9+oPCg8qHGw9qfTX5uHnIcOjXsM9zzKOrRvRHuyLNfcn95P1r4mPq4ckx7rOGJ7ZOT437j154ueDr6TPRsZqLoV8Vfdz03fv7Db56/9UzGTY6+EL+Y/b30pdrLg6/sX3VOhU89fJ39ema6+I3am0NvWW+738W+G5vJf49/X/XB5EPHx+CP92ezZ2f/AAOY8/wRDtFgAAAACXBIWXMAAAsTAAALEwEAmpwYAAA+KElEQVR4Ae19PZTbRrZma2yd4xc9OvNGhjJnpjJnYmfeSOzsvUjsbCaSOtrdSOrwRWpFuxOJinwmEhVOJCrzRmpls5HgzJnpzOfYM97va4MSm80fACzUvVX4cA4aIFBV997vVn249QP00ZE2ISAEhIAQEAJCQAgIASEgBISAEBACQkAICAEhIASEgBAQAkJACAgBISAEhIAQEAJCQAgIASEgBISAEBACQkAICAEhIASEgBAQAkJACAgBISAEhIAQEAJCQAgIASEgBISAEBACQkAICAEhIASEgBAQAkJACAgBISAEhIAQsEDgloVQybxCYPDpp58Oefb7778PsF+dr2Nz69atS+wLXv/tt98ucbg6X0+n30JACNxEQAR3E5PQV66I7F//+tcIRPU1iKzAcSOZ1RWMMkh6JY7v/vSnP81FfHWRU7q+ISCC68DjiMxGKPZ+RWoHkVld9Uh6JDukfwXC41GbEOg9AiK4QFXgk08+GaOo+9h5HAQqtm0xC2ScYX/1z3/+k0dtQqCXCIjgDnN7gahpgiIeoMtY4OhuQ2RXQqkXiCanOPJcmxDoDQIiuHauLhCxPUbWSbvsZrmmIOIX6sKa4S/BkREQwTUDnMT2HFlGzbK5Sz0H0Z2L6Nz5RQoFRuBPgcvLtbgrYgO5vYeBowyMHKHr+roi6yIDe2SCENiIwCcbr+riBwQwxvYEO6O2bz5czOdkyDFERHP/BsKb52OWLBECfyCgLuqWmnD79u0hZiCfo/EPtyTJ6jInI0B2p+q2ZuXW3hujCG5DFWDUhsvfgdy+2HA7y0uwdQDDGM3dUjSXpYt7aZQiuOtuH2Bc6iUuja5f7tcvENwllpWcwOqyX5bL2twQEMFVHmWXFI36NX4yktGGd14RzJ2oy6qqkDICmkWF9xC1TUBub3EqcvtYm/kBAM60Tj5e0pkQSAuB3hMc3ht9CpdxllTbZgSeV8tJNt/VVSHgGIFeTzJUDffPjv3jRTUuJykQ0b3yopD0EAJ1EOgtwVXkNqkDktJcISCSU0VIDoFeEpzIrXU9Fcm1hk4ZLRDoHcGJ3A6uZiK5gyFUAbEQ6BXBgdwmAPYJdm2HITDEEpKfMSb3/WHFKLcQ6BaB3hAcyG0MKL/rFs7+lA6C+xYTDz9wUXB/rJalqSHQl4W+/BqI1rmFr50LkNzxr7/+KpILj61KDIBAL9bBoRHy9Sst4g1QYdaKGPCDBMJ2DRX9dINA9l3UaiEvu6faOkAAXdUv8AD5QmvkOgBXRR6MQNZdVP53KzQ8vl+qrXsETvQPbroHWRKaIZAzwQ0QWbxFhFE0g0SpWyKwAMHdQd5Fy/zKJgSCI5DtGByit8cit+D1ZVeB/NQU3+vVJgTcIJBlBFd9+oizptoiI4CHyrE+sRQZdInbikCWERw+faRIYqvLu72BMc/H3UpQ6UKgPgLZEVy1oHdUHwKlDIzACD6YBC5TxQmBVghk10XFxML7RMbeOBh/iYjnDfQtudODy+4dZ4D5G/f5maIC9+/h5xD7gNc9b9C3RBTNCQdtQsAUgawIroocuPDU60ZSm2F/1XZJRRWh3kcZY+yeye4UNk6hozYhYIZAbgTHNW8jMzS3CGZEgwjsvCI1klyIjbOWY5TtcrZYUVwIF6uMQxHIhuCcLupdoKE/Q3ftyaGO2pUf3fJHIFAO7ruK6KCTZlR3OU73Okcgm0kGEMmDztFqJmCOiO1u1+RGlSDjArI45jVrpmK3qeGTh91KUOlCYDcCuURw7K79tNvUeHfRsM9jENsmi6pozs0ymYp4y0266poQ6BqBLCI4NOpJ10A1KP/UityoI6M5HPhPm0ON9bHY1ht8M26dWRmFwIEIZBHBoRHxndPhgVgcmp2EwpnD2aEFhcjv5R9ZI5rVkpEQDlUZrRDIgeD4Mcv3rawPmAkke9fbhx+9kJxHbAK6XkU5RiD5LqqTLtCpN3Jjnat0OrOuf4hqR9Y6SH4/EUie4NA15aJXy22KBjy1VGCXbOoGjC52pYlwz9sMdwSTJcIDAsl3UdE9/d0KyGp86S7kc/zN9YZI1/QVNhDt5wDIPU6unSjlGiOQdAS3fF+zsdWBMoA0TlFUEo220jWQ5c2LwYNo1DyXcgiBwxBImuCwJGJ0mPkH5Z4vX4w/qJRImStd55HE3RCDaHd446IuCIGOEUia4DC29HXH+GwtHrLPt950egNRnNmEA/C65xQWqZUxAkkTnFVUALmXKUVvy/pbzarOl78jHxXBRQZc4o6OkiY4RAWFhRMh95mF3EAyXwQqp2kxA2Tgrk0IREMgWYKznGDAjOAsmocCC7LUHT5TFBfYnypuNwLJEhy6iVbRwByQLnbD6voudZ9ZaAifFRZyJbO/CKRMcEMLt6GRvrGQG1KmlQ0iuJBeVFl1EEiW4OoY10UazETOuyg3Zpmw4TKmPMkSAlYIJEtwGOj/0gI0zJ4mTw5WNmipiEWN7bfMZAkObiuMXLcwkhtSbA42hMRDZWWKQMoEF90lGEMqowvtTuC8u6JVshDwgYAIroEf0MUqGyRXUiEgBIwREMEZO0DihYAQ6A4BEVx32KpkISAEjBEQwTVzwLBZcr+ptSbNr2+kWTgERHDNsBw0S+43NcYTC7/aSTMhEAaBZAkODfQyDATNSuE/cmmWw2XqwkirhZFcie0pAskSHD52+bOFzyA3eYLD13VNbEC3+J2FzySzvwgkS3BWLkPkaPaRzVA2wwZ9fDIUmCrHNQLJEpzVO6GI4MauPVpDOatPvVsNK9SAREkyRSBZgkNjMRnPgdwi8XG4AjaYdFGtfJZp25VZNRBIluAs/9EyxpIe1MDWZRJEvhMrxVL8zLsVVpIbBoFkCY7mg2guw8DQrBTInSDHoFkuN6lNyBmYlW4QkCK9QSBpgkOXx4TgUDsGlpFQ29qJ2dMJu9ht8x+Sz9BXh6itvIkjkDTBISowW3aABvsYvk8qigNe1Nlkg+w3JoIltNcIJE1wiEjmht4b4J+omBFGU7sRcT6xit6oq7GvmsKl9JkgcCt1O9BwfoINZpEUiOOu5YRHHf9x1hdLQ97WSdtRmgX+m9fnHZWtYoXAVgSSjuAqq2ZbrYtwAw33JcSYEWwNEwfQ8XmNdF0mmXdZuMoWAtsQyIHgXm0zLsZ1dvsQRVoTyFZTodtT6DjcmiDODVMfxTFRUjwikHwXFaAOqm6qNb5TREqn1kqsyq+Id7J6zeK86p4uLGRLZr8RyCGCY8OZOXDjxFMk54XcKt+I3BxU0D6qkAPB0W8vnDhvSXIDS30ckRthUPfUsjL0XHYOXdQrF2I2873lMojVeoQ1X5cgmVOD2dUCOLx0MOa2hEOzp0skdDRB4FMTqd0IZRTnYl0aCQbLMl6DbM5xvOjG3OulQtYjyKX9ptHjqlbQZ7r6W+cbEeB6yiEeigPsw2UKYPclzovl7/WF0vD3nPf0fu8Soc3HbCI4mMfZzPebzbS7ymgOlfGsq4qIxjGCDBLbyM7KzZIxuXAHd8rNd3t5lXV0BPL6uiIzElqIB9IC5VySBFH2JXCf4zev9X7LieCOnI09XatcJDpUvmeofNNrN1r+gK0TZH2AfYTd4+ZuVtkCJPhpDLn34X8SWxFLB9Y3RnmQ+cJgqCSWmXvlZEVwsNZlFLfmBT5ZZ9jfVE/acu3+tp9XT3/cvIedjWawLaGH632O3pak5shPCxDdtI9klxvBuY7ithAPCe8Se4mn7g+raVAhv8TvAvsQu2tCg36rWx+jN07wTADCA/itwNHlhjpWQrFnGBue4si6l/V2K0PrUojiMoT9o0k9i95Y3zgGOvmIQBJnV1EdxoafQdsyCY1bKJnLOrhV0xkJna9e0Hk8BBC9XEBaGU+imSQS23Ps76HBxEyL9oI5a/uI+tMOFJNSD6G21TlGcDSeH6R867mrUNtDaSXkurc7UDnnrs/VZ7JIDmm5Zq+2C9jErisfUNn475O9ZqeZ4BcQ3A9Q/T/SVD9Zrf+CRvJ9strvURx16hF2fj1mtCdpirc/Q0DAmd7/YNuBH/+RohHrOucawV3ZidCblXG8brR+d4LAHNHbcScl2xd61R2FGiN7VaJpMIM/TyEt6Wgua4KDc/ilEY6RDKJVi34KYtf0LkwvczOfURuiGk4i9LEOcSLipKtF6jHqSo6TDKu48enDp5C2bhEgxmW3IqKXzocj3+t9Csl9JDcCzomI13hbhhgkueU6BvfBGRxLQEVlBf3mw0WdBEMABHCB6I1LDbLZqn/sTXIbZWPUYYZ8g0iWrwTyyzC/HFZU3Ny5d1E/oAmSe40fow8XdHIwAqjwl5h1Y9c0m616t5djt32N2rb6Ev4u0Y5OUnr1qzcExwqLp9BrPJWHWz2oG00QyG5JCBrvBABwTZi27Qgs0I6OUyG53MfgVt20QAXmWNFi9aLOWyFwVclzwlLkVrseDBC1c1xuVDuHYcI+RXBXMFf/Qo/dVXVBWlY8PMHd/6vEJqaJ3JqgdS3tCcZfZ9euOPvRpwjuCnqG1gyx8UORXLvKaPGl4naa1sglcqsB0vYkz6sJme0pjO/0juCIdzV+cGaMfYriT/HEnqao+CadRW6bUGl07aq76pnketdFXXWfuquraOw8Z7R7lhO5VbOlHKrQdjgCbiecek1w9KtIbm/tTmrWbK818nkdiBqnqZYMuRv66WUXddV77K4iMrlLB61e1/nRETFJaUlATZ8N4G8uBRnUTK9kNRDg8it0+d298ZD9mww1fMMk/FTM39CYv8D5sGae3JPNsBzgBHuZk6FohP8bjfHbnGxyZMsQbYhfInETLPS+i7peOaqB5z6/f8jI7QzEdrGOTeq/NakQxYOuhjREcBt8znE5dmP69tYDn7wggayWgay4l588eovf6pqugNLFKesRHpAuXuFTF3WDh+GcH+Gkv4LguLHL+tmGZFldgr38J9X/SduzMqwyBuTG90u/ytE2bzahzXzBhoM6NbfWTRHcfg/wyc8u63h/0iRT8EOVp9C8TFL7GkrDf/QdCU5bPAS4dIRRXBlP5E1JvZ9FvQnJjSslHHWCB9Ix7sxv3E30ArsRtAm20a4yUTPqqM1vmvEBpS0uAvyenjnuIriaTudXTUkGqRMdGnsJk085RpLyl1pruu0Is3r8Im9RN73SBUVgbP1S/q2g5vSosGol/EOYnErXdY6Gft4HUluphowi3uP3YOWaTuMiYPq/OkRwhzvb7X80Z7SGCGYGUnsGM8vDTU2rBJAbF/ROvGtNP+HhM8fxHfx1CX9dQufFut6c3Ucavv/J/351D/dH62k8/oaux1YPVhFcwBpRVcAHqIBjOLUIWHTtopakhuMbdKlntTPml5DR20+OzeI/dJlif3HIxyNh4xg2PsDOo9fNLIoTwXVUJaq1dKtP2kFHohYol0//N6js80MaS0f6mRSLSOgJyOOxifAdQvkAgl7n1cOHvgu1cbaf9k5CFRiyHNhsEsWJ4EJ6cUtZXTY2NBiuX3uyRXRvL1fRW1cPlVa4Vr66QOaQxLaui9dlTTOQ+sm6sl3/1ixq1wir/OgIgNwmEOqG3EBs/GjB3epB1CW5EeurZU04kky6lkV5dbcxEhZ1E4dKJ4ILhaTKcYMACIWz2162KYgt+ife2QXG7uorOVh5EN0vIjgvzUB6hEKgwHjPMFRhB5bDLyCfHljGIdlLkOsxCpgeUkiovNCFUVzUTQQXFW4J6xoBdAWjN6ItNpHcplvuxbzMV6ZIsua64MFTcPItpvEiuJhoS1YMBLhkwnRDF9nd590rkpuZAgPhwCaqf0Rw1h6X/JAIeOiecsztIqRRocoiyXHCI1R5bcqJ3U0VwbXxkvK4RMC6e0ryAImcuQTnD6UWmGFmd3VhpWPsbqoIzsrTkhscATSee8ELbVCgNXnUUZULwUHE53XSdpUGD4FRV2WvlyuCW0dEv1NGYGSlPMj1IpW3SNiFtuyqxnwQieCsWoTkBkWgmp0bBC20fmELvExuGhXVV/WPlOjOm3WlQa7Dpvq2TS+Ca4uc8rlCAFFJtEazbjga7DNcMxvXWtenzu/q6x7zOmlDp+E4HMrk3vkmguscYgmIgQBIpoghZ5MMkOt00/UErr2w0hFvNRQxZIvgYqAsGZ0jEHNcZ82YGX6Xa9eS+InB/ikUNYk88VAYxQBJBBcDZcnoHAHDCO5V58Z1K4AEHX3DA+nLGEJFcDFQlozOEajGdTqXsy4AUZAJQazrccBvK4IuDtC5dlYRXG2olNAxAoWFbogaLyHXpIsXyl4Q9DxUWU3KAXaDJunbphXBtUVO+dwgEGvAet1gLLWYr19L8PeiIuqoqiPiHsYQKIKLgbJkZIkABsp/yMEwkE2Zgx2bbBDBbUJF14RADQQQwbGLmvyGCO5d8kZsMUAEtwUYXU4HgVhLDtJBRJouERDBLZHQUQgIgdgIdD7RIIKL7VLJEwJCYImACG6JhI5CQAhkh0DZtUWK4LpGWOV3jkDOs4Cdg5e5ABFc5g7ug3lWBIfZxyIHfIHf1znYsckGEdwmVHRNCNRAIBeCy8WOTS4TwW1CRdeEQA0EEPmYfiK9hoq1ksCOKG8VrCoDUi1Xf3d1LoLrCtmP5Q5QgTr7ckJVduezUR/N8XdWfbzRQrGRhdCQMvGam4kNqLdlSDu2lfXpthu63g4BVhgsPB3CgffwlOKxaFdS7VwT/LOTCZ+IkMV/KPKO70gaNvraiueQENiPE/+iyH0jPyxiyL0VQ0jmMgoQypiEBjtH2D1FUzMQ3hsQ7gx6ldiz3UA0r2HcyMDAKQju1EBuEJGou+8jPIRv6Ip6eY56+eTGjcAXRHDtAL0iNWR9gMoxbFdE3FyoUJeQ+CJXsgPBPYd9k7ioXklbgODu4GxhIPsgkextoF7wwWCxncSIfDUGV9+1A3YFGSlg51PvaSrkRhOpK3Wm7nhqv6UtuDzAnsWGhmr1wjjrxThFEIHZAyu9UQfLGLIVwe1HucCT7iEqwwRJsyGEymxGHTM8Sc9xLKtrSR4soxHUjRKRMaO4lLaCDzsrhVHnonCPIrjtHmYFeM5KgAr8CMlyIzdaTpsYlb6nrSQJXkxxs5xUQWTMIQvWkWQ2+PupobLzWLJFcDeRJrG9ZKPHrcnN29le4Uwsu9+vEya6uZV3QHKPIbuwkt9EbuXfcZM8IdOinr0JWd6uskRwH9H5ELHhkpnzP6pjdnY18Ayiew4NCjMtWgiO2XA2qMexOMuoaINKGy8N0J2mb802RLvzWMI/iSXIsxwA/gQ7nf6NZz0j6zZktwuRyS0QxyVk/xJZfmNxiEz4/wX+3DhjuAxfAa6focP34YoMWxJI+DvoaFnPOev8l7BWbS+t1xEcQ3U0Ys6Isnsx2A5Tf+8QG2D0NoVu66+//sqFzqWlt4DXU69YwY9PgI1172QW0z99JbgBKuFTNIbXqJBFTMBTlEWMiBWe/i+hv9cHwZVPPfgTWL28ffv20JOv4bsJsOGD3HqLNv5GQ29ZWxtbPp+uHIPw0BBi2x5I3gLYnVjOWq7bUXWlvUXhC+h1zKhyXd/Yv0lukMkhGOst+qLoXkVwDNEVtR1cxwfEkBHwwSUdWAAfVvDp1aJrFOUtsuRgPqPeyYFmHpSddR4FeCA32jHDvuBJrK0vERxnuNi9GsUCtg9yQHSXaMTHsDVqpYU8zniTYMcp4IyI9wIR71lkXVnnSWxuMAIOx7Ej/+wJjmMhmLV5qS5pZ80rZldsgIiEM7vsjia18WEA3c9iNPAqauQDYOAFJNhv8rZH1l1UOprdBJFbp9WcXbHlu62dCaIvsbM7mhy5ERToPWTXHjawJ1HwWuit6rK/RbmM3NyQG+2E/ec8xt6yjeDYIAAmHa0tEgJowGcgu4uQ4thoUS5JbRSyXAdlzaHDM/QuZgfqcvWyPzB6SBI9sKyusnNy4fOuCt9VbpYExwFwOPzRLsN1rzMEQn0fjeNsJLZJZ5r6KHgBNebYX6ELe1ln1rUadhmB0O4h3xi76w1tMcq33zaBkB3BoVEwaptsMlbXoiFwEMlx5g+N9yG0HUTT2JEgEMIl7CfxXdtwfeA4Srum68qP6EtDVmQfZfXJcpHbqmtNzzledoRuyWkTLZBnjEbM7+wVTfLllnYbieF6cqYyeoPSN8g6liHpIbYFGZHbFmBsL9eK5NjlwtgdZ/1GtupKekgEQG4mM6erNmQxiypyW3Wpq3NGchwy2LZdvV7FWVgkGG1LpOtpIoChhlNrzT+xVuBQ+dV4zaNDy1H+zhAYguS4lOTvqxLgt0fYX+LaaPW6zrNBYIYhiv+ytibpLioazgQA7ooQrPGV/I8InKLCT7nsA2Snd4E/4pLjmenEwiqgyRJcNW7Dro22dBCYQdVxOupK05YIRPmPWXV0S5XguLjxPQwc1DFSaYSAEIiGQK2JpVjaJElwILfXAGgUCyTJEQJCYD8CmDW1+vjCVuWSm0XlpAKsGW21SDeEgBCwQGCBwOMUghcWwrfJTCqCq95LZPSmTQgIAUcIYBFy9E8h1TE/pQiOSw00Y1rHq0ojBOIicBrjM1BtTEqG4BC9Pe77KzxtHKw8WxHgYDi/cDHdmkI39iKAcbczLv/Zm9AoQRJdVHVNjWpHnmLnGMc9W/1qB36/3fb+Z54QBLPK1YzpJquSIDhUQH7osNhkQOLX5tQfT8E3u+yA7feq+6Nd6XRvOwJ8LxI4MtrgWrz1jcuO+C7sZP2Gfm9GAFhafIZ9szI7rrr/mghnTTMhN84uzUlmaEzz1Qhih39u3Fr7FtgICbQW8AZK1y4sgPkzjN9e4Cp9sGnjyvtT+IX3JpsS6No1BDjmNr12xekP7xEcP3rItxVSbcRsUDPsr7ZEDgdXC+AzRiH3sfM4OLjAvApgF+ocJpV1zcJwiD6Wuhusq1fudifxc9c1waHxctZ04geuepqwO4SUjBqmOC6wx9j4D1kmEMRPVxc49nmbA4PztjN7qHcTgKcZ++s1aIH65eL/vF5Xa/cvzwTH6O39bvV93a3Gec4RNUwtNWMDhS59nHXmwyTIrF71rvNrlKeoGEMrqNMnwCLWwzpY83G7TASN9HEwK7sviOM8/O78XWtyo6nUAbrcoU74mVylbOMu2gq774TCn2OkLA+6zNrok0ueCtdj2JNkPfIawaUUvfHpdooKUDqt1MSS3a2RU/0OVYvfHeM/VS4PLWhbfnTNlv+LdbAtTW7XQWwl7Ha7gLcu3i4juFSit5WnW1kXcIN0JQjgGLqSBLLZ2AAxznYM29h1Krs0jDOwkHMXMuZdyvFSNus1eyNtxzC92EE9PEZwKURvCzSuk9QqQCbjSsvhgAuLhoSHb87/GMd7b6Sxy91FcNVMYGNDYmXA0+2Ss0mpkRvxqcaV7tKGWHiFlIOHCiOpO4yoQpbbpCzIn1Xjm4yIF03yek3LaBi6ncA2jrXxPJvNXQSHJ+RPQHfgEWESAyo3K0HqFZtLSl6DMIYecd6gk9fIgjg+gr4PgGWxQW/Xlypii72cKSomrggO5DaB9RwQd7dlRG5LbN2THBsgiIPLPmZLpb0eWXehL9cgpvDQmEHPZyn2Qpr63xvBvYQB46ZGdJ0+Q3JbQuaW5Ehu7AouFU3lyHFO6P4A+wQ6D7zoTTyhC6M1Pix43ovNE8F5nVxYcMyt7bujCdQit//fguNtwK9MAMONKnJCApHSPZAKj8XGRB1eBKldovhX0GOWcf3diaAbguNYBirB053aGtyETklOKDSBqppdfdskT4y0aKBnIIeLGLIiyOADfAQ592DXEPVq2IFMvqJ2ifLf4OEwR/mLDmQkVaQngnP3TS5UFK4HepKUR1sq6/EBA/w5qcP1Z1luVXeWX6oe0UCQ09c4DHi+Z+NSmXdMA7/NMZZW4pS7tjUEvBCcu+5p7o1rrR5c/USEwXcvR5vuWV1LvZtqhZvk/oGAi3VwVejuyifQ6dSVQhGUAZnQZlfdGkQo4wimS0SmCLggOGB73xO+7Jr2dFC2hO3PPPkC3bZ7nvSRLmkh4KKLimjpJ8BWZ+whBrqLqlvkKpKJYfhSBqImV5+Ihz9c1NMlPjqmg4B5BMeBVsDlhdyOqgimt+TGqouo6dxTFeY/HfKkj3RJBwFzgsPT2VPlXWS0LKF1LYRPpiD6snUBgTPCJ3wIahMCjREwJ7hqaryx4l1kUPR2DVU3Y3Eah7vmF/1ogID52AbGe9ysf6vG3soG+OWclG84cGzUfGM0iSjujrkiUiA5BDxEcF66HzN4r0zOg90pzHHIaXfF1y8ZEVyB1IP6OZRSCPyBgCnBORs8fqVKcQMBN5igrnh5EN4ASRf8ImBKcOh6FF6gQfeUEZy2FQQ8YeKprqxApFPnCIjg/nDQHAd2ybTdRMAF8YvgbjpGV/YjYEpwGFv5cr+K3adA43nTvZQ0JXjBxtNse5qe7KfWpgQHyAsPsPOLDB708KgDsLl0otfAiR5SIyEErAnOBVT43IyXRuwCj1UlvHzWWl3UVa/ovC4Ct+om7CId1ln93kW5Dcvku6efN8zTq+Re3k2Fn0zra6+cnomxiuCOjhS97anMGP8q9yTRbSHgEgERnEu3uFOqdKeRFBICNRDoPcEhOlEEt6eiYPzrhz1JYt3WREMspDOR03uCwzuOP2fiy+zN0NsM2bs4uIGWBFcEt0YFCgEhIARWELAkuBU1dCoEhIAQCI+AJcGV4c1RiUJACAiBjwhYEtxHLQzPsMbr3w3FS3QDBLwsOm6gspIaI9B7gsMM4dDYB+7Fe3ln2D1QUtAdAr0nOHce8alQ4VMtaSUEdiMggnP2n9x3u8vmrt4DtcFdUg9HwJrg5oebEKSEIkgpmRaCLqo5PiBZLcjOtH51aZY1wXVpW+2y8dK/xuG2oOXls/Ig2cUWFXVZCGxFwJrgyq2aRbyhiYbtYONNj9H2u1HviOCiwp2HMFOCA7F4ecfxfh7uDG8FIqd74UttXiLqyrvmuZSj7wiYEhwaj4txFejBLuqg75Vhg/3EZLThevRL8FEZXagEJo+ANcEtvCCIcbixF1286AFMRl50EcF58URaepgSnLOV6eqm3qy7D25esrnirK7YgCCpjREwJThq62j6nxFcQZ20XSHA7qmLqBZ1pJRPhEAbBMwJzss4HMHDe6mTNiDmmAdYPPJil6c64gUT6VEPAXOC8zQ7hob0ELAxctF2dOSme4o68kYOEQJtEDAnOAxkz9so3lGegafIpSMb9xYLn0xA9sXehJESOKsjkayWmBAI3ApRyKFloAL/hDK8RE78N4J3oM/iULsSzU+Sf+uI4PRvHROtSB7UNo/gKhBmHsCodBjg9aTHjvSJqgojWEfkRtvnUQGQsKwQ8EJwrsZYMObz6Pbt28OsPF3PmALk5orcNf5Wz3FKtRkBF11UqDaouqmbtTS4ioZ1ifcw7xqINhMJH7yG8JGZAhsEV8MF5YZbuiQE9iLw6d4UcRIsSCiIHtxETdQF3bUnILkncSCwlUJbocHIVovr0lkncKW8fjWbXxwKGcLGgjvq29ewbFBZx3awPP9gMNKVSFdWF0r8/oG/uWsh9AeYrp14ieC4Bo1jP0+vaefgB3Q6zr3ysDsOIn/rAO5rKqABn0Gvi2sX0/1RoI6PUZ++hl0jHIvQpqBcBgmXKPcNIt85jiX2Xm9uCA5ecNdNrWrGAhXz+Ndff2XFyXEr0DUlud2IGKyNTb17ClzHwPB+V4S2zz+QW6LuzkB6LzKuvzth8ERwR6gQL6EtK4WrjU9GRBLHUGrhSrHDleGSkNdoAMPDiwpbAhsnML8TttTuS6ui4YeQxHo86F5iPQlLskNv5BlylPVypZ/KyyzqEslXyxNPRxIAiQA6uamwAfBxS260DZizS/feyxeF9+DN3seE+lZd/QnSu6orxBMk9wh6vsf+OhFc98C+//at/UnipmAloTPiSq0nLaNIzjW5bfDGHN3VU1wvN9yzvEQcOXbMiM0VodUBhVEddD8HttM66VNM4y2CI4YvvAKJyrCM5AqvOtbQKzVyo0kjRh6IOp7i3AOREMMn1Al1gusGPehEnBpt0L1AhucMKnKN6G41QiROYq+TDavWL1A5TlKbXa3Gh1Lvai/giDOrqAOkNoF8L0QLVYJuc9Tr89Tq9S4EPtl10+jeL3iiFJA9NJJfR+xnSDRBZbiFMH9eJ4N1GnaloMNL7NQ95Y36jwH9GGTz/zDmVcYwhg8HyPwOsohj6hhug6zAjQlwHQDX/4vzX7YlTOW6xwiO2BUM/xMB0ev40BI+YvkcP0bLC5kdZ4jmzmBT2ZVd7I6C3NgV7c3G8TnYfZp6NOcxgmMlWiQQxS0rO2f7ONDMaO4SF7089ThO9D+xk9y+Wiqb4fGrDvHnw+ElXDvJELedJsHmARIso7m/70zs+KbXCI6QpRTFXbnYy6wUGuUEujxGJS2uFOvPnwVMDTI+BwzHKIsPBzb0Xm98cKPLegIQytSA8ExwR1XXapIaqCQ66PwCleICRza6GBsjtkcQ9KCHxHYNXzZIYHHWtntVRYScSND2EYEkJ9ZcExyw5Yzqex4/4pzc2RQav8I40awLzatI4z7KnnRRfuJlToH7OWwo69qR6kO1rn0B0p1azWC30d07wR3haZrTAO8M0cUb2HTZNrrgeiVEhpzRuweHj9s4vWd5+KWaZzWiaT5M2SUVpnsqCPBM5iMI7gmOWIMQ+Ant4R7ck7uNilLCLu4c4/h5kwG49yWuLz+pU2xKo2v7Eaiw3rZqn9371znWsf3ItE7B6Pi0de5IGZMgOEYtqKCvI2EiMXkjMAeRrS5mFbm197d7kvO6TOQa5IhuSnQfBrj4zbUb+iEEmiNQIMsEERuj4neoV9+B8FSvmuPIHEO2S7RPt8tIkojgKuz5pPX0357aVQnlEgL5IeB24iElgjvy+uXZ/OqrLBICjRE46WqlQGNNVjIk0UVd6otQ+Ed0J7iNltd0FAJCwAUC32Ks/O9soy60qZRIKoJbAod+PyccRsvfOgoBIWCPAMY0uRrgGJos7LX5QwOP34Pbiw1C4RNO++9NqARCQAhEQwA9K046uHoDJEmCg8cWAJLvxrl5UkSrRQkL4hM+YfWlej0E+IL+uF7S7lOlSnBH1X8J4mdytKWBwCm6L3fxlD9W9J2Gww7Qkm+EDA7IHyxrUpMM61YzIsDSkR9w3c0TY11H/T46gp/OQW4XxALHEr+fgeh+xs71Z7l+PLLPrv8M7fIr+Plv1iAkTXAEryK5AqdD/tbmDoEpSO1GpA2/fY/9r2gIX0Bj+c6d2w5W6Ct0Vd/wgXZwSQcUkOQs6iZ7ASbD4smme7pmhkCtV3mq9Y0cnB6ZaSrBwRHAA8z8f9smH8EtvQIwXyEaKPBb0cASFNtjLXKjinjK/wj/vYD/3uH4DbquA1vVJT0EAvQjhyLg0+9DlNemjGwiuKXxiuSWSJgea5PbJi1BdPxE1kPc6yvRzVdwWSxxAFGQMFJ7gC+wrOsObKAd0bfsCI4IYkX1U1SGR9HRlEAicBC5rUDIT9Y/xu/JyrXsTlFP+bmsOQx7AyLgscS+c6u69CQ6fuh0hH2A3e0GGznJ9MRCwSwJjkCicUxw4LictkgIdFGRq09lkehGkcyIJWYKYnvR9sOnq0pWdf0Bro1Wrzs6ZxT3uYU+2YzBrYOHxrZcQjLCPS1FWAco/G+uc7sIXSxn4eBLjs/9gCO/ZOw6WqlhPyNcvonzgrbVSL83Ces6ywPRvUHiotr35ouYgMtG6L/LiDKvRGUbwS2BZDiPCsV//VYsr+kYFIEFKu9xtfA6aMEbCuMnsx7Bl4zoktrYuEFApzFwqiI6zkq7eRjAfpMZ1ewJrmoFAzj9Jc5H1W8dAiDARoso5BhFLQIU16QIjs+xAY+bZLJKC5wsxqDc1Xk8mI5DdMmb+DHbLuoaCL+gkr0AwNxGa/f0swUCwPGCXS1k/aVF9kOz8B/J/A0k9wZHdlu5WNjjtoBu/x04TQ2Uc1nn4a9XMbHoSwT3AVMOWiPqeI6KV3y4qJMmCLDRnsR+Eu9S0GOXDPrG7LrvgsfThFv0yYa+RHAfKsBy0BqNghMP33y4oZM6CMwQjRwDw3/USRwrDaICDrL/1ZFP3ZAbfUB8OMiPU+suPScbuJg7Wv3pXQS32ugUza2isf0cFbJExTz1FLVt0xYk9xPumQ6uA6u7MSYTtmGw7Tr04gQNxy4tt1DrJGvZ8KdaqTJNxAaLaOQOGvA5TIw9UJ4Cqhzr4gD53RTIjTPmANWU3IDXmUdyY2WDHy9wmPLccBvHlN1rglsCDcc/QdfrDn5Pl9d0vHoj4S6xARaLFPCAD6M2ng2YzCoS2XDLxyVgdMaI3FCbAXtOseSL4D4izQFQ/vuzvhMduxB3iAWgKT/C4/8M3a97hlpe1R9D+XVFc3yQvjXb8BAYxRIugruJdNlTokuW2FZcGK3hrMi8Ok1pmKMabpit2xDrd8wH0a1YRiUsp8ATbwKnPIQNg4Tt2KQ6x9ie4Yk6xc1yU4JUrlXvrL620JddPmDIyD+ljYul3xspHG25iCK4/R5m5eUYHV8WZmhv9uTbr2rtFLSB3fHPaRvOS+xJb7BjaGUAHn7nVrIPkFsi7/SA/IdkHVQTQoeUUSuvIrhaMN1INKiiOo75jG/c9XlhjkjjFYiA5Fb6VLG9VohGniP3pH0JrXMyGmH0tmhdglFGy6gXJp8AN9bFTrdPOy0938IXIIoLmMed7/yNcbwHAhnhaV7g3Hxjtwm6zKEIvzPGirQwV6pbBYpui99aerLYciwOD2rWk+jYoX4OgSix63RTBBceXo5tkOi+rpw4Ci9iY4lzyOSK/ncgtDlSlBtTZXoRmP9uZFqUSKQr2xDFWX0cdoZ6yneZO91EcJ3C+0fheEo+Afk87kIUCM3iSxVdmHJQmVYEh0aadBsy7KbOgd3xQU6vkVmTDDVAUhLfCLCRGmk4N5IbTKzVGyp4MBfBjNhRkAhuBzi6JQR2IYBG+mbX/YTuzWPrGmvcTwQX27OSlw0CaKRlJsbkYscNd4jgbkCiC6khEKu7s45LLgQH/H5Yty2X3yK4XDzZYzusCK7HkCdjugguGVdJUSEgBJoiIIJripjSCwEhkAwCIrhkXCVFhYAQaIqACK4pYkrvDgEspJ67U0oKuUBABOfCDVIiRQQsv2ASEi/MBn8dsjxPZYngPHlDuiSFACLHL5NSeIuyOc9Ci+C2OF2X00EArxuVFtoightZyA0tExEcv+wRdQOpXsYQKIKLgbJkdI1A2bWATeVXxDDYdC+Va9WnvqKrC+wWMYSK4GKgLBmdI4CIoOxcyAYBVgSxQZVWl0A091plPDAT5CqCOxBDZe8RAmgwpZG5943kBhGLB8MkSEENC0H3/ueGWVolVwTXCjZl8oYAGqrVlz3GwKLwhkcdfaro06SLHWtpjwiuTk1QGvcIGEZwR/geHf/jWoqbmd6YGFIXNcUaI51tEKg+024ivOrmmURCbQ2uPhI6apv/kHzVeOnikDLq5lUEVxcppfOOQAkFozSaDUDwHw893XDd7SWQTCef0K9jcKwJBuoigqvjEaVJBYG5oaITw0+nNzIb41+PkGHUKFPAxDHHS0VwAR2noswReGWpAWYGn0O+965qgQjKLHqjf4DTLJafRHCxkJaczhGwHIejcSAO/stIz11V/sPyl1DVjISr8beSeMXYRHAxUJaMWAiUaECXsYRtkTMBiTzZcs/0MskXJDy0VALYRIveaKcIztLbkt0FAi+6KLRJmewCgkwmTfJ0nRb6sPtsrhOwieofEVzXNUvlR0Ug5vjOHsOeeyE5L+TG7umvv/4aNcIWwe2ppbqdHAIlNJ470Zokx8jJauPyldcQPrFSYE1u1OiNskVwax7QzywQiN6QdqDGMbm3uF/sSBP8FpesgNzeo+BR8MJbFojoetoya+tsIrjW0CmjVwQwmzqFbgsv+nFgH2Tztpp8GHSsF2dyn6M7yMita1lNTJkhcdkkQ4i0n4QoRGXcROD27dtDXP0PVOr/geO3qORdVbYCMkYo/7/hqf0LnpI/3tSmf1eAx79hHzmy/DPqg5114meOR0G3XwLqV8D/j1H+/0GZ3wQsN0hR0OsvqJtlkMIaFHKrQVol3YMAnpxjOPIeHMljsSd5J7fZcCB7jsJfIZLhU7OvG8ef2EXr6sFyKK4L+GmK/cUBA++0cQRFHmAfH6pQh/nnqIvHHZa/tWgR3FZoat/gk/OhJant0PSqEeHLDc+QptyRLstb7BKCQB57N275UMLxHXS+rD7BfsNfHFdDmgH2Iey6B7tG3m2jftD1GDbNLXQVwbVEvapsbDyjlkXEzjaHwGc9i+q8R3Gx64CFPLPojcZqkqGhy9El4KzYezxFXyPrqGF2y+TU9SV1pw0478O2gJ8YvWozQgDR27mR6CuxiuBqos+IDd3Q53BYUTOL62Ro+ByrO+tBRMf3L9/m4jfXleqmcjPUr5Obl+NdEcHtx/pq2h3JRvuTJpliDgI4O2Cg273RiFg5AM+XzLXFQ2ABcrsDcYt4Im9K0jKRm5h8uIKG/wQ7G0bx4WJ+JwWiuT8jwrmF4zw/846OYNc/4MchbPsqR/s82gTM/5eH+qQIbkPt4Bo2PH3YHWWj6M2GCnmJaOc002hOEw7xarLpxMKqmZpkWEUD53jSP8JYG8dsekVuhIE203ZisAZLDj8XMOI0B0Oc28CuqRuc1UX9WFv4hP8OjTzHxv3RyhpnwOBbdukQ0f0dyUOutq8hvbsksIdd1QISevfw6g7VGyX/J3D+/sZVowvqov4BfIGK/7KPUduuepdpl5Wzqq/l612eb3cPmF5gQe9Zu9zd5Oo9wXG8Dd0yrmkbdANx8qUuQAjHmY3LcWacX/iQzwNVTz4M0Y7uBiouWDG9HoOr1raJ3HZXpwEfACCEye5kSd0tSdpJaexY2YrcXOLZ2zG4qsFyCchnjuuOF9WI0Rik8AMrsxelDtEDpP0j7aFdh5SjvEcLtKUT4Fl6xKKXBMduKRrqd3CIyK1ZrcyK5EjWIrlmFWAttfvhi96NwWnMba2KtviJwWSzr0O0UHdvliqaf743oRKsIuCe3Khsr8bgRG6r9bP9OSKfl8SyfQm+cmLd1hQanfrSyrU2SZAbEexTBDdAd0QvXYdrNy7eNQxnztGRIrlaaCZDbrSmNwRXkVs2UUetqthxIo5hYXD5GGIWHYuKVryi/O1Qp+jvXnRRsRzkqRZ2bq+4be8QU0Q9T9vm95iP6/3QZb3LxuxRP0OdZik+zLKfRUUDHKNSXBhWjNxFDzkTmRkh8EOZf4NdX8B5w9wduM8+YHEGcuMbCsm9tpd7F1VfkNhXe8Pc53gcV7GXYYrzU0r1gOQM68CPVnE0AbGVsP8k5bdYsu6iwjlcyNu7ihmn+l+TwgdJlsssQNyzirzn1yzO/AffK0XUdjdlcqOLsiW46sk7yrweejJvhC7dI08KBdSlBMlxMuUE+yJgue6KYtRWrXNklzR5W3PtoqpratN0sls6sgFG1i1OrEw23Ev5EscdzxG1XaRsxLruWUZwmDV9DEMH68bqd+cILBt/54IMBZDETxGtcsxxbqhHKNFXxAab7uRGbgQoxwiOn8J5H8r7Kqc5AmwsyFU2z5lejmrd3ENoPklMexLbs4rUku+KbsM+O4KrBruTqWyoZJcY82Ble7PJSbh3D/cKHItN951ec/NN/oj48KOpE/iJZOe291DVt+U/AM+W2JZ+z43gUojeWKlm2F8h0pnjWLeSsfs3Qvr72MfYB9jdbmjoWb2Q3wRo+In+ceMnkBq/fzeDT16kPivaxA9MmxXBOY/e5sB7+eQk9gdtVSNitDA6qKDuMnN5BWcde73RTyCWe+gK8ljEAoORGkht3kdSW8U4J4LzGr2xkp3jW/XzVeBDnfOrxKjMnFQZhSozVDl9GouriRnr6BD+GpL0kGeI/eBInBEayitxfIPjZcOeQU3V00yWDcHhafUEzmVD97JdzU7FmplCw5nA8KfYD24wKCPIBn+4+yckQQwLXAgfUiwSdaUW4QHXK0LDcdG3LmdT6LMhODTwn2C8i8aNJ+kl9LH4B8oc6Pb038G4pOLzppVS6YVAKASyWAcHMhkDEBfkBj2uvrpg9GQtEQVwfdYUu4eNEyMTD4pIh34ikAXBwXUPnLhvWg2sLyz1gQ6nkD+11GFFNmcTtQkBEwRy6KIySmD31HojuZFY3GzA5TmUmVgrVHVTTUnfGgPJt0Eg+Qiu6p7aoPdRKpdEuCI3quYlknPio4/e0llvEEie4OApTrebbZxQ8EhuS0Cg2xl1XP42OqqbagR838Um30WtuqdmEwyYtXT/zSwH/2dAs6l9Zxoj+5OO4Kp/XWdGboiMzo1mSxtVF+oIXZ81yhQ28aDyVdhSVZoQ2INA0gSH7tdoj31d3l7EWsQbwgjo+gQkV4Yoq00Zxr5qo7LyZIBA0gSHldxfG/rgDLKTmhkEXudWeEG26Vipld2Sa4tA0mNwGP/iP3IeGkCY7JgSMHsPzIrYmDF6RBR5J7Zcyes3AqlHcBbkdgSCmCZcbV5Y6G5BqhZ2SqYvBJIlOMtBazRWE5IIUXUQRU1DlNOmjOVL5W3yKo8QaINAsgSHLo/J7Cm7WinMnO6oDPyszuWO+53dsvJZZwapYPcIJEtwiERMuqcYw5q59+oeBWHDfE+STm6D4Ex81okxKjQJBJIlOKA7sEAYjfSNhdyQMnOwISQeKitfBJIlOEQh/27hFsgtLeSGlIk1aZchy6tbFsYuLZf11FVT6TJCIFmCs+ruJD7+tqy65fIk8tEk6o5so8Q5QiBZgjPCcGEkN7hYPCDK4IWqQCHgDAERXDOHmHTtmqlYLzW6i2W9lEolBNJFQASXru+kuRAQAnsQEMHtAUi3hYAQSBcBEVwD32HcqmiQXEmFgBAwRkAE18ABmb1POWpgupIKgSQRSJngSiPEc1jqkIMNRu6X2JQQSJbg0F38wQJovDA+tJAbUqaVDfBZ8m+BhPSDyuoegWQJrntoNkvAO7CjzXfSuWr1Hm86CEnTXBBIluAwHmayJg1yk/8yrZUNkFvm0nBkRxoIpExwCyOIR5Cb8hgWdR9bYCeCs0C93zKTJbjffvttbuW6lP+RsaXu8Nmllc8kt58IJEtwdJfV+5SQ+zDh6vLASPcF5HLXJgSiIZA0waHLYxIRQO4wxc9vVzqPotWu64JMfHVdBf3qGwJJExwiqXdWDoPsx1ay28q11BmytUSkreOUrzUCSROc1ae3K7RHluNZTT1uHL3xP5EpgmvqNKU/GIFbB5dgXABI5ndDFfj/Ue9AvvexpQEeBvwfsoUVVsDp8wRwsoJHcjtCIOkIrsJk3hE2dYodgGCf10lomQY6PrUkN3RPGb15fwhYukiyO0IgeYJD43nVETZ1ix0jOnpUN3HsdCC3CWRyt9xeWAqX7P4ikHwXFa4r0IjfO3DhKbphUwd6fFABuIzx4+WHC0YneADczeR/WRghKLFtEciB4I6q8aVhWxAC5nNDcrdv3x7indPXsG0Q0L7GRSHCLqHHncYZlUEIBEAg+S5qhYGXLtDzqksYwDXti+CMqQdyqyx41t4S5RQChyGQRQQHCDjY/9NhUITLjajlHATzJFyJ9UvieCAmFJ7Wz9FtymqWuexWikoXApsRyCWCW8C86WYT418FwTwG4bJ7WESUzrHI157IDbbPsJcRMZAoIXANgVwIjgtJvXRTlwBzIfBbRFRPcKHTcTDKoCzIGWF3s8En6p668UY/Fcmli3rlvSpqGnlzJQfaodMzdFunODLaDLGxWz5G2Y9BJEWIAkOWocmFkGiqrLYI5EZwYwBhvixihzNIbjPsrzA2xWPjjaSGTPex8zhoXEC8DG5mlOOZLEneEMiK4AiuoyUjdXw9R6TzBhFYyZ0Zlt9Mw0zokL9xv+CO+/fwc8Rr3jdFb9491B/9siM4LpFAA+MAvzY7BBS92WEvySsIZEdwtM3rWNwK7jmfztH9Ps7ZQNmWDgJZEly1ip+zitoiI4AhAr2WFRlziduOwCfbb6V7B7OVP2LMitsoXSvS0xx4X2AM8UV6mkvjXBHIMoKrnGX+DbRcK80mu6qJhbu4t9h0X9eEgAUC2Sz03QDeAt2l0w3XdakDBCqsRW4dYKsi2yOQZRd1CQe6qlx+wW20vKZjeASAL7umfw1fskoUAochkHMX9QMyia2N+6B3Cifoml7iQXIMXRW9peCwnunYC4KDT/la03see+bfrs3l/6TguFvZtSCVLwTaIJDzGNwqHhyPY5ShLSAC6JqeoLgyYJEqSggERaAvBHdUfTL7NCh6/S7sFONu835DIOu9I5D1JMM6+BwvQtTxM/Zv1+/pd30EOKmArul/1c+hlELABoFeERwhBsl9j+5qgdMhf2trjMAU5PaXxrmUQQgYINA7giPGILlXIrlWtY3kpm5+K+iUyQKBXhIcgRbJNa5uIrfGkCmDNQK9JTgCT5LD8hEuHfnG2hHO5YvcnDtI6m1GoC/r4DZbX10FyU1w+rz6qcMKAngInGEh78XKJZ0KgWQQEMFVrqo+lMnPnWsx8B+YLHDghytnFUQ6CIHkEBDBXXdZgcmHl1gGMbx+uV+/ELXx9Sst4u2X27O0ttdjcBs8ukDj/isIjttow/3sL8FurnEjuTGC0yYEkkZAEdwW9/GrwGjoz9HgexHNgdhLRK96O2FLfdDlNBFQBLfFb+ii/bgSzZHkPtuSNPnLsPOcXVLsZfLGyAAhsIKACG4FjE2naPxz7H9DdDPA/dyiOS7/OIF9s02265oQSB0BdVEbeLD6ZzZPkWXUIJvHpHN0vc/1srxH10inkAiI4FqgWRHdQ2SdtMhumWUKYnshYrN0gWTHREAEdxjaXFYyQREPQBwFju42dD9LKPUC42tTHHmuTQj0BgERXCBX422IMYq6j53HQaBi2xazQMYZ9ldaqNsWQuXLAQERXAde5FsRKPY+oqZRrGUmiNQuEU3OIfeVuqBAQZsQAAIiuO6rwQCEN6zI7msQUXEo6ZHMUEaJ4zuSGgjtEmYwatMmBITACgIiuBUwIp9eER9lgqgG2Ieb5IPISGZX5CUi24SQrgkBISAEhIAQEAJCQAgIASEgBISAEBACQkAICAEhIASEgBAQAkJACAgBISAEhIAQEAJCQAgIASEgBISAEBACQkAICAEhIASEgBAQAkJACAgBISAEhIAQEAIdIvD/AS5Ray2SDPa1AAAAAElFTkSuQmCC;rounded=1;" parent="1" vertex="1">
          <mxGeometry x="147.55" y="230" width="84.9" height="120" as="geometry" />
        </mxCell>
        <mxCell id="itDi_Q5OXnBbP6Qk32dc-1" style="edgeStyle=orthogonalEdgeStyle;curved=1;rounded=1;orthogonalLoop=1;jettySize=auto;html=1;exitX=1;exitY=0.5;exitDx=0;exitDy=0;entryX=0.16;entryY=0.55;entryDx=0;entryDy=0;entryPerimeter=0;" parent="1" source="qivoIHH8CJ9T5ArKO1uE-6" target="qivoIHH8CJ9T5ArKO1uE-59" edge="1">
          <mxGeometry relative="1" as="geometry">
            <Array as="points">
              <mxPoint x="660" y="205" />
              <mxPoint x="660" y="114" />
            </Array>
          </mxGeometry>
        </mxCell>
        <mxCell id="itDi_Q5OXnBbP6Qk32dc-2" style="edgeStyle=orthogonalEdgeStyle;curved=1;rounded=1;orthogonalLoop=1;jettySize=auto;html=1;exitX=1;exitY=0.5;exitDx=0;exitDy=0;entryX=0.16;entryY=0.55;entryDx=0;entryDy=0;entryPerimeter=0;" parent="1" source="qivoIHH8CJ9T5ArKO1uE-6" target="qivoIHH8CJ9T5ArKO1uE-61" edge="1">
          <mxGeometry relative="1" as="geometry">
            <Array as="points">
              <mxPoint x="660" y="205" />
              <mxPoint x="660" y="289" />
            </Array>
          </mxGeometry>
        </mxCell>
        <mxCell id="itDi_Q5OXnBbP6Qk32dc-6" style="edgeStyle=orthogonalEdgeStyle;rounded=1;sketch=0;jumpStyle=arc;orthogonalLoop=1;jettySize=auto;html=1;exitX=0;exitY=0.5;exitDx=0;exitDy=0;entryX=1.025;entryY=0.608;entryDx=0;entryDy=0;entryPerimeter=0;strokeWidth=1;startArrow=classic;startFill=1;endArrow=none;endFill=0;curved=1;" parent="1" source="qivoIHH8CJ9T5ArKO1uE-7" target="qivoIHH8CJ9T5ArKO1uE-32" edge="1">
          <mxGeometry relative="1" as="geometry" />
        </mxCell>
        <mxCell id="itDi_Q5OXnBbP6Qk32dc-7" value="Notifications&lt;br&gt;to publish" style="edgeLabel;html=1;align=center;verticalAlign=middle;resizable=0;points=[];" parent="itDi_Q5OXnBbP6Qk32dc-6" vertex="1" connectable="0">
          <mxGeometry x="0.7481" y="4" relative="1" as="geometry">
            <mxPoint x="39" y="-21" as="offset" />
          </mxGeometry>
        </mxCell>
        <mxCell id="itDi_Q5OXnBbP6Qk32dc-10" value="Maven Central" style="ellipse;shape=cloud;whiteSpace=wrap;html=1;sketch=0;strokeWidth=1;rounded=1;" parent="1" vertex="1">
          <mxGeometry x="830" y="380" width="130" height="80" as="geometry" />
        </mxCell>
        <mxCell id="itDi_Q5OXnBbP6Qk32dc-11" value="&lt;div&gt;Internal Component&lt;/div&gt;&lt;div&gt;Repository&lt;/div&gt;&lt;div&gt;(Artifactory, Nexus RM)&lt;br&gt;&lt;/div&gt;" style="rounded=1;whiteSpace=wrap;html=1;fillColor=#f5f5f5;fontColor=#333333;strokeColor=#666666;dashed=1;" parent="1" vertex="1">
          <mxGeometry x="630" y="740" width="140" height="70" as="geometry" />
        </mxCell>
        <mxCell id="itDi_Q5OXnBbP6Qk32dc-12" style="edgeStyle=orthogonalEdgeStyle;curved=1;rounded=1;orthogonalLoop=1;jettySize=auto;html=1;exitX=1;exitY=0.5;exitDx=0;exitDy=0;entryX=0.5;entryY=0;entryDx=0;entryDy=0;strokeWidth=1;startArrow=none;startFill=0;endArrow=classic;endFill=1;dashed=1;" parent="1" source="qivoIHH8CJ9T5ArKO1uE-8" target="itDi_Q5OXnBbP6Qk32dc-11" edge="1">
          <mxGeometry relative="1" as="geometry" />
        </mxCell>
        <mxCell id="itDi_Q5OXnBbP6Qk32dc-13" value="NPM" style="ellipse;shape=cloud;whiteSpace=wrap;html=1;sketch=0;strokeWidth=1;rounded=1;" parent="1" vertex="1">
          <mxGeometry x="830" y="460" width="130" height="80" as="geometry" />
        </mxCell>
        <mxCell id="itDi_Q5OXnBbP6Qk32dc-14" value="..." style="ellipse;shape=cloud;whiteSpace=wrap;html=1;sketch=0;strokeWidth=1;rounded=1;" parent="1" vertex="1">
          <mxGeometry x="830" y="550" width="130" height="80" as="geometry" />
        </mxCell>
        <mxCell id="itDi_Q5OXnBbP6Qk32dc-15" style="edgeStyle=orthogonalEdgeStyle;curved=1;rounded=1;orthogonalLoop=1;jettySize=auto;html=1;exitX=1;exitY=0.5;exitDx=0;exitDy=0;entryX=0.16;entryY=0.55;entryDx=0;entryDy=0;entryPerimeter=0;strokeWidth=1;startArrow=none;startFill=0;endArrow=classic;endFill=1;" parent="1" source="qivoIHH8CJ9T5ArKO1uE-8" target="itDi_Q5OXnBbP6Qk32dc-10" edge="1">
          <mxGeometry relative="1" as="geometry" />
        </mxCell>
        <mxCell id="itDi_Q5OXnBbP6Qk32dc-16" style="edgeStyle=orthogonalEdgeStyle;curved=1;rounded=1;orthogonalLoop=1;jettySize=auto;html=1;exitX=1;exitY=0.5;exitDx=0;exitDy=0;entryX=0.16;entryY=0.55;entryDx=0;entryDy=0;entryPerimeter=0;strokeWidth=1;startArrow=none;startFill=0;endArrow=classic;endFill=1;" parent="1" source="qivoIHH8CJ9T5ArKO1uE-8" target="itDi_Q5OXnBbP6Qk32dc-13" edge="1">
          <mxGeometry relative="1" as="geometry" />
        </mxCell>
        <mxCell id="itDi_Q5OXnBbP6Qk32dc-17" style="edgeStyle=orthogonalEdgeStyle;curved=1;rounded=1;orthogonalLoop=1;jettySize=auto;html=1;exitX=1;exitY=0.5;exitDx=0;exitDy=0;entryX=0.16;entryY=0.55;entryDx=0;entryDy=0;entryPerimeter=0;strokeWidth=1;startArrow=none;startFill=0;endArrow=classic;endFill=1;" parent="1" source="qivoIHH8CJ9T5ArKO1uE-8" target="itDi_Q5OXnBbP6Qk32dc-14" edge="1">
          <mxGeometry relative="1" as="geometry" />
        </mxCell>
        <mxCell id="VMr1wWkczlRjw2ziYmWZ-1" value="" style="shape=image;verticalLabelPosition=bottom;labelBackgroundColor=default;verticalAlign=top;aspect=fixed;imageAspect=0;image=data:image/png,iVBORw0KGgoAAAANSUhEUgAAASwAAAHaCAYAAAC6tnRxAAABhWlDQ1BJQ0MgcHJvZmlsZQAAKJF9kTtIw1AUhv+miq+KgxmKOGSoThZERRy1CkWoEGqFVh1MbvqCJg1Jiouj4Fpw8LFYdXBx1tXBVRAEHyCuLk6KLlLiuWmhRYwHLvfjv+f/ufdcQKiVmG53jAO64VjJeExKZ1alrlcE0AcRPQgrzDbnZDkB3/q6p26quyjP8u/7s/q1rM2AgEQ8y0zLId4gnt50TM77xCIrKBrxOfGYRRckfuS62uA3znmPBZ4pWqnkPLFILOXbWG1jVrB04iniiKYblC+kG6xx3uKslyqseU/+wlDWWFnmOq1hxLGIJciQoKKCIkpwEKXdIMVGks5jPv4hzy+TSyVXEYwcCyhDh+L5wf/g92zt3OREIykUAzpfXPdjBOjaBepV1/0+dt36CRB8Bq6Mlr9cA2Y+Sa+2tMgRMLANXFy3NHUPuNwBwk+mYimeFKQl5HLA+xl9UwYYvAV61xpza57j9AFI0awSN8DBITCap+x1n3d3t8/t357m/H4AFB1ygWgb614AAAAGYktHRAD/AP8A/6C9p5MAAAAJcEhZcwAADdcAAA3XAUIom3gAAAAHdElNRQfnAQsUCTDBwK9iAAAgAElEQVR42u3de5hdVWH38e86M5kJ5MJNCmhVEHLRBObMZAoiRQgXFQWLtdyUxFaFUsJFpAVebbnYKkgtWiwg1lYgXDRUKxS1iCZgIAaZzCUkr7khSgskgpArkMnMWe8fZxDlVQT22mfO2ef7eR6fxwce1pnnt9f57bXP2WftQJ2JLB8PW6dCmAJxKoTJwJ7AuJH/7QBMBFpobhuBzcAWCBuBJyCugLgSWlbBtp8Euh9HKpAw+gXVsz2U3gbhj4GDgLcDbR6aJB4H7oXwfajcGej6uZHIwnrlq6g2GHw38CHg3RZUzZLvhTAXWm8J7LvOPGRhvWRR9b4FwunAicAuxj9qhoA7ga9A+fZAqBiJLKwXiqoDSudC/AB+9lRvHoJwOTz974GZQ8ahpi2sSF8ZwqUQ32XUde+nEC+BzrmBEI1DTVNYkYFxMPx3EM4FWo25odwLlTmBGUuNQoUvrEjviRCuAPYw3oY1BPFKaL8oMG2zcahwhVW9f2rwGuBkYy2MVRCPD3QNGIXqQSnRquotMPgjy6pwJkNpcaTvbKNQIVZYkd5ZEK4FtjPOQrsJxn8kMGmrUaghC2vkzHtFqpWa6t7dMHxsoHuDUahhCisSA/RdCuF8I2w28UHgXYGux8xCdV9Y1bIa+FeIHzG+prUGwqGB8qNGoVp6FZdy/ZdbVk1vH4h3RpbtbBSq28KK9J0H/LWxCZgG275TvUlYqrNLwpFvA69n9LakGQZ+BqwCHoa4CcIG4BkIzxb/UFVaoDQR4gRgHMQ9RvYKmwJsP4p/2O1Qfp8/oFbdFFZkyX5QWkxtb13YBtwHcT6E+TC+x6/Uf9uxiQEGJgEzoTITwhHUfCeMeGGg6+89Ghr1whq5g71n5ExeCz0Q5wK3BLqe8BC90gLrGQOlo6A0G+LRQHttVr/x8EDXPR4BjXJh9d8AcVYN/pb7oHRhoGO+hyVVeQ38AVROBz5GdWvpPK2DbeXA/mtNXqNSWCM/ZL4l57/hXiidHejo9XDkVVz37wJtfwfMId/dM24LdB5r4qp5YUUWT4T2FeS368ITwHlQvt79l2pVXH1l4GrgwByn1DGB8h2mrTy8xG0N7Z/KsazuhlgOdF5nWdXy7NTZD+WDIFxA9VvXPGrxKm91UE0La+RMPCeH16sAF8PqI/xpx2iVVoiB8meh9A4gjwdRvAGGLzBp1eySMNL/3Ry2NR6CcGqg/FVjr5dLxIG9oHInMCnxtHoOht7kcxGV+worsmRGDmW1BSrHWFb1drbqeBhaDwb6ElfhWGj5mAmrBpeE4ROJX2MbxOMCM/7buOuxtPZdB4NHAj9JPPScSM9rTFi5FVZkyZshpPxaOgKnBLq+a9T1XFoH/HLkM61HEg47DlrOMF3luMIqzSHpZnzx4kDn9cbcEJeH/wul9wEpf/50WmSBT01S+sKqPj6eExKOfTes+bQRN1Rp9QLnJhxyN9jxHSarHFZY294DpPrM4QnYdlLg+GEjbrTS6rwKwjcSrrJnm6pyKKykE+tv/E1ZIxs8A1ifaIr9SaRvRzNVssIauTP5qERn1IVQvsFoG3mVtf9aiBclmg9jgfeYqhKusOJBpNmGJFZ/yOzPbRrfmqsgrEhUWoeZpxIWViXVhPpOoNxnrEVYZR0/DPGyRKMdbqJKWFhhZqLxLjXSIll9I7AmwUBvjPTtaZ7KXFjVHUXpSjDWA4HO+4y0aKssrk003KEmqgQrrME3k2RTt+AH7YUUbybJVjRhulkqQWGFFHu1b4OhrxlnEVdZXY9B/H6C4ptimkpQWJUEEyn8MND9pHEW1rcSjGFhqV5WWHGBURZ6mqR4MMheIz//kjIV1usTjGNhFfqysLwK4v9kHKYVBl9rmspYWHFCxjGGoK3HKAtfW/dnH6Nlgjkqa2FNzDjGw4Fpg0ZZeCuzDzFsYSnzJeGE0Z/Iqn8xwXEOFpayFhYZH8kUf2aMTTFVHk5QehPNUVkLa0zGs+ZGY2wGwymO8xhzVNbCymqzMTaD1k1moAIUVtxijE2xwvLEpCIUVqlijM1gm8dZhbgklCQLS5IsLEkWliRZWJJkYUmysCTJwpJkYUmShSVJFpYkC0uSLCxJsrAkWViSZGFJkoUlycKSJAtLkiwsSRaWJFlYkmRhSbKwJMnCkiQLS5KFJUkWliRZWJIsLEmysCTJwpJkYUmShSVJFpYkC0uSLCxJFpYkWViSZGFJsrAkycKSJAtLkoUlSRaWJFlYkiwsSbKwJMnCkmRhSZKFJUkWliQLS5IsLEmysCRZWJJkYUlSPoUVxxpjM9h+ezNQEVZY442xGWybYAaqh8KqZBxjojE2xVRJcGKKFXNU1sLaknGM3Y2xGcQ9Eky3zeaorIWVcRLFKcbYDMLU7GNUNpmjshZWxkkUpkRiMMrCr7ASnJhKG81RGQsrZD3rjYPevY2y8Cus/RKUnpeEylpY8RcJhplplAVeW7F0J4jl7CMN/8I0lfWScFWCcSysQqscCrRkXKGtDXRvMEtlXWGtTDDOEZGeMcZZ2DXWuxKMscoclaCwWlIU1q7Q+k7jLOLl4PI24P0JhlphmkpQWMOJJlKcbZxFtPUYYJfs44SVZqnMhRXoegz4WYIJeUzkx95EWjjh1ETj3GeWSrDCAmBBghXWWBhzjpEW6XKwvxM4MsFQm+CpJSaqRIUVFyQab06k5zXGWpjKuhBIcVPwPYGZQ+apRIVVmp9ovHHQ8gljLcLqqu9twJ8kuhxcYKJKVliB8qNAX6Ixz4ws2c9oG7msFrQCVydaXQHcYapKuMICCHMTjdkKpasj0d1MG9ZOZwIdiQa7P1D2HiwlL6ybgFSfMxwEA14aNuTqaum+ED+dcMi5pqrkhRXo+AXwvYRT/5JI7+FG3EhltXw8VOYB2yUachsMf91klcMKCyB8Je3YpRsjA3sZcyOU1bwWGLwJ4tSEw/5noPtJ01VOhdXxLWBZwrfB7lC5K/LgbkZdz2UVA0z6EvDetCNXLjdd5VZYgRAhfDbxa+wN274TuX8X465XfZcCH0086LcDM7xZVHmusABW3QKsTvsyoQvaFkZ63mDk9XUZGOn9EoTzcxj+UhNW7oUVOH4Y+HQOr/VmaLkv0lc29nooqxUTYNI3IfxlDsN/N9DpbwdVixUWQPkG4J4cXu8PgcWRvrONfjTLqvct8Oxikn9mBcBWKPmbUtWusKqfZVXOIt19Wb+uHfhCpG+euzvUuqgWtEb6z4HSEuAt+bxK+Gygw61kVMsVFgRmLAW+mONrHwdjVkT6zq5+pa6cV1XdsOMiiFdUd9bIxUPwtJ9dKTfhpSf58vEw2APk/ezBn0C8DDbc7K/68yiq8Lcjl395Po5tGOLhga57TF2jUljVCb9kPygtJt3dzy/lpxCvhsrNge7HPTyvtqRWt8Omo4FTINRo6+p4YaDr701fo1pY1TdA/6kQr63h3zUMfA/CbRDnBzpXe6h+3zFauhMMHwIcVb3cZqcavvz3ofzOQKh4JDTqhVV9Q/TdBHxglN6O/wNhMbAKwgqID1cfytm6CUrroRKb5HCNh8HxUBoPvA6YPPJE5jKEDjI/iutVeRRaZwT2XefbSXVUWMvbYPC/gHcYm0ZsAA4NdPYbheqqsKqltWICPHN39c51NblnofTOQMdCo1CtvKJN9gJTN8GYdwNrjK6pDQEnWVaq68Kqlta+62D47cCA8TWlrRBPCnTeZhSq60vC37w87NsR4u0QDjbGprEeSu91ZaWGWWG90HSd6+G5dwK3G2NTeBRa3m5ZqSFXWC+stGKA/rOAfwTGGGkhLYDhD3ozrxp2hfVC44UY6PxniEcAjxlpoQwDl8DqIy0rFWKF9ZurrYE/gMq1wLFG2/AegvgRfxuowhbWC8XVfzTEKwEfQNF4tkG4BsInAh1bjEOFL6xqaS3aDsZ+AsK51OaH08ruO1A5OzDD++zUXIX1QnH17gphDnA2sKOR16Xvj+y28COjUFMX1gvFtWxn2HYWcBrgY79G3yDwLeBSfwsoC+t3Fte8FthnJpRmQ/xTYJyHoaaHfAnEuVC6ZeRp35KF9fLKq2cHaDka4mEQDgP29JAktxH4IYT5wLcD5VVGIgsrSYEN7AWVQyBMH9nnaQrVbxpbPVQvyzpgBbCyum9YWARPLXHbaVlYNSux5W0w+FqoTKxuXBfGQ9zBQxeerW5iWNkEcT3wZKB7g7lIkiRJkiRJkiRJkiRJNReMQEVUvX/vub2hZSrVB86+BpgIYSJUxkFwBxHCBohbgC3V/195BFpWAqsCHf9rYUm5FdSDr4dtM0d+4vU2/IVEVpshLIPKPVBaAOHeetgfzcJSA5dUfyfE2cDRwD4mkqttEBcDtwJfC3Q9YWFJv7ekfrw7jJkFzAamm8holRffhXgDVG4PdG+zsKTfKKq+PSGcA/EU3MG2njwCXAHD/xrofsbCUpMX1cAUiJ+EeBJ+JlXHwlqIV8DwVXkWl4WlOi2qRdvBducDFwDtJtIwHoX4iUDXDRaWmmVVdQxUrsQNHRvZHVA6K9DxsIWlghbVignw7LXASaZRCM9AOCNQ/qqFpYKVVX8nxK8Dk0yjcG6Etr8KTNucdaCSWaoOyuovgUWWVWGdDNseiPRPs7DUwEUVQ6TvYohfgjjWRAp9tKdCvDcycLCXhGrAsprXApOuAU4xjaayFeIHA13fsLDUIGW1vA0G5wF/YhpNaQj4aKDzei8JVe+XgSUYnGtZNbVW4N8jfcdZWKpz/VcAx5tD0ysBN0b6jvSSUHW6uuq9EMIldfCnrIP4KLCF6r1CG5vkCLRU9wNjAjCO6hY840b5j9oAHBro7LewVEdl1Xcs8M3az7mwFuJ84G4IAzC00gfO/uryPMCS10NpMpTeCvEwCAeOwje2P4cxXYHpT1lYqoey2hPoBXaqXUlVboYw9+WeufX8sVowFnY6amSfsXcDbTV66duhfGwgRAtLo/gG6BkDLQuBA2rwcg9AuBRW3R44ftj0sx67+3eB9r+CeDbwmhqcaM4NlK+wsDSKk773Mgjn5/wyPRA+GSh/z8TzOIYD42D4NAh/C+yY40sNQunAQEevhaVRmOj90yD2AWNyeon1wMWw+l9cUdVqxdX2Gao3++bVHT1QPiAQKhaWaji5Y4C+eyAcnNNL3AXbZgf2X2vatT62fUcCc4Hdcro0PC1Qvva3/Rvvw1JO+j+UU1kNA5fA6qMsq9ER6LwLSvsBOV2Cx89Eend1haUanYEXbQfb/xTi7omHfgbCCYHyHaZcD8d5XgtM+hLw0RyGvyrQeYaFpRpM5N6zIPxz4mHXQzgmUL7XhOvtePefD/GyxMNuhfimQNdjXhIqx8m7vA3468TDboTS4ZZVvV4ilj8LXJx42HYoffzF/9DCUuoT4ywIr0844CDwZy/1VbfqobQ6L4FwZeLT32kv/izLwlLqqfvxxJP2Q9UPeVX/Vn0cSPn54jgIp/5mMUrJLgf794d4f8Ihrw50zjHZRpoDS3eC4V7SPfFoNZSnPP+THVdYSqgyK+FgfbD+XDNttEvD/Z6GyklUH2efwiRYur+XhEp8Zu0ZA+HERMMNQ/hIYOZzJtuIpTVjMfCFPE6EFpYSaXkHyX4gG64KlPvMtJG1fQri/yQa7ITqPV8WltI5ItE4T8DQhcbZ6KusaZuhlOr2ltfA3mULSykdlmicz7vBXlF03AosSzNWaaaFpSSqv+JneoKhNgDXmGhRVlkhAqnugLewlMqYmYnm0pcDnevNs0hWfy3RZ1lvj/SMsbCU4lzamWaclrlmWbRV1vHDEG5MMNR4YG8LSymm5ZQEYywJ7PegWRZyflyX6IQ2xcJSApXJ2ceI88yxqKus8ipgaYKRplpYylYzxBKUJiUovR+YZqElOL6VyRaWMlr2ugTPsXsaHvJxXMVeZ81PMIafYSnzWW+HBIMs8iEShV+Lp9jLbEcLSxkNT0gwyE/MseDrKzrXVx9wm8l4C0sZlVIU1kpzbIpVVtbjPNHCUlbjE4yxxhibwuqM67QJFpaynjXHJhjEu9ubw9NZ55qFpTowvMkMmuLklvk4W1iqA+2bzaAZBAtLRfDMkBk0RWFlPs4WlqSGYWFJsrAkycKSZGFJkoUlSRaWJAtLkiwsSbKwJFlYkmRhSZKFJcnCkiQLS5IsLEkWliRZWJJkYUmysCTJwpIkC0uShSVJFpYkWViSLCxJsrAkycKSZGFJkoUlycIyAkkWliRZWJIsLEmysCTJwpJkYUmShSVJFpYkC0uSLCxJsrAkWViSZGFJkoUlycKSJAtLkiwsSRaWJFlYkmRhSbKwJMnCkiQLS5KFJUkWliRZWJIsLOkVC2PMoCm0WVgqgDETzKAZxMzH2cJS1kkYEyz0LazmWElbWBr1Sfhs9jEqu5hjU5zcsh7nZywsZZ2EmxMMMskcm8KUjP/9JgtLGbVsSrBKm2KOTWFyxv9+o4WljIYTFBbTzLHg63B+vDuQ9ZJws4WljCpPJ5jOB0aWt5llkbUdkmAl/pSFpYxmrAWyrrK2h6EDzLLQa6zDEgyy2sJStnMeIUJYlWBCH2mahXZEgjFWWVhKcfZMUVgnRWIwywLODpa8FXhT9pEqKywspbAywRj7QN9bjbKISrPSjNO60sJSCg8kusD8sFEWbXW1aDvghARDPQn7/szCUgLbLQS2JRhoVqT3teZZJGNPIfvtDAB3B0LFwlL2dRFTN0FYkmCodih93ESLsrrqGQMh1fFcAP6WUOmm5/xE45wW6X+deRZB6TTgjWnGqlhYSlpYdyYaaBzEK8yz0VdXD+4G4VOJhvt5YMZPLCwl1LkQeDjRYMdHeo8y00Y2/I/AjokGu+lXazaDVQrVG0i5OeGQ10bud9uZhlxdDRwD8eSEs+tmC0t5uB6IiSbp66Htem8mbbSy6nkDVK4DUh23BwLl5RaWclhlda4GFicc8j3Qf4HJNszKahy0fhPYOfFJEAtLebk88XifjvR7Q2n9r6zGQOVWiDMSDvtLaLOwlKfybcCypAs34rXVz0VUn2UVS9DyFSD1FyX/FJi22cJSjpeFIQKXJh62FSrfjPT/hQnXW1ktb4OBm4DZiYfeAFzz4n9oYSkHq79Omh9Ev6i04lci/eeYb91cBu4AW78L8cQchv98oHP9b1luS3lM5r4jge/ltI77Bgx9JNC9waRH6/j2d0KcB+yTw/CPQOktgY4trrBUo0vDzruAW3N6u7wfWu6PDHSZdK2LKpYivWdC/FFOZQXEM39bWbnCUt6XDHtAywpgYk4vUYFwE2w9J3DAL00891VzGbgaODDHl/luoPPdv+tfusJSjqus7schfDLHlyhBnAXtyyK9Z43svaT0J569I/1fAXpyLqsNwOkvPaekfC8hAvR/A3hfDV5uHcQvwJivBvZdZ/pZj11vN4SzgROB1hq84p8Fur5hYWmUJ/7SnWC4F9izRi85BNwJ8UZo+15g+lMehZe9mpoKLe8DZgFvruEr/0ug68zfv2qXavJGGDgAKj8Eav38wQrEfigtgMoAlFbC0Eq/YXz+d3+lySNP3n4rcBgwCju+hiUw7qDApK0WluroDdL3QeAG6uOz02eALcAmiOuhFJvgCLQD44EdgAm1ucz7vR6B8LZA+dGXVW2+jVTj0joduMokBPwSKgc/vznfy+G3hKrt4p/OqyFcZhJN7xngva+krCwsjZKOT7gNclPbCOHoQOeiV37Ck0bv8vBs4ApPnE1lHZTeHejofXUrdGlUS6t3FoR/A8aYRuE9DLxzZKPHV8Uzm0ZVoGsuxKMgrDWNQp+a7oR4QJaycoWlelpp7QrMhfBO0yiUYeAfoPypQKhkHcwVluplpfUErHkPxItI89h7jb5HoDQz0HlxirJyhaU6XW0NTIHKvwBHmEZDGoJwNYz928DUTWlPbFLdFlffccAXgd1Mo2H8EEpzAh3L8hjcwlKdl9biidB+BvAxYFcTqVv3Q+nTsN8dI/v65/TRgdQQxbW6HbZ8COLfAX9oInXjPih9NtDxX7V4MQtLDVZc81pgn5lQml3dKpntTaXmHoPwHxCuf7U3gFpYasLyWroTVI6DytEQDiG/rZgFDwHzgVth9fzA8cOj8UdYWCrQymvyDKgcBuFAqpvP7UV9bKHSaDZBWAVxGXA3DM8PdD9SD39YqN8JuGg7GDsZSlMgvhHCeGAcxAnAjpZt3ASlLVT3dFoPlSdHNqdbEeh+0vfc849PZ+/qJnWl3aEyYWQejXc1xjDEjRA2QNwMpc0Qfg5x5cvdm6ppC2vkc4lOCDOBQ4DpwBsspVftKWAFsAhYAG0/fPEjv6VGNGqFEOnZfmTv6D8DDh1ZNSkfQ8ADwB0wfGO9LO+lui6skSeoHAJ8CHg/1W1aVVsV4B7gBtjuG6nvRJYavrAisQRLR34nFmcYe93YBOGrMHhpYH93S1BzF1b1Q8/SbAgXkNtjrZXAZgjXwuDnLC41ZWFFBg6G4asg7GvMDWML8Dlo+0xg2qBxqPCFFVm2MwxdBPEM3L6mUS0FTg903mcUKmxhRfqOBf4N2NloG14EroS281xtqVCFFVnQCjv8A4Tz8N6povVWL8QTAjPWmIUavrAiA3tBZR7QbZyFtQHChwPlbxqFRlOmz5giA9OhstCyKrwdIP5HpO9vjEINucKK9B4C4bbqZFYTTZkroeNjeW7SJiUtrOqH6+EWiGONsCl9FVafMlpbjMhLwldyGXgY8DXLqqn9BexzlTGorgsr0vdHULkNaDe6pl+c/2Wk72JzUF1eEo48emkho/8ggAj8AtgC4WmoPANhaxMcqkB1R4txUBkHYTegrQ7+sDmBzqt9K6luCiuyYgI82wNMHoVyehCYD/H+6gZ1YVWgY0uzH7jqHmJv2hNapgBlqlv0HETt9zgfhnBkoLzAt5PqpLD6bgZOqmFJLYR4A1Ruc/fMVxLc6nbY/HYIsyD+aXU1VhOPQ2tnYN91HgWNamFF+k4BvlyDv2VL9XVKXwx0POyhyVpey8fD4EnA+cDeNXjJu6D8rlSPJJdecWFFet8CoQfYLse/4Vng8zD8eVdTeRTXglbY8QTgkvyLK/6fQNdlpq6aF9bI7qA/AGbm+PI/gDAn0LHSQ5H7iqsNtp0DXJzjLSnPQsv0wH4/NXHVuLB6Z0G4IafX3QDh1EB5noeg1sXVN2nkpt+8dn79dqDzaJNWzQorsngitK8A9sjhLeOv/0e9tFa3w5bLIZ5JPrtrvC/Q+S2TVmq/48bRtovyKStuhQlvs6xG+yw1aWugfDbwYapP1EntipFnAkr5Flbk/l0gnJrDa10D5RMDk7Yae70UV+d1EN4HPJN46L2g9WQTVg1WWG3nUH0ybkpfCHSe7lfe9Vha5TsgHA3hucQXnhdUb26Vciqs6mdXzEn8GjdD+VyjruvSWgCVExJfHk6GfY4zXeW4wmo/laRPYA4/gOE/d2XVCKXVdTvEjyeeXn9tssqxsOLshGOvg6FZge5txtwwpfVF4KaEl4UzIkt9zJvSF1ZkoCvhMwSHIZwU6H7ciBvN1tOBhN/iDs8yU+WwwqokXF2Fq/z1fqOust66EcJfUP0Regof9MN3JS2sSCwBJyaa8mth6EKjbeTSKt8LzE003GthyiGmqoQrrIEOYLc0Q1bOC3RvMNpG13oesDHRZeE7zFMJC6tyWKLxHoI1NxtrEVZZ+66DkGgn0XCoiSphYYVEOzKET/sklSIZ+idgc4KBuiN9O5qnMhdWdb8kDk4w1uMwdKORFmmV1f0kkGLHjhYoHWyiSrDCmrAPMDHBWDd6z1UhXZdmmEqXUSpBYbVMSTQhXV0VcpXV+QCwPMFQU0xTCQoryURaHpix1DiLKibYaDFaWEpRWEkm0veNstDrrB8kGGNKddttKVNhhRQPJvCu9kIb/jHZvy0cB0t2N0tlvSRM8HXzmIVGWeD1VfXLlB8lGMlbG5S5sDJ+QxjWBqY/ZZSFr62fZB+jZYI5KmthZdxdNPqIrqaQ4jhXLCyNdmGx2hiborBWJZhuE81RWQsr61OdnzbGZtCS4LK/MtYclbWwsp55NxljM6gkOM7B2xo02oVV2myMzWCbJyYVobDw94NNIXqcVYjCkiQLS5IsLEkWliRZWJJkYUmysCTJwpJkYUmShSVJFpYkC0uSLCxJsrAkWViSZGFJkoUlycKSJAtLkiwsSRaWJFlYkmRhSbKwJMnCkiQLS5KFJUkWliRZWJIsLEmysCTJwpJkYUmShSVJFpYkC0uSLCxJFpYkWViSZGFJsrAkycKSJAtLkoUlSRaWJFlYkiwsSbKwJMnCkmRhSZKFJUkWliQLS5IsLEmysCRZWJJkYUlSToU1xhibQfA4qwiFVRlvjM1gzAQzUAEKK1hYzTFVEhRWjOaorIX1bMYxdjbGZjCc4DiXnjNHZS2szRnHmGSMzSBMzj5GZaM5apQLK0wxxqYorATHubTJHJW1sDKe9eLukWVeFhZefHOCy0oLS5kLa332YbYdbJQFrip6xgAHJhhpvWkqY2HFhxKMM9Moi6xlfyDrt8FbYMZas1TGwgorE4xzhFEWWoLjG1cGgrc1KPMlYYrCmhZZsp9xFtZx2YdIcmKUhTWcaCKVTjbO4on0/REwLcFQFpZSFNamNWT+phCAk0c+nFWxfCjRVOs1SmWeRYGZQ8DCBGPtAa2usgq1uup5TaLCGobKQhNVghUWQFyQaIp/MjKvxViLovVcsn87CNAT6PSWBqUqrNL8ROPtDft8wFiLsLp6cDeIp6cZLSwwUSUsrI4BYF2iIS+P9OxgtI1u6HJgYqLCuss8laywAqECfC3RuXl3aP2U0Tby6qr/j4FZiYZ7DFbeY6pKuMICKN2QcMrPifR793tDltXiiRD/HQiJhrwxcPywySppYQU6eiE+mGjcFoi3RHr2MOJG0341SbcMarnRTJXDCgsgJFxlsRu0zojx+IAAAAPRSURBVPXerEZaXfWeCXww4Yi9gf0eNFnlVFhbv0yS3Rt+NWEPh5brItGn89R/Wb0XwucTD/uPJqvcCivw1o3AVYlf4wPQ/zmjruuyOgRKX69eyiezCtbcarrKcYUFMPh5sm+b/GLnRPqucqVVj2XVdySE/4I4Nu3I4TI/bFfuhRU44JcQrs3htU6H/q9FVrcbe92U1Z8D3wFSP8LrYRjyw3YlF377RF48EdpXADl8yxd7IZ4QmLHG+EerqFa3w5bLIZ5JutsXft2xgc7bTFo1uCR8/rOseH5OHdkFpZ5I/wnGPyqrqkmw5T6IZ+VUVt+2rFTTFdavTe755Lr9cfgBhDmBDvdKyr2olrfBtnOAi9N/XvUrz0LL9MB+PzVx1WyF9YLKHLI/aPWl3kaHQ6Uv0veZSO+uHo48impBa6T/ZBj8vxAvy7GsgPgpy0qjtsIaWWV9FPjXGvwtW4AvA1cGOn/moclaVAPjoPIB4Hxg7xq85F1QftfI71Kl0SmskdK6CfhAzd5rsBDiDVC5LdD9pIfp5Qa3uh02vx04GfhT0uxl9XI8DqVyoOMXHgXVQWGtmADP9gCTa/4ehKXAfAj3Q1wJw6sC3c9YTvNaYOobYWgKhDLVzxoPArav8Z8yDBwR6Lzbt5PqorCqb5D+yRDvBXYd9fcqrK1eQoYNEDeOvGmawcSRVdN4YDegDu5pi6cHuq7xraS6KqxqU/R2Q5hP+hsN1ZguCXRebAyqy8KqltbAYVD5Tn2c3TWKK6trA12nmYNq6RX/ti/QMR84EcJzxte0roM1c4xBdb/C+rXLw0Mg3Aa4f3tzTZkroeNjPnZeDVVYI5eH06Hy38DrjLL414DA+YFO97hSYxZWdRb37QnMA/7IOAtrPYQPB8r/aRQaTZn3p6relb7+bRA/O3IWVrHOaUtguNuyUiFWWC9abR0L/Buws9EW4hLwSmg7LzBt0DhUuMKqzvJlO8PQRRDPSLGC06hYCpwe6LzPKFTownqhuPr/GCpXQ9jXmBvGFuBz0PYZV1VqqsKqltaCVthpNsQLSPqsOyW2ubot9uDnAvuvNQ41ZWG9UFyxBEvfA/EiiDOMvW5sgvBVGLzUopKF9f8XV4CBQyHOBt6Pv0kcDRXgHghzYex/BKZuMhJZWL+3vHq2h5ZjgeOAQ4CdPBy5GQJ+DNwBwzcFuh8xEllYr7q85rXA3mUoHTZSXtOBN9TL39eAngJWAIsgzof2hYFpm41FFlZuJbZoOxg7GUpTIL4RwgSIz+8FtaOHjmcgboLSZmA9VJ6E0koYWuEurSqq/wdZHtOwVh4ftgAAAABJRU5ErkJggg==;" parent="1" vertex="1">
          <mxGeometry x="-100.06" y="250" width="60.12" height="95" as="geometry" />
        </mxCell>
      </root>
    </mxGraphModel>
  </diagram>
</mxfile>
